<svg width="220" height="52" viewBox="0 0 220 52" fill="none" xmlns="http://www.w3.org/2000/svg">
<path fill-rule="evenodd" clip-rule="evenodd" d="M0.234375 29.3054L10.0327 29.4552C14.6873 38.0513 31.0349 40.7556 36.332 28.6016L42.7359 28.6311C40.9865 35.992 35.5838 42.9204 22.4705 43.9467C34.0331 46.6248 44.8622 38.1672 46.5583 28.6072H51.4138C48.1215 59.3124 5.77668 59.7914 0.235518 29.3099" fill="#FF5A5C"/>
<path fill-rule="evenodd" clip-rule="evenodd" d="M31.88 22.2347V21.2606C28.1644 20.8417 25.5226 20.2185 21.8421 19.879C18.1866 19.5827 15.6766 21.2607 15.0692 24.0556L9.47926 23.9716C12.3866 13.0039 31.8902 10.9639 36.7457 22.439L51.504 22.447C45.2601 -10.003 -0.363366 -6.22717 0.00218462 27.0414L14.9058 27.1061C16.3736 29.9839 17.5418 31.4676 22.4393 31.0022L25.8814 30.6923L31.8823 29.5696L31.8744 28.7147H21.9511V27.2775L31.8857 27.5283V26.3397L21.9511 26.0934V24.8208H31.8857V23.5504L21.9557 23.53V22.1972L31.88 22.2347Z" fill="#FF5A5C"/>
<mask id="mask0_487_7892" style="mask-type:luminance" maskUnits="userSpaceOnUse" x="55" y="8" width="92" height="36">
<path d="M136.517 43.0193C135.027 43.0299 133.545 42.8062 132.125 42.3563C130.768 41.9214 129.536 41.1646 128.534 40.1505C127.441 39.0106 126.613 37.6429 126.11 36.1454C124.927 32.1912 124.927 27.9773 126.11 24.0232C126.61 22.5306 127.438 21.1693 128.534 20.0396C129.541 19.0367 130.772 18.288 132.125 17.8554C133.545 17.4051 135.027 17.1809 136.517 17.1912H146.341V22.7176H137.259C136.043 22.6931 134.849 23.0449 133.84 23.7246C132.729 24.6122 132.001 25.8927 131.806 27.3018H146.345V32.8702H131.796C131.929 33.6442 132.192 34.3901 132.575 35.076C132.888 35.624 133.307 36.1044 133.807 36.4894C134.278 36.8436 134.816 37.0989 135.388 37.2398C135.997 37.3866 136.622 37.4586 137.248 37.4543H146.33V43.0171L136.517 43.0193ZM110.974 22.7154H106.733V17.1889H110.974V15.519C110.942 14.4441 111.152 13.3758 111.587 12.3925C111.962 11.5698 112.547 10.8603 113.283 10.3355C114.048 9.80518 114.907 9.42705 115.815 9.22175C116.825 8.98817 117.858 8.87388 118.895 8.88119H123.221V14.2782H118.807C118.438 14.2697 118.072 14.3582 117.747 14.5348C117.598 14.6201 117.476 14.7459 117.396 14.8976C117.316 15.0493 117.28 15.2207 117.293 15.3918V17.1901H123.222V22.7165H117.297V43.0205H110.974V22.7154ZM85.9986 34.7956C85.9543 35.1808 86.0039 35.571 86.1433 35.9328C86.2827 36.2946 86.5076 36.6172 86.7989 36.8731C87.3632 37.2687 88.04 37.4717 88.7289 37.452H97.384V32.0971H88.7345C88.0426 32.0774 87.3637 32.2883 86.8046 32.6965C86.5151 32.9583 86.292 33.2851 86.1536 33.6501C86.0152 34.015 85.9656 34.4077 86.0088 34.7956H85.9986ZM79.6809 34.7956C79.646 33.4613 79.8637 32.1324 80.3224 30.879C80.6818 29.9235 81.2599 29.0655 82.0105 28.3735C82.732 27.7368 83.5905 27.2749 84.5194 27.0237C85.5274 26.747 86.5687 26.6102 87.6141 26.6172H97.3943C97.3941 25.996 97.2274 25.3862 96.9115 24.8513C96.5956 24.3164 96.1422 23.8761 95.5983 23.5759C94.3968 22.9773 93.0667 22.6829 91.7248 22.7188H81.3815V17.1923H92.4173C93.883 17.1854 95.344 17.3581 96.7676 17.7066C98.0654 18.0156 99.2872 18.5841 100.36 19.3778C101.404 20.1746 102.242 21.2101 102.804 22.3975C103.452 23.8436 103.762 25.4182 103.712 27.0021V43.0216H87.6095C86.5627 43.0287 85.5204 42.8845 84.5148 42.5936C83.5829 42.3274 82.7246 41.8509 82.0059 41.2006C81.2547 40.4927 80.677 39.6209 80.3178 38.6532C79.8691 37.4179 79.6566 36.1094 79.6912 34.7956H79.6809ZM66.8253 43.0193C65.3359 43.0298 63.8541 42.8061 62.4342 42.3563C61.0765 41.9214 59.8442 41.1647 58.8423 40.1505C57.7492 39.0103 56.9215 37.6427 56.4185 36.1454C55.2355 32.1912 55.2355 27.9773 56.4185 24.0232C56.9185 22.5308 57.7467 21.1696 58.8423 20.0396C59.8492 19.0367 61.0804 18.2879 62.4342 17.8554C63.854 17.4052 65.3359 17.181 66.8253 17.1912H76.6498V22.7176H67.5678C66.8187 22.7122 66.0735 22.8273 65.3609 23.0582C64.6607 23.2916 64.0343 23.705 63.5445 24.257C62.9761 24.9173 62.5554 25.6914 62.3105 26.5275C61.9794 27.6824 61.8263 28.881 61.8564 30.082C61.8274 31.2908 61.9805 32.4971 62.3105 33.6603C62.5484 34.4993 62.9699 35.2748 63.5445 35.9308C64.0393 36.4722 64.6647 36.8775 65.3609 37.1081C66.0734 37.3395 66.8186 37.4545 67.5678 37.4486H76.6498V43.0114L66.8253 43.0193Z" fill="white"/>
</mask>
<g mask="url(#mask0_487_7892)">
<path d="M146.338 8.87891H55.543V43.0182H146.338V8.87891Z" fill="#FF5A5C"/>
</g>
<path d="M210.169 43.0193C208.68 43.0299 207.197 42.8062 205.777 42.3563C204.42 41.9214 203.187 41.1646 202.185 40.1506C201.092 39.0103 200.264 37.6427 199.761 36.1454C198.578 32.1912 198.578 27.9773 199.761 24.0232C200.261 22.5308 201.09 21.1696 202.185 20.0396C203.192 19.0367 204.423 18.2879 205.777 17.8554C207.197 17.4051 208.68 17.1809 210.169 17.1912H219.993V22.7176H210.911C209.695 22.6932 208.501 23.0449 207.492 23.7246C206.381 24.6121 205.653 25.8927 205.459 27.3018H219.998V32.8702H205.454C205.586 33.6442 205.849 34.39 206.231 35.076C206.545 35.6238 206.965 36.1041 207.465 36.4894C207.936 36.8434 208.473 37.0986 209.044 37.2398C209.654 37.3866 210.279 37.4586 210.906 37.4543H219.988V43.0171L210.169 43.0193ZM169.661 17.189H176.672L184.288 34.8808L191.904 17.189H198.958L187.274 43.0193H181.309L169.661 17.189ZM162.169 17.189H168.488V43.0193H162.169V17.189ZM162.169 8.87891H168.488V15.0899H162.169V8.87891ZM151.09 8.87891H157.409V43.0182H151.09V8.87891Z" fill="#FF5A5C"/>
</svg>
