<svg width="284" height="67" viewBox="0 0 284 67" fill="none" xmlns="http://www.w3.org/2000/svg">
<path fill-rule="evenodd" clip-rule="evenodd" d="M0.300781 37.8275L12.9485 38.0208C18.9566 49.1167 40.0581 52.6074 46.8956 36.9189L55.1619 36.957C52.9037 46.4586 45.9299 55.4018 29.0033 56.7265C43.9282 60.1833 57.9065 49.2663 60.0958 36.9263H66.3633C62.1136 76.5605 7.4548 77.1789 0.302257 37.8333" fill="#828080"/>
<path fill-rule="evenodd" clip-rule="evenodd" d="M41.1508 28.7006V27.4433C36.3546 26.9025 32.9447 26.0981 28.1939 25.6599C23.4753 25.2774 20.2354 27.4433 19.4514 31.0511L12.2358 30.9426C15.9887 16.7855 41.164 14.1523 47.4314 28.9644L66.4814 28.9746C58.4218 -12.9119 -0.469034 -8.03805 0.00281991 34.905L19.2404 34.9886C21.1351 38.7033 22.643 40.6185 28.9647 40.0177L33.4077 39.6177L41.1537 38.1684L41.1435 37.065H28.3346V35.2099L41.1581 35.5336V33.9994L28.3346 33.6814V32.0388H41.1581V30.399L28.3404 30.3726V28.6522L41.1508 28.7006Z" fill="#FF5A5C"/>
<mask id="mask0_1039_1315" style="mask-type:luminance" maskUnits="userSpaceOnUse" x="71" y="11" width="118" height="45">
<path d="M176.217 55.529C174.294 55.5427 172.38 55.2539 170.547 54.6732C168.795 54.1118 167.205 53.135 165.912 51.826C164.501 50.3546 163.432 48.5891 162.783 46.6561C161.256 41.5521 161.256 36.1128 162.783 31.0088C163.428 29.0822 164.497 27.325 165.912 25.8668C167.211 24.5722 168.8 23.6057 170.547 23.0473C172.38 22.4661 174.294 22.1768 176.217 22.1901H188.897V29.3235H177.174C175.604 29.2919 174.063 29.7459 172.761 30.6234C171.326 31.769 170.386 33.422 170.135 35.2408H188.902V42.4285H170.122C170.294 43.4277 170.634 44.3904 171.127 45.2758C171.532 45.9831 172.073 46.6032 172.719 47.1002C173.326 47.5574 174.02 47.8869 174.759 48.0688C175.545 48.2583 176.351 48.3512 177.16 48.3457H188.883V55.5261L176.217 55.529ZM143.245 29.3207H137.771V22.1871H143.245V20.0315C143.204 18.644 143.475 17.265 144.037 15.9959C144.521 14.9339 145.276 14.0181 146.226 13.3406C147.213 12.6561 148.322 12.168 149.494 11.903C150.797 11.6015 152.132 11.454 153.469 11.4634H159.054V18.4299H153.357C152.879 18.419 152.407 18.5332 151.988 18.7611C151.796 18.8713 151.639 19.0336 151.535 19.2294C151.431 19.4252 151.385 19.6464 151.402 19.8674V22.1886H159.056V29.3221H151.408V55.5305H143.245V29.3207ZM111.007 44.9138C110.95 45.411 111.014 45.9147 111.194 46.3817C111.374 46.8487 111.664 47.2652 112.04 47.5955C112.768 48.1061 113.642 48.3682 114.531 48.3428H125.703V41.4306H114.539C113.645 41.4052 112.769 41.6773 112.047 42.2043C111.674 42.5422 111.386 42.9641 111.207 43.4352C111.028 43.9063 110.964 44.4131 111.02 44.9138H111.007ZM102.852 44.9138C102.807 43.1915 103.088 41.4762 103.68 39.8582C104.144 38.6249 104.89 37.5174 105.859 36.6242C106.79 35.8023 107.899 35.2061 109.098 34.8818C110.399 34.5247 111.743 34.3481 113.092 34.3571H125.717C125.716 33.5553 125.501 32.7682 125.093 32.0777C124.686 31.3873 124.1 30.8188 123.398 30.4314C121.847 29.6587 120.131 29.2787 118.398 29.325H105.047V22.1915H119.292C121.184 22.1825 123.07 22.4055 124.908 22.8553C126.583 23.2542 128.16 23.988 129.544 25.0124C130.892 26.041 131.974 27.3776 132.699 28.9103C133.536 30.7769 133.937 32.8095 133.871 34.854V55.5319H113.086C111.735 55.5411 110.39 55.355 109.092 54.9795C107.889 54.6359 106.781 54.0208 105.853 53.1815C104.884 52.2676 104.138 51.1424 103.674 49.8932C103.095 48.2987 102.821 46.6096 102.865 44.9138H102.852ZM86.2581 55.529C84.3356 55.5426 82.4229 55.2538 80.59 54.6732C78.8376 54.1119 77.2469 53.135 75.9536 51.826C74.5426 50.3542 73.4743 48.5888 72.825 46.6561C71.2979 41.5521 71.2979 36.1128 72.825 31.0088C73.4704 29.0824 74.5395 27.3254 75.9536 25.8668C77.2533 24.5721 78.8426 23.6057 80.59 23.0473C82.4228 22.4662 84.3355 22.1769 86.2581 22.1901H98.9396V29.3235H87.2165C86.2495 29.3166 85.2877 29.4651 84.3678 29.7632C83.4641 30.0645 82.6555 30.5981 82.0232 31.3106C81.2895 32.1629 80.7464 33.1622 80.4303 34.2414C80.003 35.7321 79.8053 37.2792 79.8441 38.8295C79.8068 40.3898 80.0044 41.9469 80.4303 43.4484C80.7375 44.5313 81.2816 45.5324 82.0232 46.3792C82.6619 47.078 83.4691 47.6011 84.3678 47.8988C85.2876 48.1975 86.2495 48.3459 87.2165 48.3384H98.9396V55.5188L86.2581 55.529Z" fill="white"/>
</mask>
<g mask="url(#mask0_1039_1315)">
<path d="M188.894 11.4611H71.6953V55.5282H188.894V11.4611Z" fill="#828080"/>
</g>
<path d="M271.287 55.5307C269.364 55.5444 267.451 55.2556 265.618 54.6749C263.865 54.1135 262.275 53.1367 260.981 51.8277C259.57 50.3559 258.502 48.5905 257.853 46.6578C256.326 41.5537 256.326 36.1145 257.853 31.0104C258.498 29.0841 259.567 27.3271 260.981 25.8684C262.281 24.5738 263.87 23.6073 265.618 23.049C267.451 22.4678 269.364 22.1784 271.287 22.1917H283.967V29.3252H272.244C270.675 29.2936 269.134 29.7476 267.832 30.625C266.397 31.7706 265.458 33.4237 265.208 35.2425H283.975V42.4302H265.2C265.371 43.4292 265.711 44.392 266.204 45.2774C266.61 45.9845 267.151 46.6045 267.797 47.1018C268.404 47.5588 269.097 47.8883 269.835 48.0705C270.622 48.2599 271.429 48.3528 272.238 48.3474H283.962V55.5278L271.287 55.5307ZM219 22.1888H228.048L237.88 45.0254L247.711 22.1888H256.815L241.734 55.5307H234.034L219 22.1888ZM209.328 22.1888H217.484V55.5307H209.328V22.1888ZM209.328 11.4622H217.484V19.4793H209.328V11.4622ZM195.027 11.4622H203.184V55.5292H195.027V11.4622Z" fill="#FF5A5C"/>
</svg>
