<svg width="710" height="102" viewBox="0 0 710 102" fill="none" xmlns="http://www.w3.org/2000/svg">
<path d="M24.5197 3.44011L15.0797 21.6401V31.3601H9.47969V21.6401L-0.000307582 3.44011H6.31969L12.3197 16.2001L18.2797 3.44011H24.5197ZM37.5894 31.7201C35.456 31.7201 33.536 31.2534 31.8294 30.3201C30.1227 29.3601 28.776 28.0134 27.7894 26.2801C26.8294 24.5468 26.3494 22.5468 26.3494 20.2801C26.3494 18.0134 26.8427 16.0134 27.8294 14.2801C28.8427 12.5468 30.216 11.2134 31.9494 10.2801C33.6827 9.32011 35.616 8.84011 37.7494 8.84011C39.8827 8.84011 41.816 9.32011 43.5494 10.2801C45.2827 11.2134 46.6427 12.5468 47.6294 14.2801C48.6427 16.0134 49.1494 18.0134 49.1494 20.2801C49.1494 22.5468 48.6294 24.5468 47.5894 26.2801C46.576 28.0134 45.1894 29.3601 43.4294 30.3201C41.696 31.2534 39.7494 31.7201 37.5894 31.7201ZM37.5894 26.8401C38.6027 26.8401 39.5494 26.6001 40.4294 26.1201C41.336 25.6134 42.056 24.8668 42.5894 23.8801C43.1227 22.8934 43.3894 21.6934 43.3894 20.2801C43.3894 18.1734 42.8294 16.5601 41.7094 15.4401C40.616 14.2934 39.2694 13.7201 37.6694 13.7201C36.0694 13.7201 34.7227 14.2934 33.6294 15.4401C32.5627 16.5601 32.0294 18.1734 32.0294 20.2801C32.0294 22.3868 32.5494 24.0134 33.5894 25.1601C34.656 26.2801 35.9894 26.8401 37.5894 26.8401ZM74.1772 9.20011V31.3601H68.5372V28.5601C67.8172 29.5201 66.8705 30.2801 65.6972 30.8401C64.5505 31.3734 63.2972 31.6401 61.9372 31.6401C60.2039 31.6401 58.6705 31.2801 57.3372 30.5601C56.0039 29.8134 54.9505 28.7334 54.1772 27.3201C53.4305 25.8801 53.0572 24.1734 53.0572 22.2001V9.20011H58.6572V21.4001C58.6572 23.1601 59.0972 24.5201 59.9772 25.4801C60.8572 26.4134 62.0572 26.8801 63.5772 26.8801C65.1239 26.8801 66.3372 26.4134 67.2172 25.4801C68.0972 24.5201 68.5372 23.1601 68.5372 21.4001V9.20011H74.1772ZM85.3025 12.6401C86.0225 11.4668 86.9558 10.5468 88.1025 9.88011C89.2758 9.21344 90.6092 8.88011 92.1025 8.88011V14.7601H90.6225C88.8625 14.7601 87.5292 15.1734 86.6225 16.0001C85.7425 16.8268 85.3025 18.2668 85.3025 20.3201V31.3601H79.7025V9.20011H85.3025V12.6401ZM115.566 13.8001H111.686V31.3601H106.006V13.8001H103.486V9.20011H106.006V8.08011C106.006 5.36011 106.779 3.36011 108.326 2.08011C109.872 0.800106 112.206 0.200106 115.326 0.280107V5.00011C113.966 4.97344 113.019 5.20011 112.486 5.68011C111.952 6.16011 111.686 7.02677 111.686 8.28011V9.20011H115.566V13.8001ZM139.795 19.8001C139.795 20.6001 139.741 21.3201 139.635 21.9601H123.435C123.568 23.5601 124.128 24.8134 125.115 25.7201C126.101 26.6268 127.315 27.0801 128.755 27.0801C130.835 27.0801 132.315 26.1868 133.195 24.4001H139.235C138.595 26.5334 137.368 28.2934 135.555 29.6801C133.741 31.0401 131.515 31.7201 128.875 31.7201C126.741 31.7201 124.821 31.2534 123.115 30.3201C121.435 29.3601 120.115 28.0134 119.155 26.2801C118.221 24.5468 117.755 22.5468 117.755 20.2801C117.755 17.9868 118.221 15.9734 119.155 14.2401C120.088 12.5068 121.395 11.1734 123.075 10.2401C124.755 9.30677 126.688 8.84011 128.875 8.84011C130.981 8.84011 132.861 9.29344 134.515 10.2001C136.195 11.1068 137.488 12.4001 138.395 14.0801C139.328 15.7334 139.795 17.6401 139.795 19.8001ZM133.995 18.2001C133.968 16.7601 133.448 15.6134 132.435 14.7601C131.421 13.8801 130.181 13.4401 128.715 13.4401C127.328 13.4401 126.155 13.8668 125.195 14.7201C124.261 15.5468 123.688 16.7068 123.475 18.2001H133.995ZM164.482 19.8001C164.482 20.6001 164.429 21.3201 164.322 21.9601H148.122C148.256 23.5601 148.816 24.8134 149.802 25.7201C150.789 26.6268 152.002 27.0801 153.442 27.0801C155.522 27.0801 157.002 26.1868 157.882 24.4001H163.922C163.282 26.5334 162.056 28.2934 160.242 29.6801C158.429 31.0401 156.202 31.7201 153.562 31.7201C151.429 31.7201 149.509 31.2534 147.802 30.3201C146.122 29.3601 144.802 28.0134 143.842 26.2801C142.909 24.5468 142.442 22.5468 142.442 20.2801C142.442 17.9868 142.909 15.9734 143.842 14.2401C144.776 12.5068 146.082 11.1734 147.762 10.2401C149.442 9.30677 151.376 8.84011 153.562 8.84011C155.669 8.84011 157.549 9.29344 159.202 10.2001C160.882 11.1068 162.176 12.4001 163.082 14.0801C164.016 15.7334 164.482 17.6401 164.482 19.8001ZM158.682 18.2001C158.656 16.7601 158.136 15.6134 157.122 14.7601C156.109 13.8801 154.869 13.4401 153.402 13.4401C152.016 13.4401 150.842 13.8668 149.882 14.7201C148.949 15.5468 148.376 16.7068 148.162 18.2001H158.682ZM167.13 20.2001C167.13 17.9601 167.57 15.9734 168.45 14.2401C169.356 12.5068 170.583 11.1734 172.13 10.2401C173.676 9.30677 175.396 8.84011 177.29 8.84011C178.73 8.84011 180.103 9.16011 181.41 9.80011C182.716 10.4134 183.756 11.2401 184.53 12.2801V1.76011H190.21V31.3601H184.53V28.0801C183.836 29.1734 182.863 30.0534 181.61 30.7201C180.356 31.3868 178.903 31.7201 177.25 31.7201C175.383 31.7201 173.676 31.2401 172.13 30.2801C170.583 29.3201 169.356 27.9734 168.45 26.2401C167.57 24.4801 167.13 22.4668 167.13 20.2001ZM184.57 20.2801C184.57 18.9201 184.303 17.7601 183.77 16.8001C183.236 15.8134 182.516 15.0668 181.61 14.5601C180.703 14.0268 179.73 13.7601 178.69 13.7601C177.65 13.7601 176.69 14.0134 175.81 14.5201C174.93 15.0268 174.21 15.7734 173.65 16.7601C173.116 17.7201 172.85 18.8668 172.85 20.2001C172.85 21.5334 173.116 22.7068 173.65 23.7201C174.21 24.7068 174.93 25.4668 175.81 26.0001C176.716 26.5334 177.676 26.8001 178.69 26.8001C179.73 26.8001 180.703 26.5468 181.61 26.0401C182.516 25.5068 183.236 24.7601 183.77 23.8001C184.303 22.8134 184.57 21.6401 184.57 20.2801ZM201.279 12.4401C201.999 11.3734 202.986 10.5068 204.239 9.84011C205.519 9.17344 206.972 8.84011 208.599 8.84011C210.492 8.84011 212.199 9.30677 213.719 10.2401C215.266 11.1734 216.479 12.5068 217.359 14.2401C218.266 15.9468 218.719 17.9334 218.719 20.2001C218.719 22.4668 218.266 24.4801 217.359 26.2401C216.479 27.9734 215.266 29.3201 213.719 30.2801C212.199 31.2401 210.492 31.7201 208.599 31.7201C206.946 31.7201 205.492 31.4001 204.239 30.7601C203.012 30.0934 202.026 29.2401 201.279 28.2001V31.3601H195.679V1.76011H201.279V12.4401ZM212.999 20.2001C212.999 18.8668 212.719 17.7201 212.159 16.7601C211.626 15.7734 210.906 15.0268 209.999 14.5201C209.119 14.0134 208.159 13.7601 207.119 13.7601C206.106 13.7601 205.146 14.0268 204.239 14.5601C203.359 15.0668 202.639 15.8134 202.079 16.8001C201.546 17.7868 201.279 18.9468 201.279 20.2801C201.279 21.6134 201.546 22.7734 202.079 23.7601C202.639 24.7468 203.359 25.5068 204.239 26.0401C205.146 26.5468 206.106 26.8001 207.119 26.8001C208.159 26.8001 209.119 26.5334 209.999 26.0001C210.906 25.4668 211.626 24.7068 212.159 23.7201C212.719 22.7334 212.999 21.5601 212.999 20.2001ZM221.348 20.2001C221.348 17.9601 221.788 15.9734 222.668 14.2401C223.575 12.5068 224.788 11.1734 226.308 10.2401C227.855 9.30677 229.575 8.84011 231.468 8.84011C233.122 8.84011 234.562 9.17344 235.788 9.84011C237.042 10.5068 238.042 11.3468 238.788 12.3601V9.20011H244.428V31.3601H238.788V28.1201C238.068 29.1601 237.068 30.0268 235.788 30.7201C234.535 31.3868 233.082 31.7201 231.428 31.7201C229.562 31.7201 227.855 31.2401 226.308 30.2801C224.788 29.3201 223.575 27.9734 222.668 26.2401C221.788 24.4801 221.348 22.4668 221.348 20.2001ZM238.788 20.2801C238.788 18.9201 238.522 17.7601 237.988 16.8001C237.455 15.8134 236.735 15.0668 235.828 14.5601C234.922 14.0268 233.948 13.7601 232.908 13.7601C231.868 13.7601 230.908 14.0134 230.028 14.5201C229.148 15.0268 228.428 15.7734 227.868 16.7601C227.335 17.7201 227.068 18.8668 227.068 20.2001C227.068 21.5334 227.335 22.7068 227.868 23.7201C228.428 24.7068 229.148 25.4668 230.028 26.0001C230.935 26.5334 231.895 26.8001 232.908 26.8001C233.948 26.8001 234.922 26.5468 235.828 26.0401C236.735 25.5068 237.455 24.7601 237.988 23.8001C238.522 22.8134 238.788 21.6401 238.788 20.2801ZM248.458 20.2801C248.458 17.9868 248.924 15.9868 249.858 14.2801C250.791 12.5468 252.084 11.2134 253.738 10.2801C255.391 9.32011 257.284 8.84011 259.418 8.84011C262.164 8.84011 264.431 9.53344 266.218 10.9201C268.031 12.2801 269.244 14.2001 269.858 16.6801H263.818C263.498 15.7201 262.951 14.9734 262.178 14.4401C261.431 13.8801 260.498 13.6001 259.378 13.6001C257.778 13.6001 256.511 14.1868 255.578 15.3601C254.644 16.5068 254.178 18.1468 254.178 20.2801C254.178 22.3868 254.644 24.0268 255.578 25.2001C256.511 26.3468 257.778 26.9201 259.378 26.9201C261.644 26.9201 263.124 25.9068 263.818 23.8801H269.858C269.244 26.2801 268.031 28.1868 266.218 29.6001C264.404 31.0134 262.138 31.7201 259.418 31.7201C257.284 31.7201 255.391 31.2534 253.738 30.3201C252.084 29.3601 250.791 28.0268 249.858 26.3201C248.924 24.5868 248.458 22.5734 248.458 20.2801ZM287.08 31.3601L279.56 21.9201V31.3601H273.96V1.76011H279.56V18.6001L287 9.20011H294.28L284.52 20.3201L294.36 31.3601H287.08ZM319.331 8.88011C321.011 8.88011 322.504 9.25344 323.811 10.0001C325.118 10.7201 326.131 11.8001 326.851 13.2401C327.598 14.6534 327.971 16.3601 327.971 18.3601V31.3601H322.371V19.1201C322.371 17.3601 321.931 16.0134 321.051 15.0801C320.171 14.1201 318.971 13.6401 317.451 13.6401C315.904 13.6401 314.678 14.1201 313.771 15.0801C312.891 16.0134 312.451 17.3601 312.451 19.1201V31.3601H306.851V1.76011H312.451V11.9601C313.171 11.0001 314.131 10.2534 315.331 9.72011C316.531 9.16011 317.864 8.88011 319.331 8.88011ZM331.856 20.2001C331.856 17.9601 332.296 15.9734 333.176 14.2401C334.083 12.5068 335.296 11.1734 336.816 10.2401C338.363 9.30677 340.083 8.84011 341.976 8.84011C343.63 8.84011 345.07 9.17344 346.296 9.84011C347.55 10.5068 348.55 11.3468 349.296 12.3601V9.20011H354.936V31.3601H349.296V28.1201C348.576 29.1601 347.576 30.0268 346.296 30.7201C345.043 31.3868 343.59 31.7201 341.936 31.7201C340.07 31.7201 338.363 31.2401 336.816 30.2801C335.296 29.3201 334.083 27.9734 333.176 26.2401C332.296 24.4801 331.856 22.4668 331.856 20.2001ZM349.296 20.2801C349.296 18.9201 349.03 17.7601 348.496 16.8001C347.963 15.8134 347.243 15.0668 346.336 14.5601C345.43 14.0268 344.456 13.7601 343.416 13.7601C342.376 13.7601 341.416 14.0134 340.536 14.5201C339.656 15.0268 338.936 15.7734 338.376 16.7601C337.843 17.7201 337.576 18.8668 337.576 20.2001C337.576 21.5334 337.843 22.7068 338.376 23.7201C338.936 24.7068 339.656 25.4668 340.536 26.0001C341.443 26.5334 342.403 26.8001 343.416 26.8001C344.456 26.8001 345.43 26.5468 346.336 26.0401C347.243 25.5068 347.963 24.7601 348.496 23.8001C349.03 22.8134 349.296 21.6401 349.296 20.2801ZM368.886 31.7201C367.072 31.7201 365.446 31.4001 364.006 30.7601C362.566 30.0934 361.419 29.2001 360.566 28.0801C359.739 26.9601 359.286 25.7201 359.206 24.3601H364.846C364.952 25.2134 365.366 25.9201 366.086 26.4801C366.832 27.0401 367.752 27.3201 368.846 27.3201C369.912 27.3201 370.739 27.1068 371.326 26.6801C371.939 26.2534 372.246 25.7068 372.246 25.0401C372.246 24.3201 371.872 23.7868 371.126 23.4401C370.406 23.0668 369.246 22.6668 367.646 22.2401C365.992 21.8401 364.632 21.4268 363.566 21.0001C362.526 20.5734 361.619 19.9201 360.846 19.0401C360.099 18.1601 359.726 16.9734 359.726 15.4801C359.726 14.2534 360.072 13.1334 360.766 12.1201C361.486 11.1068 362.499 10.3068 363.806 9.72011C365.139 9.13344 366.699 8.84011 368.486 8.84011C371.126 8.84011 373.232 9.50677 374.806 10.8401C376.379 12.1468 377.246 13.9201 377.406 16.1601H372.046C371.966 15.2801 371.592 14.5868 370.926 14.0801C370.286 13.5468 369.419 13.2801 368.326 13.2801C367.312 13.2801 366.526 13.4668 365.966 13.8401C365.432 14.2134 365.166 14.7334 365.166 15.4001C365.166 16.1468 365.539 16.7201 366.286 17.1201C367.032 17.4934 368.192 17.8801 369.766 18.2801C371.366 18.6801 372.686 19.0934 373.726 19.5201C374.766 19.9468 375.659 20.6134 376.406 21.5201C377.179 22.4001 377.579 23.5734 377.606 25.0401C377.606 26.3201 377.246 27.4668 376.526 28.4801C375.832 29.4934 374.819 30.2934 373.486 30.8801C372.179 31.4401 370.646 31.7201 368.886 31.7201ZM397.334 12.4401C398.054 11.3734 399.04 10.5068 400.294 9.84011C401.574 9.17344 403.027 8.84011 404.654 8.84011C406.547 8.84011 408.254 9.30677 409.774 10.2401C411.32 11.1734 412.534 12.5068 413.414 14.2401C414.32 15.9468 414.774 17.9334 414.774 20.2001C414.774 22.4668 414.32 24.4801 413.414 26.2401C412.534 27.9734 411.32 29.3201 409.774 30.2801C408.254 31.2401 406.547 31.7201 404.654 31.7201C403 31.7201 401.547 31.4001 400.294 30.7601C399.067 30.0934 398.08 29.2401 397.334 28.2001V31.3601H391.734V1.76011H397.334V12.4401ZM409.054 20.2001C409.054 18.8668 408.774 17.7201 408.214 16.7601C407.68 15.7734 406.96 15.0268 406.054 14.5201C405.174 14.0134 404.214 13.7601 403.174 13.7601C402.16 13.7601 401.2 14.0268 400.294 14.5601C399.414 15.0668 398.694 15.8134 398.134 16.8001C397.6 17.7868 397.334 18.9468 397.334 20.2801C397.334 21.6134 397.6 22.7734 398.134 23.7601C398.694 24.7468 399.414 25.5068 400.294 26.0401C401.2 26.5468 402.16 26.8001 403.174 26.8001C404.214 26.8001 405.174 26.5334 406.054 26.0001C406.96 25.4668 407.68 24.7068 408.214 23.7201C408.774 22.7334 409.054 21.5601 409.054 20.2001ZM439.443 19.8001C439.443 20.6001 439.39 21.3201 439.283 21.9601H423.083C423.216 23.5601 423.776 24.8134 424.763 25.7201C425.75 26.6268 426.963 27.0801 428.403 27.0801C430.483 27.0801 431.963 26.1868 432.843 24.4001H438.883C438.243 26.5334 437.016 28.2934 435.203 29.6801C433.39 31.0401 431.163 31.7201 428.523 31.7201C426.39 31.7201 424.47 31.2534 422.763 30.3201C421.083 29.3601 419.763 28.0134 418.803 26.2801C417.87 24.5468 417.403 22.5468 417.403 20.2801C417.403 17.9868 417.87 15.9734 418.803 14.2401C419.736 12.5068 421.043 11.1734 422.723 10.2401C424.403 9.30677 426.336 8.84011 428.523 8.84011C430.63 8.84011 432.51 9.29344 434.163 10.2001C435.843 11.1068 437.136 12.4001 438.043 14.0801C438.976 15.7334 439.443 17.6401 439.443 19.8001ZM433.643 18.2001C433.616 16.7601 433.096 15.6134 432.083 14.7601C431.07 13.8801 429.83 13.4401 428.363 13.4401C426.976 13.4401 425.803 13.8668 424.843 14.7201C423.91 15.5468 423.336 16.7068 423.123 18.2001H433.643ZM464.131 19.8001C464.131 20.6001 464.077 21.3201 463.971 21.9601H447.771C447.904 23.5601 448.464 24.8134 449.451 25.7201C450.437 26.6268 451.651 27.0801 453.091 27.0801C455.171 27.0801 456.651 26.1868 457.531 24.4001H463.571C462.931 26.5334 461.704 28.2934 459.891 29.6801C458.077 31.0401 455.851 31.7201 453.211 31.7201C451.077 31.7201 449.157 31.2534 447.451 30.3201C445.771 29.3601 444.451 28.0134 443.491 26.2801C442.557 24.5468 442.091 22.5468 442.091 20.2801C442.091 17.9868 442.557 15.9734 443.491 14.2401C444.424 12.5068 445.731 11.1734 447.411 10.2401C449.091 9.30677 451.024 8.84011 453.211 8.84011C455.317 8.84011 457.197 9.29344 458.851 10.2001C460.531 11.1068 461.824 12.4001 462.731 14.0801C463.664 15.7334 464.131 17.6401 464.131 19.8001ZM458.331 18.2001C458.304 16.7601 457.784 15.6134 456.771 14.7601C455.757 13.8801 454.517 13.4401 453.051 13.4401C451.664 13.4401 450.491 13.8668 449.531 14.7201C448.597 15.5468 448.024 16.7068 447.811 18.2001H458.331ZM480.498 8.88011C483.138 8.88011 485.271 9.72011 486.898 11.4001C488.525 13.0534 489.338 15.3734 489.338 18.3601V31.3601H483.738V19.1201C483.738 17.3601 483.298 16.0134 482.418 15.0801C481.538 14.1201 480.338 13.6401 478.818 13.6401C477.271 13.6401 476.045 14.1201 475.138 15.0801C474.258 16.0134 473.818 17.3601 473.818 19.1201V31.3601H468.218V9.20011H473.818V11.9601C474.565 11.0001 475.511 10.2534 476.658 9.72011C477.831 9.16011 479.111 8.88011 480.498 8.88011ZM512.675 31.7201C510.861 31.7201 509.235 31.4001 507.795 30.7601C506.355 30.0934 505.208 29.2001 504.355 28.0801C503.528 26.9601 503.075 25.7201 502.995 24.3601H508.635C508.741 25.2134 509.155 25.9201 509.875 26.4801C510.621 27.0401 511.541 27.3201 512.635 27.3201C513.701 27.3201 514.528 27.1068 515.115 26.6801C515.728 26.2534 516.035 25.7068 516.035 25.0401C516.035 24.3201 515.661 23.7868 514.915 23.4401C514.195 23.0668 513.035 22.6668 511.435 22.2401C509.781 21.8401 508.421 21.4268 507.355 21.0001C506.315 20.5734 505.408 19.9201 504.635 19.0401C503.888 18.1601 503.515 16.9734 503.515 15.4801C503.515 14.2534 503.861 13.1334 504.555 12.1201C505.275 11.1068 506.288 10.3068 507.595 9.72011C508.928 9.13344 510.488 8.84011 512.275 8.84011C514.915 8.84011 517.021 9.50677 518.595 10.8401C520.168 12.1468 521.035 13.9201 521.195 16.1601H515.835C515.755 15.2801 515.381 14.5868 514.715 14.0801C514.075 13.5468 513.208 13.2801 512.115 13.2801C511.101 13.2801 510.315 13.4668 509.755 13.8401C509.221 14.2134 508.955 14.7334 508.955 15.4001C508.955 16.1468 509.328 16.7201 510.075 17.1201C510.821 17.4934 511.981 17.8801 513.555 18.2801C515.155 18.6801 516.475 19.0934 517.515 19.5201C518.555 19.9468 519.448 20.6134 520.195 21.5201C520.968 22.4001 521.368 23.5734 521.395 25.0401C521.395 26.3201 521.035 27.4668 520.315 28.4801C519.621 29.4934 518.608 30.2934 517.275 30.8801C515.968 31.4401 514.435 31.7201 512.675 31.7201ZM546.912 9.20011V31.3601H541.272V28.5601C540.552 29.5201 539.605 30.2801 538.432 30.8401C537.285 31.3734 536.032 31.6401 534.672 31.6401C532.938 31.6401 531.405 31.2801 530.072 30.5601C528.738 29.8134 527.685 28.7334 526.912 27.3201C526.165 25.8801 525.792 24.1734 525.792 22.2001V9.20011H531.392V21.4001C531.392 23.1601 531.832 24.5201 532.712 25.4801C533.592 26.4134 534.792 26.8801 536.312 26.8801C537.858 26.8801 539.072 26.4134 539.952 25.4801C540.832 24.5201 541.272 23.1601 541.272 21.4001V9.20011H546.912ZM558.037 12.4401C558.757 11.3734 559.744 10.5068 560.997 9.84011C562.277 9.17344 563.73 8.84011 565.357 8.84011C567.25 8.84011 568.957 9.30677 570.477 10.2401C572.024 11.1734 573.237 12.5068 574.117 14.2401C575.024 15.9468 575.477 17.9334 575.477 20.2001C575.477 22.4668 575.024 24.4801 574.117 26.2401C573.237 27.9734 572.024 29.3201 570.477 30.2801C568.957 31.2401 567.25 31.7201 565.357 31.7201C563.704 31.7201 562.25 31.4001 560.997 30.7601C559.77 30.0934 558.784 29.2401 558.037 28.2001V31.3601H552.437V1.76011H558.037V12.4401ZM569.757 20.2001C569.757 18.8668 569.477 17.7201 568.917 16.7601C568.384 15.7734 567.664 15.0268 566.757 14.5201C565.877 14.0134 564.917 13.7601 563.877 13.7601C562.864 13.7601 561.904 14.0268 560.997 14.5601C560.117 15.0668 559.397 15.8134 558.837 16.8001C558.304 17.7868 558.037 18.9468 558.037 20.2801C558.037 21.6134 558.304 22.7734 558.837 23.7601C559.397 24.7468 560.117 25.5068 560.997 26.0401C561.904 26.5468 562.864 26.8001 563.877 26.8001C564.917 26.8001 565.877 26.5334 566.757 26.0001C567.664 25.4668 568.384 24.7068 568.917 23.7201C569.477 22.7334 569.757 21.5601 569.757 20.2001ZM607.066 8.88011C609.786 8.88011 611.973 9.72011 613.626 11.4001C615.306 13.0534 616.146 15.3734 616.146 18.3601V31.3601H610.546V19.1201C610.546 17.3868 610.106 16.0668 609.226 15.1601C608.346 14.2268 607.146 13.7601 605.626 13.7601C604.106 13.7601 602.893 14.2268 601.986 15.1601C601.106 16.0668 600.666 17.3868 600.666 19.1201V31.3601H595.066V19.1201C595.066 17.3868 594.626 16.0668 593.746 15.1601C592.866 14.2268 591.666 13.7601 590.146 13.7601C588.6 13.7601 587.373 14.2268 586.466 15.1601C585.586 16.0668 585.146 17.3868 585.146 19.1201V31.3601H579.546V9.20011H585.146V11.8801C585.866 10.9468 586.786 10.2134 587.906 9.68011C589.053 9.14677 590.306 8.88011 591.666 8.88011C593.4 8.88011 594.946 9.25344 596.306 10.0001C597.666 10.7201 598.72 11.7601 599.466 13.1201C600.186 11.8401 601.226 10.8134 602.586 10.0401C603.973 9.26677 605.466 8.88011 607.066 8.88011ZM624.3 6.56011C623.314 6.56011 622.487 6.25344 621.82 5.64011C621.18 5.00011 620.86 4.21344 620.86 3.28011C620.86 2.34677 621.18 1.57344 621.82 0.960105C622.487 0.320106 623.314 0.000105858 624.3 0.000105858C625.287 0.000105858 626.1 0.320106 626.74 0.960105C627.407 1.57344 627.74 2.34677 627.74 3.28011C627.74 4.21344 627.407 5.00011 626.74 5.64011C626.1 6.25344 625.287 6.56011 624.3 6.56011ZM627.06 9.20011V31.3601H621.46V9.20011H627.06ZM639.113 13.8001V24.5201C639.113 25.2668 639.286 25.8134 639.633 26.1601C640.006 26.4801 640.62 26.6401 641.473 26.6401H644.073V31.3601H640.553C635.833 31.3601 633.473 29.0668 633.473 24.4801V13.8001H630.833V9.20011H633.473V3.72011H639.113V9.20011H644.073V13.8001H639.113ZM654.621 13.8001V24.5201C654.621 25.2668 654.794 25.8134 655.141 26.1601C655.514 26.4801 656.128 26.6401 656.981 26.6401H659.581V31.3601H656.061C651.341 31.3601 648.981 29.0668 648.981 24.4801V13.8001H646.341V9.20011H648.981V3.72011H654.621V9.20011H659.581V13.8001H654.621ZM684.209 19.8001C684.209 20.6001 684.155 21.3201 684.049 21.9601H667.849C667.982 23.5601 668.542 24.8134 669.529 25.7201C670.515 26.6268 671.729 27.0801 673.169 27.0801C675.249 27.0801 676.729 26.1868 677.609 24.4001H683.649C683.009 26.5334 681.782 28.2934 679.969 29.6801C678.155 31.0401 675.929 31.7201 673.289 31.7201C671.155 31.7201 669.235 31.2534 667.529 30.3201C665.849 29.3601 664.529 28.0134 663.569 26.2801C662.635 24.5468 662.169 22.5468 662.169 20.2801C662.169 17.9868 662.635 15.9734 663.569 14.2401C664.502 12.5068 665.809 11.1734 667.489 10.2401C669.169 9.30677 671.102 8.84011 673.289 8.84011C675.395 8.84011 677.275 9.29344 678.929 10.2001C680.609 11.1068 681.902 12.4001 682.809 14.0801C683.742 15.7334 684.209 17.6401 684.209 19.8001ZM678.409 18.2001C678.382 16.7601 677.862 15.6134 676.849 14.7601C675.835 13.8801 674.595 13.4401 673.129 13.4401C671.742 13.4401 670.569 13.8668 669.609 14.7201C668.675 15.5468 668.102 16.7068 667.889 18.2001H678.409ZM686.856 20.2001C686.856 17.9601 687.296 15.9734 688.176 14.2401C689.083 12.5068 690.31 11.1734 691.856 10.2401C693.403 9.30677 695.123 8.84011 697.016 8.84011C698.456 8.84011 699.83 9.16011 701.136 9.80011C702.443 10.4134 703.483 11.2401 704.256 12.2801V1.76011H709.936V31.3601H704.256V28.0801C703.563 29.1734 702.59 30.0534 701.336 30.7201C700.083 31.3868 698.63 31.7201 696.976 31.7201C695.11 31.7201 693.403 31.2401 691.856 30.2801C690.31 29.3201 689.083 27.9734 688.176 26.2401C687.296 24.4801 686.856 22.4668 686.856 20.2001ZM704.296 20.2801C704.296 18.9201 704.03 17.7601 703.496 16.8001C702.963 15.8134 702.243 15.0668 701.336 14.5601C700.43 14.0268 699.456 13.7601 698.416 13.7601C697.376 13.7601 696.416 14.0134 695.536 14.5201C694.656 15.0268 693.936 15.7734 693.376 16.7601C692.843 17.7201 692.576 18.8668 692.576 20.2001C692.576 21.5334 692.843 22.7068 693.376 23.7201C693.936 24.7068 694.656 25.4668 695.536 26.0001C696.443 26.5334 697.403 26.8001 698.416 26.8001C699.456 26.8001 700.43 26.5468 701.336 26.0401C702.243 25.5068 702.963 24.7601 703.496 23.8001C704.03 22.8134 704.296 21.6401 704.296 20.2801ZM236.464 91.7201C234.65 91.7201 233.024 91.4001 231.584 90.7601C230.144 90.0934 228.997 89.2001 228.144 88.0801C227.317 86.9601 226.864 85.7201 226.784 84.3601H232.424C232.53 85.2134 232.944 85.9201 233.664 86.4801C234.41 87.0401 235.33 87.3201 236.424 87.3201C237.49 87.3201 238.317 87.1068 238.904 86.6801C239.517 86.2534 239.824 85.7068 239.824 85.0401C239.824 84.3201 239.45 83.7868 238.704 83.4401C237.984 83.0668 236.824 82.6668 235.224 82.2401C233.57 81.8401 232.21 81.4268 231.144 81.0001C230.104 80.5734 229.197 79.9201 228.424 79.0401C227.677 78.1601 227.304 76.9734 227.304 75.4801C227.304 74.2534 227.65 73.1334 228.344 72.1201C229.064 71.1068 230.077 70.3068 231.384 69.7201C232.717 69.1334 234.277 68.8401 236.064 68.8401C238.704 68.8401 240.81 69.5068 242.384 70.8401C243.957 72.1468 244.824 73.9201 244.984 76.1601H239.624C239.544 75.2801 239.17 74.5868 238.504 74.0801C237.864 73.5468 236.997 73.2801 235.904 73.2801C234.89 73.2801 234.104 73.4668 233.544 73.8401C233.01 74.2134 232.744 74.7334 232.744 75.4001C232.744 76.1468 233.117 76.7201 233.864 77.1201C234.61 77.4934 235.77 77.8801 237.344 78.2801C238.944 78.6801 240.264 79.0934 241.304 79.5201C242.344 79.9468 243.237 80.6134 243.984 81.5201C244.757 82.4001 245.157 83.5734 245.184 85.0401C245.184 86.3201 244.824 87.4668 244.104 88.4801C243.41 89.4934 242.397 90.2934 241.064 90.8801C239.757 91.4401 238.224 91.7201 236.464 91.7201ZM270.701 69.2001V91.3601H265.061V88.5601C264.341 89.5201 263.394 90.2801 262.221 90.8401C261.074 91.3734 259.821 91.6401 258.461 91.6401C256.727 91.6401 255.194 91.2801 253.861 90.5601C252.527 89.8134 251.474 88.7334 250.701 87.3201C249.954 85.8801 249.581 84.1734 249.581 82.2001V69.2001H255.181V81.4001C255.181 83.1601 255.621 84.5201 256.501 85.4801C257.381 86.4134 258.581 86.8801 260.101 86.8801C261.647 86.8801 262.861 86.4134 263.741 85.4801C264.621 84.5201 265.061 83.1601 265.061 81.4001V69.2001H270.701ZM274.786 80.2801C274.786 77.9868 275.253 75.9868 276.186 74.2801C277.119 72.5468 278.413 71.2134 280.066 70.2801C281.719 69.3201 283.613 68.8401 285.746 68.8401C288.493 68.8401 290.759 69.5334 292.546 70.9201C294.359 72.2801 295.573 74.2001 296.186 76.6801H290.146C289.826 75.7201 289.279 74.9734 288.506 74.4401C287.759 73.8801 286.826 73.6001 285.706 73.6001C284.106 73.6001 282.839 74.1868 281.906 75.3601C280.973 76.5068 280.506 78.1468 280.506 80.2801C280.506 82.3868 280.973 84.0268 281.906 85.2001C282.839 86.3468 284.106 86.9201 285.706 86.9201C287.973 86.9201 289.453 85.9068 290.146 83.8801H296.186C295.573 86.2801 294.359 88.1868 292.546 89.6001C290.733 91.0134 288.466 91.7201 285.746 91.7201C283.613 91.7201 281.719 91.2534 280.066 90.3201C278.413 89.3601 277.119 88.0268 276.186 86.3201C275.253 84.5868 274.786 82.5734 274.786 80.2801ZM298.848 80.2801C298.848 77.9868 299.315 75.9868 300.248 74.2801C301.182 72.5468 302.475 71.2134 304.128 70.2801C305.782 69.3201 307.675 68.8401 309.808 68.8401C312.555 68.8401 314.822 69.5334 316.608 70.9201C318.422 72.2801 319.635 74.2001 320.248 76.6801H314.208C313.888 75.7201 313.342 74.9734 312.568 74.4401C311.822 73.8801 310.888 73.6001 309.768 73.6001C308.168 73.6001 306.902 74.1868 305.968 75.3601C305.035 76.5068 304.568 78.1468 304.568 80.2801C304.568 82.3868 305.035 84.0268 305.968 85.2001C306.902 86.3468 308.168 86.9201 309.768 86.9201C312.035 86.9201 313.515 85.9068 314.208 83.8801H320.248C319.635 86.2801 318.422 88.1868 316.608 89.6001C314.795 91.0134 312.528 91.7201 309.808 91.7201C307.675 91.7201 305.782 91.2534 304.128 90.3201C302.475 89.3601 301.182 88.0268 300.248 86.3201C299.315 84.5868 298.848 82.5734 298.848 80.2801ZM344.951 79.8001C344.951 80.6001 344.898 81.3201 344.791 81.9601H328.591C328.724 83.5601 329.284 84.8134 330.271 85.7201C331.258 86.6268 332.471 87.0801 333.911 87.0801C335.991 87.0801 337.471 86.1868 338.351 84.4001H344.391C343.751 86.5334 342.524 88.2934 340.711 89.6801C338.898 91.0401 336.671 91.7201 334.031 91.7201C331.898 91.7201 329.978 91.2534 328.271 90.3201C326.591 89.3601 325.271 88.0134 324.311 86.2801C323.378 84.5468 322.911 82.5468 322.911 80.2801C322.911 77.9868 323.378 75.9734 324.311 74.2401C325.244 72.5068 326.551 71.1734 328.231 70.2401C329.911 69.3068 331.844 68.8401 334.031 68.8401C336.138 68.8401 338.018 69.2934 339.671 70.2001C341.351 71.1068 342.644 72.4001 343.551 74.0801C344.484 75.7334 344.951 77.6401 344.951 79.8001ZM339.151 78.2001C339.124 76.7601 338.604 75.6134 337.591 74.7601C336.578 73.8801 335.338 73.4401 333.871 73.4401C332.484 73.4401 331.311 73.8668 330.351 74.7201C329.418 75.5468 328.844 76.7068 328.631 78.2001H339.151ZM357.518 91.7201C355.705 91.7201 354.078 91.4001 352.638 90.7601C351.198 90.0934 350.052 89.2001 349.198 88.0801C348.372 86.9601 347.918 85.7201 347.838 84.3601H353.478C353.585 85.2134 353.998 85.9201 354.718 86.4801C355.465 87.0401 356.385 87.3201 357.478 87.3201C358.545 87.3201 359.372 87.1068 359.958 86.6801C360.572 86.2534 360.878 85.7068 360.878 85.0401C360.878 84.3201 360.505 83.7868 359.758 83.4401C359.038 83.0668 357.878 82.6668 356.278 82.2401C354.625 81.8401 353.265 81.4268 352.198 81.0001C351.158 80.5734 350.252 79.9201 349.478 79.0401C348.732 78.1601 348.358 76.9734 348.358 75.4801C348.358 74.2534 348.705 73.1334 349.398 72.1201C350.118 71.1068 351.132 70.3068 352.438 69.7201C353.772 69.1334 355.332 68.8401 357.118 68.8401C359.758 68.8401 361.865 69.5068 363.438 70.8401C365.012 72.1468 365.878 73.9201 366.038 76.1601H360.678C360.598 75.2801 360.225 74.5868 359.558 74.0801C358.918 73.5468 358.052 73.2801 356.958 73.2801C355.945 73.2801 355.158 73.4668 354.598 73.8401C354.065 74.2134 353.798 74.7334 353.798 75.4001C353.798 76.1468 354.172 76.7201 354.918 77.1201C355.665 77.4934 356.825 77.8801 358.398 78.2801C359.998 78.6801 361.318 79.0934 362.358 79.5201C363.398 79.9468 364.292 80.6134 365.038 81.5201C365.812 82.4001 366.212 83.5734 366.238 85.0401C366.238 86.3201 365.878 87.4668 365.158 88.4801C364.465 89.4934 363.452 90.2934 362.118 90.8801C360.812 91.4401 359.278 91.7201 357.518 91.7201ZM379.315 91.7201C377.502 91.7201 375.875 91.4001 374.435 90.7601C372.995 90.0934 371.849 89.2001 370.995 88.0801C370.169 86.9601 369.715 85.7201 369.635 84.3601H375.275C375.382 85.2134 375.795 85.9201 376.515 86.4801C377.262 87.0401 378.182 87.3201 379.275 87.3201C380.342 87.3201 381.169 87.1068 381.755 86.6801C382.369 86.2534 382.675 85.7068 382.675 85.0401C382.675 84.3201 382.302 83.7868 381.555 83.4401C380.835 83.0668 379.675 82.6668 378.075 82.2401C376.422 81.8401 375.062 81.4268 373.995 81.0001C372.955 80.5734 372.049 79.9201 371.275 79.0401C370.529 78.1601 370.155 76.9734 370.155 75.4801C370.155 74.2534 370.502 73.1334 371.195 72.1201C371.915 71.1068 372.929 70.3068 374.235 69.7201C375.569 69.1334 377.129 68.8401 378.915 68.8401C381.555 68.8401 383.662 69.5068 385.235 70.8401C386.809 72.1468 387.675 73.9201 387.835 76.1601H382.475C382.395 75.2801 382.022 74.5868 381.355 74.0801C380.715 73.5468 379.849 73.2801 378.755 73.2801C377.742 73.2801 376.955 73.4668 376.395 73.8401C375.862 74.2134 375.595 74.7334 375.595 75.4001C375.595 76.1468 375.969 76.7201 376.715 77.1201C377.462 77.4934 378.622 77.8801 380.195 78.2801C381.795 78.6801 383.115 79.0934 384.155 79.5201C385.195 79.9468 386.089 80.6134 386.835 81.5201C387.609 82.4001 388.009 83.5734 388.035 85.0401C388.035 86.3201 387.675 87.4668 386.955 88.4801C386.262 89.4934 385.249 90.2934 383.915 90.8801C382.609 91.4401 381.075 91.7201 379.315 91.7201ZM402.792 73.8001H398.912V91.3601H393.232V73.8001H390.712V69.2001H393.232V68.0801C393.232 65.3601 394.006 63.3601 395.552 62.0801C397.099 60.8001 399.432 60.2001 402.552 60.2801V65.0001C401.192 64.9734 400.246 65.2001 399.712 65.6801C399.179 66.1601 398.912 67.0268 398.912 68.2801V69.2001H402.792V73.8001ZM427.341 69.2001V91.3601H421.701V88.5601C420.981 89.5201 420.035 90.2801 418.861 90.8401C417.715 91.3734 416.461 91.6401 415.101 91.6401C413.368 91.6401 411.835 91.2801 410.501 90.5601C409.168 89.8134 408.115 88.7334 407.341 87.3201C406.595 85.8801 406.221 84.1734 406.221 82.2001V69.2001H411.821V81.4001C411.821 83.1601 412.261 84.5201 413.141 85.4801C414.021 86.4134 415.221 86.8801 416.741 86.8801C418.288 86.8801 419.501 86.4134 420.381 85.4801C421.261 84.5201 421.701 83.1601 421.701 81.4001V69.2001H427.341ZM438.467 61.7601V91.3601H432.867V61.7601H438.467ZM449.599 61.7601V91.3601H443.999V61.7601H449.599ZM476.332 69.2001L462.612 101.84H456.652L461.452 90.8001L452.572 69.2001H458.852L464.572 84.6801L470.372 69.2001H476.332ZM481.831 91.6401C480.818 91.6401 479.978 91.3334 479.311 90.7201C478.671 90.0801 478.351 89.2934 478.351 88.3601C478.351 87.4268 478.671 86.6534 479.311 86.0401C479.978 85.4001 480.818 85.0801 481.831 85.0801C482.818 85.0801 483.631 85.4001 484.271 86.0401C484.911 86.6534 485.231 87.4268 485.231 88.3601C485.231 89.2934 484.911 90.0801 484.271 90.7201C483.631 91.3334 482.818 91.6401 481.831 91.6401Z" fill="url(#paint0_linear_595_6096)"/>
<defs>
<linearGradient id="paint0_linear_595_6096" x1="-49.5156" y1="47.3601" x2="761.721" y2="47.3601" gradientUnits="userSpaceOnUse">
<stop stop-color="#860606"/>
<stop offset="1" stop-color="#EA4D4E"/>
</linearGradient>
</defs>
</svg>
