<svg width="982" height="60" viewBox="0 0 982 60" fill="none" xmlns="http://www.w3.org/2000/svg">
<rect width="982" height="60" fill="black"/>
<path d="M68.3831 36V23.4H73.2971C74.4011 23.4 75.3431 23.574 76.1231 23.922C76.9031 24.27 77.5031 24.774 77.9231 25.434C78.3431 26.094 78.5531 26.88 78.5531 27.792C78.5531 28.704 78.3431 29.49 77.9231 30.15C77.5031 30.798 76.9031 31.302 76.1231 31.662C75.3431 32.01 74.4011 32.184 73.2971 32.184H69.3731L70.1831 31.338V36H68.3831ZM70.1831 31.518L69.3731 30.618H73.2431C74.3951 30.618 75.2651 30.372 75.8531 29.88C76.4531 29.388 76.7531 28.692 76.7531 27.792C76.7531 26.892 76.4531 26.196 75.8531 25.704C75.2651 25.212 74.3951 24.966 73.2431 24.966H69.3731L70.1831 24.066V31.518ZM83.8403 36.108C82.8803 36.108 82.0283 35.898 81.2843 35.478C80.5403 35.058 79.9523 34.482 79.5203 33.75C79.0883 33.006 78.8723 32.166 78.8723 31.23C78.8723 30.282 79.0883 29.442 79.5203 28.71C79.9523 27.978 80.5403 27.408 81.2843 27C82.0283 26.58 82.8803 26.37 83.8403 26.37C84.7883 26.37 85.6343 26.58 86.3783 27C87.1343 27.408 87.7223 27.978 88.1423 28.71C88.5743 29.43 88.7903 30.27 88.7903 31.23C88.7903 32.178 88.5743 33.018 88.1423 33.75C87.7223 34.482 87.1343 35.058 86.3783 35.478C85.6343 35.898 84.7883 36.108 83.8403 36.108ZM83.8403 34.596C84.4523 34.596 84.9983 34.458 85.4783 34.182C85.9703 33.906 86.3543 33.516 86.6303 33.012C86.9063 32.496 87.0443 31.902 87.0443 31.23C87.0443 30.546 86.9063 29.958 86.6303 29.466C86.3543 28.962 85.9703 28.572 85.4783 28.296C84.9983 28.02 84.4523 27.882 83.8403 27.882C83.2283 27.882 82.6823 28.02 82.2023 28.296C81.7223 28.572 81.3383 28.962 81.0503 29.466C80.7623 29.958 80.6183 30.546 80.6183 31.23C80.6183 31.902 80.7623 32.496 81.0503 33.012C81.3383 33.516 81.7223 33.906 82.2023 34.182C82.6823 34.458 83.2283 34.596 83.8403 34.596ZM91.7764 36L88.2304 26.46H89.8684L93.0184 35.1H92.2444L95.5204 26.46H96.9784L100.182 35.1H99.4264L102.648 26.46H104.196L100.632 36H98.9764L95.9704 28.116H96.4744L93.4324 36H91.7764ZM108.778 36.108C107.758 36.108 106.858 35.898 106.078 35.478C105.31 35.058 104.71 34.482 104.278 33.75C103.858 33.018 103.648 32.178 103.648 31.23C103.648 30.282 103.852 29.442 104.26 28.71C104.68 27.978 105.25 27.408 105.97 27C106.702 26.58 107.524 26.37 108.436 26.37C109.36 26.37 110.176 26.574 110.884 26.982C111.592 27.39 112.144 27.966 112.54 28.71C112.948 29.442 113.152 30.3 113.152 31.284C113.152 31.356 113.146 31.44 113.134 31.536C113.134 31.632 113.128 31.722 113.116 31.806H104.998V30.564H112.216L111.514 30.996C111.526 30.384 111.4 29.838 111.136 29.358C110.872 28.878 110.506 28.506 110.038 28.242C109.582 27.966 109.048 27.828 108.436 27.828C107.836 27.828 107.302 27.966 106.834 28.242C106.366 28.506 106 28.884 105.736 29.376C105.472 29.856 105.34 30.408 105.34 31.032V31.32C105.34 31.956 105.484 32.526 105.772 33.03C106.072 33.522 106.486 33.906 107.014 34.182C107.542 34.458 108.148 34.596 108.832 34.596C109.396 34.596 109.906 34.5 110.362 34.308C110.83 34.116 111.238 33.828 111.586 33.444L112.54 34.56C112.108 35.064 111.568 35.448 110.92 35.712C110.284 35.976 109.57 36.108 108.778 36.108ZM114.395 36V26.46H116.051V29.052L115.889 28.404C116.153 27.744 116.597 27.24 117.221 26.892C117.845 26.544 118.613 26.37 119.525 26.37V28.044C119.453 28.032 119.381 28.026 119.309 28.026C119.249 28.026 119.189 28.026 119.129 28.026C118.205 28.026 117.473 28.302 116.933 28.854C116.393 29.406 116.123 30.204 116.123 31.248V36H114.395ZM124.659 36.108C123.639 36.108 122.739 35.898 121.959 35.478C121.191 35.058 120.591 34.482 120.159 33.75C119.739 33.018 119.529 32.178 119.529 31.23C119.529 30.282 119.733 29.442 120.141 28.71C120.561 27.978 121.131 27.408 121.851 27C122.583 26.58 123.405 26.37 124.317 26.37C125.241 26.37 126.057 26.574 126.765 26.982C127.473 27.39 128.025 27.966 128.421 28.71C128.829 29.442 129.033 30.3 129.033 31.284C129.033 31.356 129.027 31.44 129.015 31.536C129.015 31.632 129.009 31.722 128.997 31.806H120.879V30.564H128.097L127.395 30.996C127.407 30.384 127.281 29.838 127.017 29.358C126.753 28.878 126.387 28.506 125.919 28.242C125.463 27.966 124.929 27.828 124.317 27.828C123.717 27.828 123.183 27.966 122.715 28.242C122.247 28.506 121.881 28.884 121.617 29.376C121.353 29.856 121.221 30.408 121.221 31.032V31.32C121.221 31.956 121.365 32.526 121.653 33.03C121.953 33.522 122.367 33.906 122.895 34.182C123.423 34.458 124.029 34.596 124.713 34.596C125.277 34.596 125.787 34.5 126.243 34.308C126.711 34.116 127.119 33.828 127.467 33.444L128.421 34.56C127.989 35.064 127.449 35.448 126.801 35.712C126.165 35.976 125.451 36.108 124.659 36.108ZM134.219 36.108C133.295 36.108 132.467 35.904 131.735 35.496C131.015 35.088 130.445 34.518 130.025 33.786C129.605 33.054 129.395 32.202 129.395 31.23C129.395 30.258 129.605 29.412 130.025 28.692C130.445 27.96 131.015 27.39 131.735 26.982C132.467 26.574 133.295 26.37 134.219 26.37C135.023 26.37 135.749 26.55 136.397 26.91C137.045 27.27 137.561 27.81 137.945 28.53C138.341 29.25 138.539 30.15 138.539 31.23C138.539 32.31 138.347 33.21 137.963 33.93C137.591 34.65 137.081 35.196 136.433 35.568C135.785 35.928 135.047 36.108 134.219 36.108ZM134.363 34.596C134.963 34.596 135.503 34.458 135.983 34.182C136.475 33.906 136.859 33.516 137.135 33.012C137.423 32.496 137.567 31.902 137.567 31.23C137.567 30.546 137.423 29.958 137.135 29.466C136.859 28.962 136.475 28.572 135.983 28.296C135.503 28.02 134.963 27.882 134.363 27.882C133.751 27.882 133.205 28.02 132.725 28.296C132.245 28.572 131.861 28.962 131.573 29.466C131.285 29.958 131.141 30.546 131.141 31.23C131.141 31.902 131.285 32.496 131.573 33.012C131.861 33.516 132.245 33.906 132.725 34.182C133.205 34.458 133.751 34.596 134.363 34.596ZM137.621 36V33.426L137.729 31.212L137.549 28.998V22.644H139.277V36H137.621ZM150.126 36.108C149.31 36.108 148.572 35.928 147.912 35.568C147.264 35.196 146.748 34.65 146.364 33.93C145.992 33.21 145.806 32.31 145.806 31.23C145.806 30.15 145.998 29.25 146.382 28.53C146.778 27.81 147.3 27.27 147.948 26.91C148.608 26.55 149.334 26.37 150.126 26.37C151.062 26.37 151.89 26.574 152.61 26.982C153.33 27.39 153.9 27.96 154.32 28.692C154.74 29.412 154.95 30.258 154.95 31.23C154.95 32.202 154.74 33.054 154.32 33.786C153.9 34.518 153.33 35.088 152.61 35.496C151.89 35.904 151.062 36.108 150.126 36.108ZM145.068 36V22.644H146.796V28.998L146.616 31.212L146.724 33.426V36H145.068ZM149.982 34.596C150.594 34.596 151.14 34.458 151.62 34.182C152.112 33.906 152.496 33.516 152.772 33.012C153.06 32.496 153.204 31.902 153.204 31.23C153.204 30.546 153.06 29.958 152.772 29.466C152.496 28.962 152.112 28.572 151.62 28.296C151.14 28.02 150.594 27.882 149.982 27.882C149.382 27.882 148.836 28.02 148.344 28.296C147.864 28.572 147.48 28.962 147.192 29.466C146.916 29.958 146.778 30.546 146.778 31.23C146.778 31.902 146.916 32.496 147.192 33.012C147.48 33.516 147.864 33.906 148.344 34.182C148.836 34.458 149.382 34.596 149.982 34.596ZM156.332 39.6C155.876 39.6 155.432 39.522 155 39.366C154.568 39.222 154.196 39.006 153.884 38.718L154.622 37.422C154.862 37.65 155.126 37.824 155.414 37.944C155.702 38.064 156.008 38.124 156.332 38.124C156.752 38.124 157.1 38.016 157.376 37.8C157.652 37.584 157.91 37.2 158.15 36.648L158.744 35.334L158.924 35.118L162.668 26.46H164.36L159.734 36.954C159.458 37.626 159.146 38.154 158.798 38.538C158.462 38.922 158.09 39.192 157.682 39.348C157.274 39.516 156.824 39.6 156.332 39.6ZM158.6 36.306L154.244 26.46H156.044L159.752 34.956L158.6 36.306ZM168.746 36V23.4H174.056C175.4 23.4 176.582 23.664 177.602 24.192C178.634 24.72 179.432 25.458 179.996 26.406C180.572 27.354 180.86 28.452 180.86 29.7C180.86 30.948 180.572 32.046 179.996 32.994C179.432 33.942 178.634 34.68 177.602 35.208C176.582 35.736 175.4 36 174.056 36H168.746ZM170.546 34.434H173.948C174.992 34.434 175.892 34.236 176.648 33.84C177.416 33.444 178.01 32.892 178.43 32.184C178.85 31.464 179.06 30.636 179.06 29.7C179.06 28.752 178.85 27.924 178.43 27.216C178.01 26.508 177.416 25.956 176.648 25.56C175.892 25.164 174.992 24.966 173.948 24.966H170.546V34.434ZM180.378 36L186.084 23.4H187.866L193.59 36H191.7L186.606 24.408H187.326L182.232 36H180.378ZM182.808 32.85L183.294 31.41H190.386L190.908 32.85H182.808ZM198.131 36.108C197.159 36.108 196.289 35.898 195.521 35.478C194.765 35.058 194.171 34.482 193.739 33.75C193.307 33.018 193.091 32.178 193.091 31.23C193.091 30.282 193.307 29.442 193.739 28.71C194.171 27.978 194.765 27.408 195.521 27C196.289 26.58 197.159 26.37 198.131 26.37C198.995 26.37 199.763 26.544 200.435 26.892C201.119 27.228 201.647 27.732 202.019 28.404L200.705 29.25C200.393 28.782 200.009 28.44 199.553 28.224C199.109 27.996 198.629 27.882 198.113 27.882C197.489 27.882 196.931 28.02 196.439 28.296C195.947 28.572 195.557 28.962 195.269 29.466C194.981 29.958 194.837 30.546 194.837 31.23C194.837 31.914 194.981 32.508 195.269 33.012C195.557 33.516 195.947 33.906 196.439 34.182C196.931 34.458 197.489 34.596 198.113 34.596C198.629 34.596 199.109 34.488 199.553 34.272C200.009 34.044 200.393 33.696 200.705 33.228L202.019 34.056C201.647 34.716 201.119 35.226 200.435 35.586C199.763 35.934 198.995 36.108 198.131 36.108ZM207.118 36.108C206.146 36.108 205.276 35.898 204.508 35.478C203.752 35.058 203.158 34.482 202.726 33.75C202.294 33.018 202.078 32.178 202.078 31.23C202.078 30.282 202.294 29.442 202.726 28.71C203.158 27.978 203.752 27.408 204.508 27C205.276 26.58 206.146 26.37 207.118 26.37C207.982 26.37 208.75 26.544 209.422 26.892C210.106 27.228 210.634 27.732 211.006 28.404L209.692 29.25C209.38 28.782 208.996 28.44 208.54 28.224C208.096 27.996 207.616 27.882 207.1 27.882C206.476 27.882 205.918 28.02 205.426 28.296C204.934 28.572 204.544 28.962 204.256 29.466C203.968 29.958 203.824 30.546 203.824 31.23C203.824 31.914 203.968 32.508 204.256 33.012C204.544 33.516 204.934 33.906 205.426 34.182C205.918 34.458 206.476 34.596 207.1 34.596C207.616 34.596 208.096 34.488 208.54 34.272C208.996 34.044 209.38 33.696 209.692 33.228L211.006 34.056C210.634 34.716 210.106 35.226 209.422 35.586C208.75 35.934 207.982 36.108 207.118 36.108ZM216.194 36.108C215.174 36.108 214.274 35.898 213.494 35.478C212.726 35.058 212.126 34.482 211.694 33.75C211.274 33.018 211.064 32.178 211.064 31.23C211.064 30.282 211.268 29.442 211.676 28.71C212.096 27.978 212.666 27.408 213.386 27C214.118 26.58 214.94 26.37 215.852 26.37C216.776 26.37 217.592 26.574 218.3 26.982C219.008 27.39 219.56 27.966 219.956 28.71C220.364 29.442 220.568 30.3 220.568 31.284C220.568 31.356 220.562 31.44 220.55 31.536C220.55 31.632 220.544 31.722 220.532 31.806H212.414V30.564H219.632L218.93 30.996C218.942 30.384 218.816 29.838 218.552 29.358C218.288 28.878 217.922 28.506 217.454 28.242C216.998 27.966 216.464 27.828 215.852 27.828C215.252 27.828 214.718 27.966 214.25 28.242C213.782 28.506 213.416 28.884 213.152 29.376C212.888 29.856 212.756 30.408 212.756 31.032V31.32C212.756 31.956 212.9 32.526 213.188 33.03C213.488 33.522 213.902 33.906 214.43 34.182C214.958 34.458 215.564 34.596 216.248 34.596C216.812 34.596 217.322 34.5 217.778 34.308C218.246 34.116 218.654 33.828 219.002 33.444L219.956 34.56C219.524 35.064 218.984 35.448 218.336 35.712C217.7 35.976 216.986 36.108 216.194 36.108ZM224.548 36.108C223.756 36.108 223 36 222.28 35.784C221.572 35.568 221.014 35.304 220.606 34.992L221.326 33.624C221.734 33.9 222.238 34.134 222.838 34.326C223.438 34.518 224.05 34.614 224.674 34.614C225.478 34.614 226.054 34.5 226.402 34.272C226.762 34.044 226.942 33.726 226.942 33.318C226.942 33.018 226.834 32.784 226.618 32.616C226.402 32.448 226.114 32.322 225.754 32.238C225.406 32.154 225.016 32.082 224.584 32.022C224.152 31.95 223.72 31.866 223.288 31.77C222.856 31.662 222.46 31.518 222.1 31.338C221.74 31.146 221.452 30.888 221.236 30.564C221.02 30.228 220.912 29.784 220.912 29.232C220.912 28.656 221.074 28.152 221.398 27.72C221.722 27.288 222.178 26.958 222.766 26.73C223.366 26.49 224.074 26.37 224.89 26.37C225.514 26.37 226.144 26.448 226.78 26.604C227.428 26.748 227.956 26.958 228.364 27.234L227.626 28.602C227.194 28.314 226.744 28.116 226.276 28.008C225.808 27.9 225.34 27.846 224.872 27.846C224.116 27.846 223.552 27.972 223.18 28.224C222.808 28.464 222.622 28.776 222.622 29.16C222.622 29.484 222.73 29.736 222.946 29.916C223.174 30.084 223.462 30.216 223.81 30.312C224.17 30.408 224.566 30.492 224.998 30.564C225.43 30.624 225.862 30.708 226.294 30.816C226.726 30.912 227.116 31.05 227.464 31.23C227.824 31.41 228.112 31.662 228.328 31.986C228.556 32.31 228.67 32.742 228.67 33.282C228.67 33.858 228.502 34.356 228.166 34.776C227.83 35.196 227.356 35.526 226.744 35.766C226.132 35.994 225.4 36.108 224.548 36.108ZM232.409 36.108C231.617 36.108 230.861 36 230.141 35.784C229.433 35.568 228.875 35.304 228.467 34.992L229.187 33.624C229.595 33.9 230.099 34.134 230.699 34.326C231.299 34.518 231.911 34.614 232.535 34.614C233.339 34.614 233.915 34.5 234.263 34.272C234.623 34.044 234.803 33.726 234.803 33.318C234.803 33.018 234.695 32.784 234.479 32.616C234.263 32.448 233.975 32.322 233.615 32.238C233.267 32.154 232.877 32.082 232.445 32.022C232.013 31.95 231.581 31.866 231.149 31.77C230.717 31.662 230.321 31.518 229.961 31.338C229.601 31.146 229.313 30.888 229.097 30.564C228.881 30.228 228.773 29.784 228.773 29.232C228.773 28.656 228.935 28.152 229.259 27.72C229.583 27.288 230.039 26.958 230.627 26.73C231.227 26.49 231.935 26.37 232.751 26.37C233.375 26.37 234.005 26.448 234.641 26.604C235.289 26.748 235.817 26.958 236.225 27.234L235.487 28.602C235.055 28.314 234.605 28.116 234.137 28.008C233.669 27.9 233.201 27.846 232.733 27.846C231.977 27.846 231.413 27.972 231.041 28.224C230.669 28.464 230.483 28.776 230.483 29.16C230.483 29.484 230.591 29.736 230.807 29.916C231.035 30.084 231.323 30.216 231.671 30.312C232.031 30.408 232.427 30.492 232.859 30.564C233.291 30.624 233.723 30.708 234.155 30.816C234.587 30.912 234.977 31.05 235.325 31.23C235.685 31.41 235.973 31.662 236.189 31.986C236.417 32.31 236.531 32.742 236.531 33.282C236.531 33.858 236.363 34.356 236.027 34.776C235.691 35.196 235.217 35.526 234.605 35.766C233.993 35.994 233.261 36.108 232.409 36.108ZM245.137 36.144C244.177 36.144 243.259 36 242.383 35.712C241.507 35.412 240.817 35.028 240.313 34.56L240.979 33.156C241.459 33.576 242.071 33.924 242.815 34.2C243.559 34.476 244.333 34.614 245.137 34.614C245.869 34.614 246.463 34.53 246.919 34.362C247.375 34.194 247.711 33.966 247.927 33.678C248.143 33.378 248.251 33.042 248.251 32.67C248.251 32.238 248.107 31.89 247.819 31.626C247.543 31.362 247.177 31.152 246.721 30.996C246.277 30.828 245.785 30.684 245.245 30.564C244.705 30.444 244.159 30.306 243.607 30.15C243.067 29.982 242.569 29.772 242.113 29.52C241.669 29.268 241.309 28.932 241.033 28.512C240.757 28.08 240.619 27.528 240.619 26.856C240.619 26.208 240.787 25.614 241.123 25.074C241.471 24.522 241.999 24.084 242.707 23.76C243.427 23.424 244.339 23.256 245.443 23.256C246.175 23.256 246.901 23.352 247.621 23.544C248.341 23.736 248.965 24.012 249.493 24.372L248.899 25.812C248.359 25.452 247.789 25.194 247.189 25.038C246.589 24.87 246.007 24.786 245.443 24.786C244.735 24.786 244.153 24.876 243.697 25.056C243.241 25.236 242.905 25.476 242.689 25.776C242.485 26.076 242.383 26.412 242.383 26.784C242.383 27.228 242.521 27.582 242.797 27.846C243.085 28.11 243.451 28.32 243.895 28.476C244.351 28.632 244.849 28.776 245.389 28.908C245.929 29.028 246.469 29.166 247.009 29.322C247.561 29.478 248.059 29.682 248.503 29.934C248.959 30.186 249.325 30.522 249.601 30.942C249.877 31.362 250.015 31.902 250.015 32.562C250.015 33.198 249.841 33.792 249.493 34.344C249.145 34.884 248.605 35.322 247.873 35.658C247.153 35.982 246.241 36.144 245.137 36.144ZM255.484 36.108C254.464 36.108 253.564 35.898 252.784 35.478C252.016 35.058 251.416 34.482 250.984 33.75C250.564 33.018 250.354 32.178 250.354 31.23C250.354 30.282 250.558 29.442 250.966 28.71C251.386 27.978 251.956 27.408 252.676 27C253.408 26.58 254.23 26.37 255.142 26.37C256.066 26.37 256.882 26.574 257.59 26.982C258.298 27.39 258.85 27.966 259.246 28.71C259.654 29.442 259.858 30.3 259.858 31.284C259.858 31.356 259.852 31.44 259.84 31.536C259.84 31.632 259.834 31.722 259.822 31.806H251.704V30.564H258.922L258.22 30.996C258.232 30.384 258.106 29.838 257.842 29.358C257.578 28.878 257.212 28.506 256.744 28.242C256.288 27.966 255.754 27.828 255.142 27.828C254.542 27.828 254.008 27.966 253.54 28.242C253.072 28.506 252.706 28.884 252.442 29.376C252.178 29.856 252.046 30.408 252.046 31.032V31.32C252.046 31.956 252.19 32.526 252.478 33.03C252.778 33.522 253.192 33.906 253.72 34.182C254.248 34.458 254.854 34.596 255.538 34.596C256.102 34.596 256.612 34.5 257.068 34.308C257.536 34.116 257.944 33.828 258.292 33.444L259.246 34.56C258.814 35.064 258.274 35.448 257.626 35.712C256.99 35.976 256.276 36.108 255.484 36.108ZM265.26 36.108C264.288 36.108 263.418 35.898 262.65 35.478C261.894 35.058 261.3 34.482 260.868 33.75C260.436 33.018 260.22 32.178 260.22 31.23C260.22 30.282 260.436 29.442 260.868 28.71C261.3 27.978 261.894 27.408 262.65 27C263.418 26.58 264.288 26.37 265.26 26.37C266.124 26.37 266.892 26.544 267.564 26.892C268.248 27.228 268.776 27.732 269.148 28.404L267.834 29.25C267.522 28.782 267.138 28.44 266.682 28.224C266.238 27.996 265.758 27.882 265.242 27.882C264.618 27.882 264.06 28.02 263.568 28.296C263.076 28.572 262.686 28.962 262.398 29.466C262.11 29.958 261.966 30.546 261.966 31.23C261.966 31.914 262.11 32.508 262.398 33.012C262.686 33.516 263.076 33.906 263.568 34.182C264.06 34.458 264.618 34.596 265.242 34.596C265.758 34.596 266.238 34.488 266.682 34.272C267.138 34.044 267.522 33.696 267.834 33.228L269.148 34.056C268.776 34.716 268.248 35.226 267.564 35.586C266.892 35.934 266.124 36.108 265.26 36.108ZM274.243 36.108C273.427 36.108 272.707 35.958 272.083 35.658C271.471 35.358 270.991 34.902 270.643 34.29C270.307 33.666 270.139 32.886 270.139 31.95V26.46H271.867V31.752C271.867 32.688 272.089 33.39 272.533 33.858C272.989 34.326 273.625 34.56 274.441 34.56C275.041 34.56 275.563 34.44 276.007 34.2C276.451 33.948 276.793 33.588 277.033 33.12C277.273 32.64 277.393 32.064 277.393 31.392V26.46H279.121V36H277.483V33.426L277.753 34.11C277.441 34.746 276.973 35.238 276.349 35.586C275.725 35.934 275.023 36.108 274.243 36.108ZM281.254 36V26.46H282.91V29.052L282.748 28.404C283.012 27.744 283.456 27.24 284.08 26.892C284.704 26.544 285.472 26.37 286.384 26.37V28.044C286.312 28.032 286.24 28.026 286.168 28.026C286.108 28.026 286.048 28.026 285.988 28.026C285.064 28.026 284.332 28.302 283.792 28.854C283.252 29.406 282.982 30.204 282.982 31.248V36H281.254ZM287.358 36V26.46H289.086V36H287.358ZM288.222 24.624C287.886 24.624 287.604 24.516 287.376 24.3C287.16 24.084 287.052 23.82 287.052 23.508C287.052 23.184 287.16 22.914 287.376 22.698C287.604 22.482 287.886 22.374 288.222 22.374C288.558 22.374 288.834 22.482 289.05 22.698C289.278 22.902 289.392 23.16 289.392 23.472C289.392 23.796 289.284 24.072 289.068 24.3C288.852 24.516 288.57 24.624 288.222 24.624ZM294.505 36.108C293.545 36.108 292.801 35.85 292.273 35.334C291.745 34.818 291.481 34.08 291.481 33.12V24.372H293.209V33.048C293.209 33.564 293.335 33.96 293.587 34.236C293.851 34.512 294.223 34.65 294.703 34.65C295.243 34.65 295.693 34.5 296.053 34.2L296.593 35.442C296.329 35.67 296.011 35.838 295.639 35.946C295.279 36.054 294.901 36.108 294.505 36.108ZM289.861 27.882V26.46H295.945V27.882H289.861ZM297.765 39.6C297.309 39.6 296.865 39.522 296.433 39.366C296.001 39.222 295.629 39.006 295.317 38.718L296.055 37.422C296.295 37.65 296.559 37.824 296.847 37.944C297.135 38.064 297.441 38.124 297.765 38.124C298.185 38.124 298.533 38.016 298.809 37.8C299.085 37.584 299.343 37.2 299.583 36.648L300.177 35.334L300.357 35.118L304.101 26.46H305.793L301.167 36.954C300.891 37.626 300.579 38.154 300.231 38.538C299.895 38.922 299.523 39.192 299.115 39.348C298.707 39.516 298.257 39.6 297.765 39.6ZM300.033 36.306L295.677 26.46H297.477L301.185 34.956L300.033 36.306ZM313.851 36.144C312.891 36.144 311.973 36 311.097 35.712C310.221 35.412 309.531 35.028 309.027 34.56L309.693 33.156C310.173 33.576 310.785 33.924 311.529 34.2C312.273 34.476 313.047 34.614 313.851 34.614C314.583 34.614 315.177 34.53 315.633 34.362C316.089 34.194 316.425 33.966 316.641 33.678C316.857 33.378 316.965 33.042 316.965 32.67C316.965 32.238 316.821 31.89 316.533 31.626C316.257 31.362 315.891 31.152 315.435 30.996C314.991 30.828 314.499 30.684 313.959 30.564C313.419 30.444 312.873 30.306 312.321 30.15C311.781 29.982 311.283 29.772 310.827 29.52C310.383 29.268 310.023 28.932 309.747 28.512C309.471 28.08 309.333 27.528 309.333 26.856C309.333 26.208 309.501 25.614 309.837 25.074C310.185 24.522 310.713 24.084 311.421 23.76C312.141 23.424 313.053 23.256 314.157 23.256C314.889 23.256 315.615 23.352 316.335 23.544C317.055 23.736 317.679 24.012 318.207 24.372L317.613 25.812C317.073 25.452 316.503 25.194 315.903 25.038C315.303 24.87 314.721 24.786 314.157 24.786C313.449 24.786 312.867 24.876 312.411 25.056C311.955 25.236 311.619 25.476 311.403 25.776C311.199 26.076 311.097 26.412 311.097 26.784C311.097 27.228 311.235 27.582 311.511 27.846C311.799 28.11 312.165 28.32 312.609 28.476C313.065 28.632 313.563 28.776 314.103 28.908C314.643 29.028 315.183 29.166 315.723 29.322C316.275 29.478 316.773 29.682 317.217 29.934C317.673 30.186 318.039 30.522 318.315 30.942C318.591 31.362 318.729 31.902 318.729 32.562C318.729 33.198 318.555 33.792 318.207 34.344C317.859 34.884 317.319 35.322 316.587 35.658C315.867 35.982 314.955 36.144 313.851 36.144ZM320.189 39.6C319.733 39.6 319.289 39.522 318.857 39.366C318.425 39.222 318.053 39.006 317.741 38.718L318.479 37.422C318.719 37.65 318.983 37.824 319.271 37.944C319.559 38.064 319.865 38.124 320.189 38.124C320.609 38.124 320.957 38.016 321.233 37.8C321.509 37.584 321.767 37.2 322.007 36.648L322.601 35.334L322.781 35.118L326.525 26.46H328.217L323.591 36.954C323.315 37.626 323.003 38.154 322.655 38.538C322.319 38.922 321.947 39.192 321.539 39.348C321.131 39.516 320.681 39.6 320.189 39.6ZM322.457 36.306L318.101 26.46H319.901L323.609 34.956L322.457 36.306ZM331.287 36.108C330.495 36.108 329.739 36 329.019 35.784C328.311 35.568 327.753 35.304 327.345 34.992L328.065 33.624C328.473 33.9 328.977 34.134 329.577 34.326C330.177 34.518 330.789 34.614 331.413 34.614C332.217 34.614 332.793 34.5 333.141 34.272C333.501 34.044 333.681 33.726 333.681 33.318C333.681 33.018 333.573 32.784 333.357 32.616C333.141 32.448 332.853 32.322 332.493 32.238C332.145 32.154 331.755 32.082 331.323 32.022C330.891 31.95 330.459 31.866 330.027 31.77C329.595 31.662 329.199 31.518 328.839 31.338C328.479 31.146 328.191 30.888 327.975 30.564C327.759 30.228 327.651 29.784 327.651 29.232C327.651 28.656 327.813 28.152 328.137 27.72C328.461 27.288 328.917 26.958 329.505 26.73C330.105 26.49 330.813 26.37 331.629 26.37C332.253 26.37 332.883 26.448 333.519 26.604C334.167 26.748 334.695 26.958 335.103 27.234L334.365 28.602C333.933 28.314 333.483 28.116 333.015 28.008C332.547 27.9 332.079 27.846 331.611 27.846C330.855 27.846 330.291 27.972 329.919 28.224C329.547 28.464 329.361 28.776 329.361 29.16C329.361 29.484 329.469 29.736 329.685 29.916C329.913 30.084 330.201 30.216 330.549 30.312C330.909 30.408 331.305 30.492 331.737 30.564C332.169 30.624 332.601 30.708 333.033 30.816C333.465 30.912 333.855 31.05 334.203 31.23C334.563 31.41 334.851 31.662 335.067 31.986C335.295 32.31 335.409 32.742 335.409 33.282C335.409 33.858 335.241 34.356 334.905 34.776C334.569 35.196 334.095 35.526 333.483 35.766C332.871 35.994 332.139 36.108 331.287 36.108ZM339.688 36.108C338.728 36.108 337.984 35.85 337.456 35.334C336.928 34.818 336.664 34.08 336.664 33.12V24.372H338.392V33.048C338.392 33.564 338.518 33.96 338.77 34.236C339.034 34.512 339.406 34.65 339.886 34.65C340.426 34.65 340.876 34.5 341.236 34.2L341.776 35.442C341.512 35.67 341.194 35.838 340.822 35.946C340.462 36.054 340.084 36.108 339.688 36.108ZM335.044 27.882V26.46H341.128V27.882H335.044ZM346.641 36.108C345.621 36.108 344.721 35.898 343.941 35.478C343.173 35.058 342.573 34.482 342.141 33.75C341.721 33.018 341.511 32.178 341.511 31.23C341.511 30.282 341.715 29.442 342.123 28.71C342.543 27.978 343.113 27.408 343.833 27C344.565 26.58 345.387 26.37 346.299 26.37C347.223 26.37 348.039 26.574 348.747 26.982C349.455 27.39 350.007 27.966 350.403 28.71C350.811 29.442 351.015 30.3 351.015 31.284C351.015 31.356 351.009 31.44 350.997 31.536C350.997 31.632 350.991 31.722 350.979 31.806H342.861V30.564H350.079L349.377 30.996C349.389 30.384 349.263 29.838 348.999 29.358C348.735 28.878 348.369 28.506 347.901 28.242C347.445 27.966 346.911 27.828 346.299 27.828C345.699 27.828 345.165 27.966 344.697 28.242C344.229 28.506 343.863 28.884 343.599 29.376C343.335 29.856 343.203 30.408 343.203 31.032V31.32C343.203 31.956 343.347 32.526 343.635 33.03C343.935 33.522 344.349 33.906 344.877 34.182C345.405 34.458 346.011 34.596 346.695 34.596C347.259 34.596 347.769 34.5 348.225 34.308C348.693 34.116 349.101 33.828 349.449 33.444L350.403 34.56C349.971 35.064 349.431 35.448 348.783 35.712C348.147 35.976 347.433 36.108 346.641 36.108ZM364.192 26.37C364.96 26.37 365.638 26.52 366.226 26.82C366.814 27.12 367.27 27.576 367.594 28.188C367.93 28.8 368.098 29.574 368.098 30.51V36H366.37V30.708C366.37 29.784 366.154 29.088 365.722 28.62C365.29 28.152 364.684 27.918 363.904 27.918C363.328 27.918 362.824 28.038 362.392 28.278C361.96 28.518 361.624 28.872 361.384 29.34C361.156 29.808 361.042 30.39 361.042 31.086V36H359.314V30.708C359.314 29.784 359.098 29.088 358.666 28.62C358.246 28.152 357.64 27.918 356.848 27.918C356.284 27.918 355.786 28.038 355.354 28.278C354.922 28.518 354.586 28.872 354.346 29.34C354.106 29.808 353.986 30.39 353.986 31.086V36H352.258V26.46H353.914V28.998L353.644 28.35C353.944 27.726 354.406 27.24 355.03 26.892C355.654 26.544 356.38 26.37 357.208 26.37C358.12 26.37 358.906 26.598 359.566 27.054C360.226 27.498 360.658 28.176 360.862 29.088L360.16 28.8C360.448 28.068 360.952 27.48 361.672 27.036C362.392 26.592 363.232 26.37 364.192 26.37ZM372.858 36.108C372.066 36.108 371.31 36 370.59 35.784C369.882 35.568 369.324 35.304 368.916 34.992L369.636 33.624C370.044 33.9 370.548 34.134 371.148 34.326C371.748 34.518 372.36 34.614 372.984 34.614C373.788 34.614 374.364 34.5 374.712 34.272C375.072 34.044 375.252 33.726 375.252 33.318C375.252 33.018 375.144 32.784 374.928 32.616C374.712 32.448 374.424 32.322 374.064 32.238C373.716 32.154 373.326 32.082 372.894 32.022C372.462 31.95 372.03 31.866 371.598 31.77C371.166 31.662 370.77 31.518 370.41 31.338C370.05 31.146 369.762 30.888 369.546 30.564C369.33 30.228 369.222 29.784 369.222 29.232C369.222 28.656 369.384 28.152 369.708 27.72C370.032 27.288 370.488 26.958 371.076 26.73C371.676 26.49 372.384 26.37 373.2 26.37C373.824 26.37 374.454 26.448 375.09 26.604C375.738 26.748 376.266 26.958 376.674 27.234L375.936 28.602C375.504 28.314 375.054 28.116 374.586 28.008C374.118 27.9 373.65 27.846 373.182 27.846C372.426 27.846 371.862 27.972 371.49 28.224C371.118 28.464 370.932 28.776 370.932 29.16C370.932 29.484 371.04 29.736 371.256 29.916C371.484 30.084 371.772 30.216 372.12 30.312C372.48 30.408 372.876 30.492 373.308 30.564C373.74 30.624 374.172 30.708 374.604 30.816C375.036 30.912 375.426 31.05 375.774 31.23C376.134 31.41 376.422 31.662 376.638 31.986C376.866 32.31 376.98 32.742 376.98 33.282C376.98 33.858 376.812 34.356 376.476 34.776C376.14 35.196 375.666 35.526 375.054 35.766C374.442 35.994 373.71 36.108 372.858 36.108ZM381.913 36V23.4H386.827C387.931 23.4 388.873 23.574 389.653 23.922C390.433 24.27 391.033 24.774 391.453 25.434C391.873 26.094 392.083 26.88 392.083 27.792C392.083 28.704 391.873 29.49 391.453 30.15C391.033 30.798 390.433 31.302 389.653 31.662C388.873 32.01 387.931 32.184 386.827 32.184H382.903L383.713 31.338V36H381.913ZM383.713 31.518L382.903 30.618H386.773C387.925 30.618 388.795 30.372 389.383 29.88C389.983 29.388 390.283 28.692 390.283 27.792C390.283 26.892 389.983 26.196 389.383 25.704C388.795 25.212 387.925 24.966 386.773 24.966H382.903L383.713 24.066V31.518ZM395.874 36L391.698 26.46H393.498L397.206 35.1H396.342L400.122 26.46H401.814L397.638 36H395.874ZM405.81 36.108C404.85 36.108 404.106 35.85 403.578 35.334C403.05 34.818 402.786 34.08 402.786 33.12V24.372H404.514V33.048C404.514 33.564 404.64 33.96 404.892 34.236C405.156 34.512 405.528 34.65 406.008 34.65C406.548 34.65 406.998 34.5 407.358 34.2L407.898 35.442C407.634 35.67 407.316 35.838 406.944 35.946C406.584 36.054 406.206 36.108 405.81 36.108ZM401.166 27.882V26.46H407.25V27.882H401.166ZM409.421 36.108C409.085 36.108 408.797 35.994 408.557 35.766C408.317 35.526 408.197 35.226 408.197 34.866C408.197 34.506 408.317 34.212 408.557 33.984C408.797 33.756 409.085 33.642 409.421 33.642C409.745 33.642 410.021 33.756 410.249 33.984C410.489 34.212 410.609 34.506 410.609 34.866C410.609 35.226 410.489 35.526 410.249 35.766C410.021 35.994 409.745 36.108 409.421 36.108ZM415.859 36V23.4H417.659V34.434H424.481V36H415.859ZM428.327 36.108C427.367 36.108 426.623 35.85 426.095 35.334C425.567 34.818 425.303 34.08 425.303 33.12V24.372H427.031V33.048C427.031 33.564 427.157 33.96 427.409 34.236C427.673 34.512 428.045 34.65 428.525 34.65C429.065 34.65 429.515 34.5 429.875 34.2L430.415 35.442C430.151 35.67 429.833 35.838 429.461 35.946C429.101 36.054 428.723 36.108 428.327 36.108ZM423.683 27.882V26.46H429.767V27.882H423.683ZM434.973 36.108C434.049 36.108 433.221 35.904 432.489 35.496C431.769 35.088 431.199 34.518 430.779 33.786C430.359 33.054 430.149 32.202 430.149 31.23C430.149 30.258 430.359 29.412 430.779 28.692C431.199 27.96 431.769 27.39 432.489 26.982C433.221 26.574 434.049 26.37 434.973 26.37C435.777 26.37 436.503 26.55 437.151 26.91C437.799 27.27 438.315 27.81 438.699 28.53C439.095 29.25 439.293 30.15 439.293 31.23C439.293 32.31 439.101 33.21 438.717 33.93C438.345 34.65 437.835 35.196 437.187 35.568C436.539 35.928 435.801 36.108 434.973 36.108ZM435.117 34.596C435.717 34.596 436.257 34.458 436.737 34.182C437.229 33.906 437.613 33.516 437.889 33.012C438.177 32.496 438.321 31.902 438.321 31.23C438.321 30.546 438.177 29.958 437.889 29.466C437.613 28.962 437.229 28.572 436.737 28.296C436.257 28.02 435.717 27.882 435.117 27.882C434.505 27.882 433.959 28.02 433.479 28.296C432.999 28.572 432.615 28.962 432.327 29.466C432.039 29.958 431.895 30.546 431.895 31.23C431.895 31.902 432.039 32.496 432.327 33.012C432.615 33.516 432.999 33.906 433.479 34.182C433.959 34.458 434.505 34.596 435.117 34.596ZM438.375 36V33.426L438.483 31.212L438.303 28.998V22.644H440.031V36H438.375Z" fill="white"/>
</svg>
