<svg width="1080" height="64" viewBox="0 0 1080 64" fill="none" xmlns="http://www.w3.org/2000/svg">
<rect width="1080" height="65.9878" fill="#A30000"/>
<path d="M60.0233 35.4971V21.6396H65.4277C66.6419 21.6396 67.6779 21.831 68.5358 22.2137C69.3936 22.5965 70.0535 23.1508 70.5154 23.8766C70.9773 24.6025 71.2083 25.4669 71.2083 26.4699C71.2083 27.473 70.9773 28.3374 70.5154 29.0633C70.0535 29.7759 69.3936 30.3302 68.5358 30.7262C67.6779 31.1089 66.6419 31.3002 65.4277 31.3002H61.1121L62.003 30.3698V35.4971H60.0233ZM62.003 30.5678L61.1121 29.578H65.3684C66.6353 29.578 67.5921 29.3074 68.2388 28.7663C68.8987 28.2252 69.2286 27.4598 69.2286 26.4699C69.2286 25.4801 68.8987 24.7147 68.2388 24.1736C67.5921 23.6325 66.6353 23.3619 65.3684 23.3619H61.1121L62.003 22.3721V30.5678ZM78.2946 35.6158C77.2388 35.6158 76.3018 35.3849 75.4835 34.923C74.6653 34.4611 74.0186 33.8276 73.5435 33.0225C73.0684 32.2043 72.8308 31.2805 72.8308 30.251C72.8308 29.2084 73.0684 28.2846 73.5435 27.4796C74.0186 26.6745 74.6653 26.0476 75.4835 25.5989C76.3018 25.137 77.2388 24.906 78.2946 24.906C79.3372 24.906 80.2676 25.137 81.0859 25.5989C81.9173 26.0476 82.564 26.6745 83.0259 27.4796C83.501 28.2714 83.7386 29.1952 83.7386 30.251C83.7386 31.2936 83.501 32.2175 83.0259 33.0225C82.564 33.8276 81.9173 34.4611 81.0859 34.923C80.2676 35.3849 79.3372 35.6158 78.2946 35.6158ZM78.2946 33.953C78.9677 33.953 79.5682 33.8012 80.0961 33.4976C80.6372 33.1941 81.0595 32.7652 81.363 32.2109C81.6666 31.6434 81.8183 30.9901 81.8183 30.251C81.8183 29.4988 81.6666 28.8521 81.363 28.311C81.0595 27.7567 80.6372 27.3278 80.0961 27.0242C79.5682 26.7207 78.9677 26.5689 78.2946 26.5689C77.6215 26.5689 77.021 26.7207 76.4931 27.0242C75.9652 27.3278 75.5429 27.7567 75.2262 28.311C74.9094 28.8521 74.751 29.4988 74.751 30.251C74.751 30.9901 74.9094 31.6434 75.2262 32.2109C75.5429 32.7652 75.9652 33.1941 76.4931 33.4976C77.021 33.8012 77.6215 33.953 78.2946 33.953ZM88.2941 35.4971L84.3942 25.005H86.1956L89.66 34.5073H88.8088L92.4117 25.005H94.0152L97.5389 34.5073H96.7075L100.251 25.005H101.954L98.0339 35.4971H96.2126L92.9066 26.8263H93.4609L90.1153 35.4971H88.2941ZM108.264 35.6158C107.142 35.6158 106.152 35.3849 105.294 34.923C104.45 34.4611 103.79 33.8276 103.315 33.0225C102.853 32.2175 102.622 31.2936 102.622 30.251C102.622 29.2084 102.846 28.2846 103.295 27.4796C103.757 26.6745 104.384 26.0476 105.176 25.5989C105.981 25.137 106.885 24.906 107.888 24.906C108.904 24.906 109.801 25.1304 110.58 25.5791C111.359 26.0278 111.966 26.6613 112.401 27.4796C112.85 28.2846 113.074 29.2282 113.074 30.3104C113.074 30.3896 113.068 30.482 113.055 30.5876C113.055 30.6932 113.048 30.7921 113.035 30.8845H104.107V29.5186H112.045L111.273 29.9937C111.286 29.3206 111.148 28.7201 110.857 28.1922C110.567 27.6643 110.164 27.2552 109.65 26.9649C109.148 26.6613 108.561 26.5095 107.888 26.5095C107.228 26.5095 106.641 26.6613 106.126 26.9649C105.611 27.2552 105.209 27.6709 104.918 28.212C104.628 28.7399 104.483 29.347 104.483 30.0333V30.35C104.483 31.0495 104.641 31.6764 104.958 32.2307C105.288 32.7718 105.743 33.1941 106.324 33.4976C106.905 33.8012 107.571 33.953 108.323 33.953C108.944 33.953 109.504 33.8474 110.006 33.6362C110.521 33.4251 110.969 33.1083 111.352 32.686L112.401 33.9134C111.926 34.4677 111.332 34.89 110.62 35.1803C109.92 35.4707 109.135 35.6158 108.264 35.6158ZM115.713 35.4971V25.005H117.535V27.8557L117.356 27.143C117.647 26.4172 118.135 25.8629 118.821 25.4801C119.508 25.0974 120.352 24.906 121.355 24.906V26.7471C121.276 26.7339 121.197 26.7273 121.118 26.7273C121.052 26.7273 120.986 26.7273 120.92 26.7273C119.904 26.7273 119.099 27.0308 118.505 27.6379C117.911 28.245 117.614 29.1227 117.614 30.2708V35.4971H115.713ZM128.273 35.6158C127.151 35.6158 126.161 35.3849 125.303 34.923C124.459 34.4611 123.799 33.8276 123.324 33.0225C122.862 32.2175 122.631 31.2936 122.631 30.251C122.631 29.2084 122.855 28.2846 123.304 27.4796C123.766 26.6745 124.393 26.0476 125.185 25.5989C125.99 25.137 126.894 24.906 127.897 24.906C128.913 24.906 129.81 25.1304 130.589 25.5791C131.368 26.0278 131.975 26.6613 132.41 27.4796C132.859 28.2846 133.083 29.2282 133.083 30.3104C133.083 30.3896 133.077 30.482 133.064 30.5876C133.064 30.6932 133.057 30.7921 133.044 30.8845H124.116V29.5186H132.054L131.282 29.9937C131.295 29.3206 131.157 28.7201 130.866 28.1922C130.576 27.6643 130.173 27.2552 129.659 26.9649C129.157 26.6613 128.57 26.5095 127.897 26.5095C127.237 26.5095 126.65 26.6613 126.135 26.9649C125.62 27.2552 125.218 27.6709 124.927 28.212C124.637 28.7399 124.492 29.347 124.492 30.0333V30.35C124.492 31.0495 124.65 31.6764 124.967 32.2307C125.297 32.7718 125.752 33.1941 126.333 33.4976C126.914 33.8012 127.58 33.953 128.332 33.953C128.953 33.953 129.513 33.8474 130.015 33.6362C130.53 33.4251 130.978 33.1083 131.361 32.686L132.41 33.9134C131.935 34.4677 131.341 34.89 130.629 35.1803C129.929 35.4707 129.144 35.6158 128.273 35.6158ZM140.058 35.6158C139.042 35.6158 138.131 35.3915 137.326 34.9428C136.534 34.4941 135.907 33.8672 135.445 33.0621C134.983 32.2571 134.752 31.32 134.752 30.251C134.752 29.182 134.983 28.2516 135.445 27.4598C135.907 26.6547 136.534 26.0278 137.326 25.5791C138.131 25.1304 139.042 24.906 140.058 24.906C140.942 24.906 141.74 25.104 142.453 25.4999C143.166 25.8958 143.733 26.4897 144.156 27.2816C144.591 28.0734 144.809 29.0633 144.809 30.251C144.809 31.4388 144.598 32.4286 144.175 33.2205C143.766 34.0123 143.205 34.6128 142.493 35.022C141.78 35.4179 140.968 35.6158 140.058 35.6158ZM140.216 33.953C140.876 33.953 141.47 33.8012 141.998 33.4976C142.539 33.1941 142.961 32.7652 143.265 32.2109C143.582 31.6434 143.74 30.9901 143.74 30.251C143.74 29.4988 143.582 28.8521 143.265 28.311C142.961 27.7567 142.539 27.3278 141.998 27.0242C141.47 26.7207 140.876 26.5689 140.216 26.5689C139.543 26.5689 138.943 26.7207 138.415 27.0242C137.887 27.3278 137.464 27.7567 137.148 28.311C136.831 28.8521 136.673 29.4988 136.673 30.251C136.673 30.9901 136.831 31.6434 137.148 32.2109C137.464 32.7652 137.887 33.1941 138.415 33.4976C138.943 33.8012 139.543 33.953 140.216 33.953ZM143.799 35.4971V32.6662L143.918 30.2312L143.72 27.7963V20.8082H145.621V35.4971H143.799ZM160.096 35.6158C159.198 35.6158 158.386 35.4179 157.661 35.022C156.948 34.6128 156.38 34.0123 155.958 33.2205C155.549 32.4286 155.344 31.4388 155.344 30.251C155.344 29.0633 155.556 28.0734 155.978 27.2816C156.413 26.4897 156.987 25.8958 157.7 25.4999C158.426 25.104 159.224 24.906 160.096 24.906C161.125 24.906 162.036 25.1304 162.827 25.5791C163.619 26.0278 164.246 26.6547 164.708 27.4598C165.17 28.2516 165.401 29.182 165.401 30.251C165.401 31.32 165.17 32.2571 164.708 33.0621C164.246 33.8672 163.619 34.4941 162.827 34.9428C162.036 35.3915 161.125 35.6158 160.096 35.6158ZM154.533 35.4971V20.8082H156.433V27.7963L156.235 30.2312L156.354 32.6662V35.4971H154.533ZM159.937 33.953C160.61 33.953 161.211 33.8012 161.739 33.4976C162.28 33.1941 162.702 32.7652 163.006 32.2109C163.322 31.6434 163.481 30.9901 163.481 30.251C163.481 29.4988 163.322 28.8521 163.006 28.311C162.702 27.7567 162.28 27.3278 161.739 27.0242C161.211 26.7207 160.61 26.5689 159.937 26.5689C159.277 26.5689 158.677 26.7207 158.136 27.0242C157.608 27.3278 157.185 27.7567 156.869 28.311C156.565 28.8521 156.413 29.4988 156.413 30.251C156.413 30.9901 156.565 31.6434 156.869 32.2109C157.185 32.7652 157.608 33.1941 158.136 33.4976C158.677 33.8012 159.277 33.953 159.937 33.953ZM168.192 39.4563C167.691 39.4563 167.202 39.3706 166.727 39.199C166.252 39.0406 165.843 38.8031 165.5 38.4863L166.311 37.061C166.575 37.3117 166.866 37.5031 167.182 37.6351C167.499 37.767 167.836 37.833 168.192 37.833C168.654 37.833 169.037 37.7143 169.34 37.4767C169.644 37.2391 169.928 36.8168 170.191 36.2097L170.845 34.7646L171.043 34.527L175.16 25.005H177.021L171.934 36.5463C171.63 37.2853 171.287 37.866 170.904 38.2884C170.535 38.7107 170.126 39.0076 169.677 39.1792C169.228 39.364 168.733 39.4563 168.192 39.4563ZM170.686 35.8336L165.896 25.005H167.875L171.953 34.3489L170.686 35.8336ZM184.388 35.4971V21.6396H190.228C191.706 21.6396 193.006 21.93 194.128 22.5107C195.263 23.0914 196.141 23.903 196.761 24.9456C197.395 25.9882 197.711 27.1958 197.711 28.5684C197.711 29.9409 197.395 31.1485 196.761 32.1911C196.141 33.2337 195.263 34.0453 194.128 34.626C193.006 35.2067 191.706 35.4971 190.228 35.4971H184.388ZM186.368 33.7748H190.11C191.258 33.7748 192.248 33.557 193.079 33.1215C193.924 32.686 194.577 32.0789 195.039 31.3002C195.501 30.5084 195.732 29.5978 195.732 28.5684C195.732 27.5257 195.501 26.6151 195.039 25.8365C194.577 25.0578 193.924 24.4507 193.079 24.0152C192.248 23.5797 191.258 23.3619 190.11 23.3619H186.368V33.7748ZM198.452 35.4971L204.727 21.6396H206.687L212.982 35.4971H210.904L205.301 22.7482H206.093L200.491 35.4971H198.452ZM201.124 32.0327L201.659 30.449H209.459L210.033 32.0327H201.124ZM219.249 35.6158C218.18 35.6158 217.223 35.3849 216.378 34.923C215.547 34.4611 214.893 33.8276 214.418 33.0225C213.943 32.2175 213.706 31.2936 213.706 30.251C213.706 29.2084 213.943 28.2846 214.418 27.4796C214.893 26.6745 215.547 26.0476 216.378 25.5989C217.223 25.137 218.18 24.906 219.249 24.906C220.199 24.906 221.044 25.0974 221.783 25.4801C222.535 25.8497 223.116 26.404 223.525 27.143L222.08 28.0734C221.736 27.5587 221.314 27.1826 220.813 26.9451C220.324 26.6943 219.796 26.5689 219.229 26.5689C218.543 26.5689 217.929 26.7207 217.388 27.0242C216.847 27.3278 216.418 27.7567 216.101 28.311C215.784 28.8521 215.626 29.4988 215.626 30.251C215.626 31.0033 215.784 31.6566 216.101 32.2109C216.418 32.7652 216.847 33.1941 217.388 33.4976C217.929 33.8012 218.543 33.953 219.229 33.953C219.796 33.953 220.324 33.8342 220.813 33.5966C221.314 33.3459 221.736 32.9631 222.08 32.4484L223.525 33.3591C223.116 34.0849 222.535 34.6458 221.783 35.0418C221.044 35.4245 220.199 35.6158 219.249 35.6158ZM230.403 35.6158C229.334 35.6158 228.378 35.3849 227.533 34.923C226.702 34.4611 226.048 33.8276 225.573 33.0225C225.098 32.2175 224.86 31.2936 224.86 30.251C224.86 29.2084 225.098 28.2846 225.573 27.4796C226.048 26.6745 226.702 26.0476 227.533 25.5989C228.378 25.137 229.334 24.906 230.403 24.906C231.354 24.906 232.198 25.0974 232.937 25.4801C233.69 25.8497 234.27 26.404 234.679 27.143L233.234 28.0734C232.891 27.5587 232.469 27.1826 231.967 26.9451C231.479 26.6943 230.951 26.5689 230.384 26.5689C229.697 26.5689 229.084 26.7207 228.543 27.0242C228.001 27.3278 227.573 27.7567 227.256 28.311C226.939 28.8521 226.781 29.4988 226.781 30.251C226.781 31.0033 226.939 31.6566 227.256 32.2109C227.573 32.7652 228.001 33.1941 228.543 33.4976C229.084 33.8012 229.697 33.953 230.384 33.953C230.951 33.953 231.479 33.8342 231.967 33.5966C232.469 33.3459 232.891 32.9631 233.234 32.4484L234.679 33.3591C234.27 34.0849 233.69 34.6458 232.937 35.0418C232.198 35.4245 231.354 35.6158 230.403 35.6158ZM241.657 35.6158C240.535 35.6158 239.546 35.3849 238.688 34.923C237.843 34.4611 237.183 33.8276 236.708 33.0225C236.246 32.2175 236.015 31.2936 236.015 30.251C236.015 29.2084 236.24 28.2846 236.688 27.4796C237.15 26.6745 237.777 26.0476 238.569 25.5989C239.374 25.137 240.278 24.906 241.281 24.906C242.297 24.906 243.195 25.1304 243.973 25.5791C244.752 26.0278 245.359 26.6613 245.795 27.4796C246.243 28.2846 246.468 29.2282 246.468 30.3104C246.468 30.3896 246.461 30.482 246.448 30.5876C246.448 30.6932 246.441 30.7921 246.428 30.8845H237.5V29.5186H245.438L244.666 29.9937C244.679 29.3206 244.541 28.7201 244.25 28.1922C243.96 27.6643 243.558 27.2552 243.043 26.9649C242.541 26.6613 241.954 26.5095 241.281 26.5095C240.621 26.5095 240.034 26.6613 239.519 26.9649C239.004 27.2552 238.602 27.6709 238.312 28.212C238.021 28.7399 237.876 29.347 237.876 30.0333V30.35C237.876 31.0495 238.034 31.6764 238.351 32.2307C238.681 32.7718 239.136 33.1941 239.717 33.4976C240.298 33.8012 240.964 33.953 241.717 33.953C242.337 33.953 242.898 33.8474 243.399 33.6362C243.914 33.4251 244.363 33.1083 244.745 32.686L245.795 33.9134C245.319 34.4677 244.726 34.89 244.013 35.1803C243.313 35.4707 242.528 35.6158 241.657 35.6158ZM252.116 35.6158C251.245 35.6158 250.413 35.4971 249.621 35.2595C248.843 35.022 248.229 34.7316 247.78 34.3885L248.572 32.884C249.021 33.1875 249.575 33.4449 250.235 33.656C250.895 33.8672 251.568 33.9728 252.254 33.9728C253.138 33.9728 253.772 33.8474 254.155 33.5966C254.551 33.3459 254.749 32.9961 254.749 32.5474C254.749 32.2175 254.63 31.9601 254.392 31.7754C254.155 31.5906 253.838 31.452 253.442 31.3596C253.059 31.2673 252.63 31.1881 252.155 31.1221C251.68 31.0429 251.205 30.9505 250.73 30.8449C250.255 30.7262 249.819 30.5678 249.423 30.3698C249.027 30.1587 248.711 29.8749 248.473 29.5186C248.236 29.149 248.117 28.6607 248.117 28.0536C248.117 27.4202 248.295 26.8659 248.651 26.3908C249.008 25.9156 249.509 25.5527 250.156 25.302C250.816 25.038 251.594 24.906 252.492 24.906C253.178 24.906 253.871 24.9918 254.57 25.1634C255.283 25.3218 255.864 25.5527 256.312 25.8563L255.501 27.3608C255.026 27.044 254.531 26.8263 254.016 26.7075C253.501 26.5887 252.987 26.5293 252.472 26.5293C251.641 26.5293 251.02 26.6679 250.611 26.9451C250.202 27.209 249.997 27.5521 249.997 27.9745C249.997 28.3308 250.116 28.6079 250.354 28.8059C250.605 28.9907 250.921 29.1358 251.304 29.2414C251.7 29.347 252.135 29.4394 252.611 29.5186C253.086 29.5846 253.561 29.6769 254.036 29.7957C254.511 29.9013 254.94 30.0531 255.323 30.251C255.719 30.449 256.035 30.7262 256.273 31.0825C256.524 31.4388 256.649 31.9139 256.649 32.5078C256.649 33.1413 256.464 33.689 256.095 34.1509C255.725 34.6128 255.204 34.9758 254.531 35.2397C253.858 35.4905 253.053 35.6158 252.116 35.6158ZM262.033 35.6158C261.162 35.6158 260.331 35.4971 259.539 35.2595C258.76 35.022 258.147 34.7316 257.698 34.3885L258.49 32.884C258.938 33.1875 259.493 33.4449 260.153 33.656C260.812 33.8672 261.485 33.9728 262.172 33.9728C263.056 33.9728 263.689 33.8474 264.072 33.5966C264.468 33.3459 264.666 32.9961 264.666 32.5474C264.666 32.2175 264.547 31.9601 264.31 31.7754C264.072 31.5906 263.755 31.452 263.36 31.3596C262.977 31.2673 262.548 31.1881 262.073 31.1221C261.598 31.0429 261.123 30.9505 260.647 30.8449C260.172 30.7262 259.737 30.5678 259.341 30.3698C258.945 30.1587 258.628 29.8749 258.391 29.5186C258.153 29.149 258.034 28.6607 258.034 28.0536C258.034 27.4202 258.212 26.8659 258.569 26.3908C258.925 25.9156 259.427 25.5527 260.073 25.302C260.733 25.038 261.512 24.906 262.409 24.906C263.096 24.906 263.788 24.9918 264.488 25.1634C265.201 25.3218 265.781 25.5527 266.23 25.8563L265.418 27.3608C264.943 27.044 264.448 26.8263 263.934 26.7075C263.419 26.5887 262.904 26.5293 262.39 26.5293C261.558 26.5293 260.938 26.6679 260.529 26.9451C260.12 27.209 259.915 27.5521 259.915 27.9745C259.915 28.3308 260.034 28.6079 260.271 28.8059C260.522 28.9907 260.839 29.1358 261.222 29.2414C261.617 29.347 262.053 29.4394 262.528 29.5186C263.003 29.5846 263.478 29.6769 263.953 29.7957C264.429 29.9013 264.857 30.0531 265.24 30.251C265.636 30.449 265.953 30.7262 266.19 31.0825C266.441 31.4388 266.567 31.9139 266.567 32.5078C266.567 33.1413 266.382 33.689 266.012 34.1509C265.643 34.6128 265.121 34.9758 264.448 35.2397C263.775 35.4905 262.97 35.6158 262.033 35.6158ZM278.574 35.6554C277.518 35.6554 276.508 35.4971 275.545 35.1803C274.581 34.8504 273.823 34.4281 273.268 33.9134L274.001 32.3692C274.529 32.8312 275.202 33.2139 276.02 33.5174C276.838 33.821 277.689 33.9728 278.574 33.9728C279.379 33.9728 280.032 33.8804 280.533 33.6956C281.035 33.5108 281.405 33.2601 281.642 32.9433C281.88 32.6134 281.998 32.2439 281.998 31.8347C281.998 31.3596 281.84 30.9769 281.523 30.6866C281.22 30.3962 280.817 30.1653 280.316 29.9937C279.827 29.8089 279.286 29.6506 278.692 29.5186C278.099 29.3866 277.498 29.2348 276.891 29.0633C276.297 28.8785 275.749 28.6475 275.248 28.3704C274.76 28.0932 274.364 27.7237 274.06 27.2618C273.757 26.7867 273.605 26.1796 273.605 25.4405C273.605 24.7279 273.79 24.0746 274.159 23.4807C274.542 22.8736 275.122 22.3919 275.901 22.0356C276.693 21.666 277.696 21.4813 278.91 21.4813C279.715 21.4813 280.514 21.5868 281.306 21.798C282.097 22.0092 282.784 22.3127 283.364 22.7086L282.711 24.2923C282.117 23.8964 281.49 23.6127 280.83 23.4411C280.171 23.2563 279.53 23.164 278.91 23.164C278.132 23.164 277.491 23.2629 276.99 23.4609C276.488 23.6589 276.119 23.9228 275.881 24.2528C275.657 24.5827 275.545 24.9522 275.545 25.3613C275.545 25.8497 275.697 26.239 276 26.5293C276.317 26.8197 276.719 27.0506 277.208 27.2222C277.709 27.3938 278.257 27.5521 278.851 27.6973C279.445 27.8293 280.039 27.9811 280.632 28.1526C281.24 28.3242 281.787 28.5486 282.276 28.8257C282.777 29.1029 283.18 29.4724 283.483 29.9343C283.787 30.3962 283.938 30.9901 283.938 31.716C283.938 32.4154 283.747 33.0687 283.364 33.6758C282.982 34.2697 282.388 34.7514 281.583 35.1209C280.791 35.4773 279.788 35.6554 278.574 35.6554ZM291.225 35.6158C290.104 35.6158 289.114 35.3849 288.256 34.923C287.411 34.4611 286.751 33.8276 286.276 33.0225C285.814 32.2175 285.583 31.2936 285.583 30.251C285.583 29.2084 285.808 28.2846 286.256 27.4796C286.718 26.6745 287.345 26.0476 288.137 25.5989C288.942 25.137 289.846 24.906 290.849 24.906C291.865 24.906 292.763 25.1304 293.542 25.5791C294.32 26.0278 294.927 26.6613 295.363 27.4796C295.811 28.2846 296.036 29.2282 296.036 30.3104C296.036 30.3896 296.029 30.482 296.016 30.5876C296.016 30.6932 296.009 30.7921 295.996 30.8845H287.068V29.5186H295.006L294.234 29.9937C294.248 29.3206 294.109 28.7201 293.819 28.1922C293.528 27.6643 293.126 27.2552 292.611 26.9649C292.11 26.6613 291.522 26.5095 290.849 26.5095C290.189 26.5095 289.602 26.6613 289.087 26.9649C288.573 27.2552 288.17 27.6709 287.88 28.212C287.589 28.7399 287.444 29.347 287.444 30.0333V30.35C287.444 31.0495 287.603 31.6764 287.919 32.2307C288.249 32.7718 288.705 33.1941 289.285 33.4976C289.866 33.8012 290.532 33.953 291.285 33.953C291.905 33.953 292.466 33.8474 292.967 33.6362C293.482 33.4251 293.931 33.1083 294.314 32.686L295.363 33.9134C294.888 34.4677 294.294 34.89 293.581 35.1803C292.882 35.4707 292.096 35.6158 291.225 35.6158ZM303.248 35.6158C302.179 35.6158 301.222 35.3849 300.377 34.923C299.546 34.4611 298.893 33.8276 298.417 33.0225C297.942 32.2175 297.705 31.2936 297.705 30.251C297.705 29.2084 297.942 28.2846 298.417 27.4796C298.893 26.6745 299.546 26.0476 300.377 25.5989C301.222 25.137 302.179 24.906 303.248 24.906C304.198 24.906 305.043 25.0974 305.782 25.4801C306.534 25.8497 307.115 26.404 307.524 27.143L306.079 28.0734C305.735 27.5587 305.313 27.1826 304.812 26.9451C304.323 26.6943 303.795 26.5689 303.228 26.5689C302.542 26.5689 301.928 26.7207 301.387 27.0242C300.846 27.3278 300.417 27.7567 300.1 28.311C299.783 28.8521 299.625 29.4988 299.625 30.251C299.625 31.0033 299.783 31.6566 300.1 32.2109C300.417 32.7652 300.846 33.1941 301.387 33.4976C301.928 33.8012 302.542 33.953 303.228 33.953C303.795 33.953 304.323 33.8342 304.812 33.5966C305.313 33.3459 305.735 32.9631 306.079 32.4484L307.524 33.3591C307.115 34.0849 306.534 34.6458 305.782 35.0418C305.043 35.4245 304.198 35.6158 303.248 35.6158ZM314.399 35.6158C313.501 35.6158 312.71 35.4509 312.023 35.1209C311.35 34.791 310.822 34.2895 310.44 33.6164C310.07 32.9301 309.885 32.0723 309.885 31.0429V25.005H311.786V30.8251C311.786 31.8545 312.03 32.6266 312.518 33.1413C313.02 33.656 313.719 33.9134 314.617 33.9134C315.276 33.9134 315.851 33.7814 316.339 33.5174C316.827 33.2403 317.203 32.8444 317.467 32.3297C317.731 31.8018 317.863 31.1683 317.863 30.4292V25.005H319.764V35.4971H317.962V32.6662L318.259 33.4185C317.916 34.1179 317.401 34.659 316.715 35.0418C316.029 35.4245 315.257 35.6158 314.399 35.6158ZM323.382 35.4971V25.005H325.203V27.8557L325.025 27.143C325.315 26.4172 325.803 25.8629 326.49 25.4801C327.176 25.0974 328.02 24.906 329.023 24.906V26.7471C328.944 26.7339 328.865 26.7273 328.786 26.7273C328.72 26.7273 328.654 26.7273 328.588 26.7273C327.572 26.7273 326.767 27.0308 326.173 27.6379C325.579 28.245 325.282 29.1227 325.282 30.2708V35.4971H323.382ZM331.366 35.4971V25.005H333.266V35.4971H331.366ZM332.316 22.9858C331.946 22.9858 331.636 22.867 331.386 22.6295C331.148 22.3919 331.029 22.1016 331.029 21.7584C331.029 21.4021 331.148 21.1051 331.386 20.8676C331.636 20.63 331.946 20.5112 332.316 20.5112C332.686 20.5112 332.989 20.63 333.227 20.8676C333.477 21.0919 333.603 21.3757 333.603 21.7188C333.603 22.0752 333.484 22.3787 333.246 22.6295C333.009 22.867 332.699 22.9858 332.316 22.9858ZM340.498 35.6158C339.442 35.6158 338.624 35.3321 338.043 34.7646C337.462 34.1971 337.172 33.3855 337.172 32.3297V22.7086H339.072V32.2505C339.072 32.818 339.211 33.2535 339.488 33.557C339.779 33.8606 340.188 34.0123 340.716 34.0123C341.309 34.0123 341.804 33.8474 342.2 33.5174L342.794 34.8834C342.504 35.1341 342.154 35.3189 341.745 35.4377C341.349 35.5565 340.933 35.6158 340.498 35.6158ZM335.39 26.5689V25.005H342.082V26.5689H335.39ZM345.354 39.4563C344.852 39.4563 344.364 39.3706 343.889 39.199C343.414 39.0406 343.005 38.8031 342.661 38.4863L343.473 37.061C343.737 37.3117 344.027 37.5031 344.344 37.6351C344.661 37.767 344.997 37.833 345.354 37.833C345.816 37.833 346.198 37.7143 346.502 37.4767C346.805 37.2391 347.089 36.8168 347.353 36.2097L348.006 34.7646L348.204 34.527L352.322 25.005H354.183L349.095 36.5463C348.792 37.2853 348.449 37.866 348.066 38.2884C347.696 38.7107 347.287 39.0076 346.838 39.1792C346.39 39.364 345.895 39.4563 345.354 39.4563ZM347.848 35.8336L343.057 25.005H345.037L349.115 34.3489L347.848 35.8336ZM365.589 35.6554C364.533 35.6554 363.523 35.4971 362.56 35.1803C361.596 34.8504 360.837 34.4281 360.283 33.9134L361.016 32.3692C361.544 32.8312 362.217 33.2139 363.035 33.5174C363.853 33.821 364.704 33.9728 365.589 33.9728C366.394 33.9728 367.047 33.8804 367.548 33.6956C368.05 33.5108 368.419 33.2601 368.657 32.9433C368.895 32.6134 369.013 32.2439 369.013 31.8347C369.013 31.3596 368.855 30.9769 368.538 30.6866C368.235 30.3962 367.832 30.1653 367.331 29.9937C366.842 29.8089 366.301 29.6506 365.707 29.5186C365.113 29.3866 364.513 29.2348 363.906 29.0633C363.312 28.8785 362.764 28.6475 362.263 28.3704C361.774 28.0932 361.379 27.7237 361.075 27.2618C360.771 26.7867 360.62 26.1796 360.62 25.4405C360.62 24.7279 360.804 24.0746 361.174 23.4807C361.557 22.8736 362.137 22.3919 362.916 22.0356C363.708 21.666 364.711 21.4813 365.925 21.4813C366.73 21.4813 367.529 21.5868 368.32 21.798C369.112 22.0092 369.799 22.3127 370.379 22.7086L369.726 24.2923C369.132 23.8964 368.505 23.6127 367.845 23.4411C367.185 23.2563 366.545 23.164 365.925 23.164C365.146 23.164 364.506 23.2629 364.005 23.4609C363.503 23.6589 363.134 23.9228 362.896 24.2528C362.672 24.5827 362.56 24.9522 362.56 25.3613C362.56 25.8497 362.711 26.239 363.015 26.5293C363.332 26.8197 363.734 27.0506 364.223 27.2222C364.724 27.3938 365.272 27.5521 365.866 27.6973C366.46 27.8293 367.053 27.9811 367.647 28.1526C368.254 28.3242 368.802 28.5486 369.29 28.8257C369.792 29.1029 370.195 29.4724 370.498 29.9343C370.802 30.3962 370.953 30.9901 370.953 31.716C370.953 32.4154 370.762 33.0687 370.379 33.6758C369.997 34.2697 369.403 34.7514 368.598 35.1209C367.806 35.4773 366.803 35.6554 365.589 35.6554ZM373.83 39.4563C373.329 39.4563 372.841 39.3706 372.365 39.199C371.89 39.0406 371.481 38.8031 371.138 38.4863L371.95 37.061C372.214 37.3117 372.504 37.5031 372.821 37.6351C373.137 37.767 373.474 37.833 373.83 37.833C374.292 37.833 374.675 37.7143 374.979 37.4767C375.282 37.2391 375.566 36.8168 375.83 36.2097L376.483 34.7646L376.681 34.527L380.799 25.005H382.659L377.572 36.5463C377.268 37.2853 376.925 37.866 376.542 38.2884C376.173 38.7107 375.764 39.0076 375.315 39.1792C374.866 39.364 374.371 39.4563 373.83 39.4563ZM376.325 35.8336L371.534 25.005H373.514L377.592 34.3489L376.325 35.8336ZM387.307 35.6158C386.436 35.6158 385.604 35.4971 384.813 35.2595C384.034 35.022 383.42 34.7316 382.971 34.3885L383.763 32.884C384.212 33.1875 384.766 33.4449 385.426 33.656C386.086 33.8672 386.759 33.9728 387.445 33.9728C388.33 33.9728 388.963 33.8474 389.346 33.5966C389.742 33.3459 389.94 32.9961 389.94 32.5474C389.94 32.2175 389.821 31.9601 389.583 31.7754C389.346 31.5906 389.029 31.452 388.633 31.3596C388.25 31.2673 387.822 31.1881 387.346 31.1221C386.871 31.0429 386.396 30.9505 385.921 30.8449C385.446 30.7262 385.01 30.5678 384.615 30.3698C384.219 30.1587 383.902 29.8749 383.664 29.5186C383.427 29.149 383.308 28.6607 383.308 28.0536C383.308 27.4202 383.486 26.8659 383.842 26.3908C384.199 25.9156 384.7 25.5527 385.347 25.302C386.007 25.038 386.786 24.906 387.683 24.906C388.369 24.906 389.062 24.9918 389.762 25.1634C390.474 25.3218 391.055 25.5527 391.504 25.8563L390.692 27.3608C390.217 27.044 389.722 26.8263 389.207 26.7075C388.693 26.5887 388.178 26.5293 387.663 26.5293C386.832 26.5293 386.211 26.6679 385.802 26.9451C385.393 27.209 385.189 27.5521 385.189 27.9745C385.189 28.3308 385.307 28.6079 385.545 28.8059C385.796 28.9907 386.112 29.1358 386.495 29.2414C386.891 29.347 387.327 29.4394 387.802 29.5186C388.277 29.5846 388.752 29.6769 389.227 29.7957C389.702 29.9013 390.131 30.0531 390.514 30.251C390.91 30.449 391.227 30.7262 391.464 31.0825C391.715 31.4388 391.84 31.9139 391.84 32.5078C391.84 33.1413 391.655 33.689 391.286 34.1509C390.916 34.6128 390.395 34.9758 389.722 35.2397C389.049 35.4905 388.244 35.6158 387.307 35.6158ZM397.818 35.6158C396.762 35.6158 395.944 35.3321 395.364 34.7646C394.783 34.1971 394.492 33.3855 394.492 32.3297V22.7086H396.393V32.2505C396.393 32.818 396.531 33.2535 396.809 33.557C397.099 33.8606 397.508 34.0123 398.036 34.0123C398.63 34.0123 399.125 33.8474 399.521 33.5174L400.115 34.8834C399.824 35.1341 399.475 35.3189 399.065 35.4377C398.669 35.5565 398.254 35.6158 397.818 35.6158ZM392.711 26.5689V25.005H399.402V26.5689H392.711ZM406.736 35.6158C405.614 35.6158 404.625 35.3849 403.767 34.923C402.922 34.4611 402.262 33.8276 401.787 33.0225C401.325 32.2175 401.094 31.2936 401.094 30.251C401.094 29.2084 401.319 28.2846 401.767 27.4796C402.229 26.6745 402.856 26.0476 403.648 25.5989C404.453 25.137 405.357 24.906 406.36 24.906C407.376 24.906 408.274 25.1304 409.052 25.5791C409.831 26.0278 410.438 26.6613 410.874 27.4796C411.322 28.2846 411.547 29.2282 411.547 30.3104C411.547 30.3896 411.54 30.482 411.527 30.5876C411.527 30.6932 411.52 30.7921 411.507 30.8845H402.579V29.5186H410.517L409.745 29.9937C409.758 29.3206 409.62 28.7201 409.33 28.1922C409.039 27.6643 408.637 27.2552 408.122 26.9649C407.62 26.6613 407.033 26.5095 406.36 26.5095C405.7 26.5095 405.113 26.6613 404.598 26.9649C404.083 27.2552 403.681 27.6709 403.391 28.212C403.1 28.7399 402.955 29.347 402.955 30.0333V30.35C402.955 31.0495 403.113 31.6764 403.43 32.2307C403.76 32.7718 404.215 33.1941 404.796 33.4976C405.377 33.8012 406.043 33.953 406.796 33.953C407.416 33.953 407.977 33.8474 408.478 33.6362C408.993 33.4251 409.442 33.1083 409.824 32.686L410.874 33.9134C410.399 34.4677 409.805 34.89 409.092 35.1803C408.392 35.4707 407.607 35.6158 406.736 35.6158ZM427.311 24.906C428.155 24.906 428.901 25.071 429.548 25.4009C430.194 25.7309 430.696 26.2324 431.052 26.9055C431.422 27.5785 431.606 28.4298 431.606 29.4592V35.4971H429.706V29.6769C429.706 28.6607 429.468 27.8953 428.993 27.3806C428.518 26.8659 427.852 26.6085 426.994 26.6085C426.36 26.6085 425.806 26.7405 425.331 27.0044C424.856 27.2684 424.486 27.6577 424.222 28.1724C423.972 28.6871 423.846 29.3272 423.846 30.0927V35.4971H421.946V29.6769C421.946 28.6607 421.708 27.8953 421.233 27.3806C420.771 26.8659 420.105 26.6085 419.234 26.6085C418.613 26.6085 418.066 26.7405 417.591 27.0044C417.115 27.2684 416.746 27.6577 416.482 28.1724C416.218 28.6871 416.086 29.3272 416.086 30.0927V35.4971H414.186V25.005H416.007V27.7963L415.71 27.0836C416.04 26.3974 416.548 25.8629 417.234 25.4801C417.921 25.0974 418.719 24.906 419.63 24.906C420.633 24.906 421.497 25.1568 422.223 25.6583C422.949 26.1466 423.424 26.8923 423.648 27.8953L422.876 27.5785C423.193 26.7735 423.747 26.1268 424.539 25.6385C425.331 25.1502 426.255 24.906 427.311 24.906ZM438.112 35.6158C437.241 35.6158 436.41 35.4971 435.618 35.2595C434.839 35.022 434.226 34.7316 433.777 34.3885L434.569 32.884C435.017 33.1875 435.572 33.4449 436.232 33.656C436.891 33.8672 437.565 33.9728 438.251 33.9728C439.135 33.9728 439.769 33.8474 440.151 33.5966C440.547 33.3459 440.745 32.9961 440.745 32.5474C440.745 32.2175 440.626 31.9601 440.389 31.7754C440.151 31.5906 439.835 31.452 439.439 31.3596C439.056 31.2673 438.627 31.1881 438.152 31.1221C437.677 31.0429 437.202 30.9505 436.727 30.8449C436.251 30.7262 435.816 30.5678 435.42 30.3698C435.024 30.1587 434.707 29.8749 434.47 29.5186C434.232 29.149 434.113 28.6607 434.113 28.0536C434.113 27.4202 434.292 26.8659 434.648 26.3908C435.004 25.9156 435.506 25.5527 436.152 25.302C436.812 25.038 437.591 24.906 438.488 24.906C439.175 24.906 439.868 24.9918 440.567 25.1634C441.28 25.3218 441.86 25.5527 442.309 25.8563L441.497 27.3608C441.022 27.044 440.527 26.8263 440.013 26.7075C439.498 26.5887 438.983 26.5293 438.469 26.5293C437.637 26.5293 437.017 26.6679 436.608 26.9451C436.199 27.209 435.994 27.5521 435.994 27.9745C435.994 28.3308 436.113 28.6079 436.35 28.8059C436.601 28.9907 436.918 29.1358 437.301 29.2414C437.697 29.347 438.132 29.4394 438.607 29.5186C439.082 29.5846 439.557 29.6769 440.033 29.7957C440.508 29.9013 440.937 30.0531 441.319 30.251C441.715 30.449 442.032 30.7262 442.269 31.0825C442.52 31.4388 442.646 31.9139 442.646 32.5078C442.646 33.1413 442.461 33.689 442.091 34.1509C441.722 34.6128 441.2 34.9758 440.527 35.2397C439.854 35.4905 439.049 35.6158 438.112 35.6158ZM450.614 35.4971V21.6396H456.019C457.233 21.6396 458.269 21.831 459.127 22.2137C459.985 22.5965 460.644 23.1508 461.106 23.8766C461.568 24.6025 461.799 25.4669 461.799 26.4699C461.799 27.473 461.568 28.3374 461.106 29.0633C460.644 29.7759 459.985 30.3302 459.127 30.7262C458.269 31.1089 457.233 31.3002 456.019 31.3002H451.703L452.594 30.3698V35.4971H450.614ZM452.594 30.5678L451.703 29.578H455.959C457.226 29.578 458.183 29.3074 458.83 28.7663C459.49 28.2252 459.82 27.4598 459.82 26.4699C459.82 25.4801 459.49 24.7147 458.83 24.1736C458.183 23.6325 457.226 23.3619 455.959 23.3619H451.703L452.594 22.3721V30.5678ZM467.24 35.4971L462.647 25.005H464.627L468.705 34.5073H467.755L471.912 25.005H473.773L469.18 35.4971H467.24ZM479.439 35.6158C478.384 35.6158 477.565 35.3321 476.985 34.7646C476.404 34.1971 476.114 33.3855 476.114 32.3297V22.7086H478.014V32.2505C478.014 32.818 478.153 33.2535 478.43 33.557C478.72 33.8606 479.129 34.0123 479.657 34.0123C480.251 34.0123 480.746 33.8474 481.142 33.5174L481.736 34.8834C481.445 35.1341 481.096 35.3189 480.687 35.4377C480.291 35.5565 479.875 35.6158 479.439 35.6158ZM474.332 26.5689V25.005H481.023V26.5689H474.332ZM484.682 35.6158C484.313 35.6158 483.996 35.4905 483.732 35.2397C483.468 34.9758 483.336 34.6458 483.336 34.2499C483.336 33.854 483.468 33.5306 483.732 33.2799C483.996 33.0291 484.313 32.9038 484.682 32.9038C485.038 32.9038 485.342 33.0291 485.593 33.2799C485.857 33.5306 485.989 33.854 485.989 34.2499C485.989 34.6458 485.857 34.9758 485.593 35.2397C485.342 35.4905 485.038 35.6158 484.682 35.6158ZM494.305 35.4971V21.6396H496.285V33.7748H503.788V35.4971H494.305ZM509.289 35.6158C508.233 35.6158 507.415 35.3321 506.834 34.7646C506.253 34.1971 505.963 33.3855 505.963 32.3297V22.7086H507.863V32.2505C507.863 32.818 508.002 33.2535 508.279 33.557C508.569 33.8606 508.978 34.0123 509.506 34.0123C510.1 34.0123 510.595 33.8474 510.991 33.5174L511.585 34.8834C511.295 35.1341 510.945 35.3189 510.536 35.4377C510.14 35.5565 509.724 35.6158 509.289 35.6158ZM504.181 26.5689V25.005H510.872V26.5689H504.181ZM517.87 35.6158C516.854 35.6158 515.943 35.3915 515.138 34.9428C514.346 34.4941 513.719 33.8672 513.257 33.0621C512.796 32.2571 512.565 31.32 512.565 30.251C512.565 29.182 512.796 28.2516 513.257 27.4598C513.719 26.6547 514.346 26.0278 515.138 25.5791C515.943 25.1304 516.854 24.906 517.87 24.906C518.754 24.906 519.553 25.104 520.265 25.4999C520.978 25.8958 521.546 26.4897 521.968 27.2816C522.403 28.0734 522.621 29.0633 522.621 30.251C522.621 31.4388 522.41 32.4286 521.988 33.2205C521.579 34.0123 521.018 34.6128 520.305 35.022C519.592 35.4179 518.781 35.6158 517.87 35.6158ZM518.028 33.953C518.688 33.953 519.282 33.8012 519.81 33.4976C520.351 33.1941 520.773 32.7652 521.077 32.2109C521.394 31.6434 521.552 30.9901 521.552 30.251C521.552 29.4988 521.394 28.8521 521.077 28.311C520.773 27.7567 520.351 27.3278 519.81 27.0242C519.282 26.7207 518.688 26.5689 518.028 26.5689C517.355 26.5689 516.755 26.7207 516.227 27.0242C515.699 27.3278 515.277 27.7567 514.96 28.311C514.643 28.8521 514.485 29.4988 514.485 30.251C514.485 30.9901 514.643 31.6434 514.96 32.2109C515.277 32.7652 515.699 33.1941 516.227 33.4976C516.755 33.8012 517.355 33.953 518.028 33.953ZM521.612 35.4971V32.6662L521.73 30.2312L521.532 27.7963V20.8082H523.433V35.4971H521.612Z" fill="white"/>
</svg>
