<svg width="273" height="198" viewBox="0 0 273 198" fill="none" xmlns="http://www.w3.org/2000/svg">
<rect width="60" height="273" transform="matrix(0 1 -1 0 273 0)" fill="white" fill-opacity="0.4"/>
<path d="M86.7418 39V17.16H99.7468V19.38H89.3218V26.7H99.1768V28.92H89.3218V36.78H100.497V39H86.7418ZM119.314 39.285C118.224 39.445 117.394 39.385 116.824 39.105C116.254 38.825 115.864 38.325 115.654 37.605C115.444 36.875 115.339 35.92 115.339 34.74V30.57C115.339 28.75 115.089 27.435 114.589 26.625C114.089 25.805 113.259 25.395 112.099 25.395C111.379 25.395 110.644 25.575 109.894 25.935C109.154 26.285 108.519 26.84 107.989 27.6C107.469 28.35 107.169 29.325 107.089 30.525V39H104.629V28.515C104.629 27.645 104.479 26.885 104.179 26.235C103.879 25.585 103.554 24.97 103.204 24.39L105.679 23.61C105.949 24.02 106.194 24.44 106.414 24.87C106.644 25.29 106.794 25.745 106.864 26.235C107.314 25.345 108.079 24.63 109.159 24.09C110.249 23.55 111.404 23.28 112.624 23.28C114.364 23.28 115.664 23.855 116.524 25.005C117.384 26.145 117.814 27.985 117.814 30.525V34.2C117.814 34.96 117.829 35.585 117.859 36.075C117.889 36.565 118.024 36.91 118.264 37.11C118.504 37.3 118.934 37.335 119.554 37.215L119.314 39.285ZM128.54 46.41C127.78 46.41 126.94 46.325 126.02 46.155C125.1 45.995 124.26 45.775 123.5 45.495L123.785 43.2C124.475 43.54 125.235 43.815 126.065 44.025C126.905 44.245 127.66 44.355 128.33 44.355C129.9 44.355 131.16 43.925 132.11 43.065C133.07 42.205 133.55 41.07 133.55 39.66V37.005C132.99 37.705 132.235 38.27 131.285 38.7C130.335 39.12 129.325 39.33 128.255 39.33C127.005 39.33 125.91 39.045 124.97 38.475C124.04 37.895 123.315 37.09 122.795 36.06C122.275 35.02 122.015 33.81 122.015 32.43C122.015 30.6 122.375 29 123.095 27.63C123.815 26.26 124.82 25.195 126.11 24.435C127.41 23.665 128.925 23.28 130.655 23.28C131.665 23.28 132.66 23.4 133.64 23.64C134.62 23.87 135.41 24.18 136.01 24.57V39.345C136.01 40.755 135.7 41.99 135.08 43.05C134.46 44.11 133.59 44.935 132.47 45.525C131.35 46.115 130.04 46.41 128.54 46.41ZM128.63 37.26C129.62 37.26 130.48 37.04 131.21 36.6C131.95 36.15 132.525 35.545 132.935 34.785C133.345 34.025 133.55 33.165 133.55 32.205V25.92C133.24 25.76 132.815 25.635 132.275 25.545C131.735 25.445 131.18 25.395 130.61 25.395C129.4 25.395 128.34 25.685 127.43 26.265C126.53 26.835 125.825 27.635 125.315 28.665C124.815 29.695 124.565 30.9 124.565 32.28C124.565 33.77 124.935 34.975 125.675 35.895C126.425 36.805 127.41 37.26 128.63 37.26ZM148.604 38.475C147.594 38.915 146.594 39.17 145.604 39.24C144.624 39.32 143.734 39.205 142.934 38.895C142.144 38.575 141.509 38.055 141.029 37.335C140.559 36.605 140.324 35.66 140.324 34.5V16.56L142.784 16.11V34.62C142.784 35.66 143.054 36.39 143.594 36.81C144.134 37.23 144.819 37.415 145.649 37.365C146.489 37.305 147.349 37.09 148.229 36.72L148.604 38.475ZM154.597 39.075C153.887 39.075 153.227 38.94 152.617 38.67C152.007 38.4 151.517 37.955 151.147 37.335C150.777 36.715 150.592 35.88 150.592 34.83V23.61H153.067V34.755C153.067 35.805 153.252 36.48 153.622 36.78C153.992 37.08 154.432 37.23 154.942 37.23C155.172 37.23 155.472 37.2 155.842 37.14C156.212 37.07 156.527 36.985 156.787 36.885L157.087 38.55C156.717 38.7 156.297 38.825 155.827 38.925C155.357 39.025 154.947 39.075 154.597 39.075ZM150.547 20.43V17.745H153.187V20.43H150.547ZM164.041 39.33C162.881 39.33 161.841 39.175 160.921 38.865C160.001 38.555 159.261 38.245 158.701 37.935L159.451 35.82C160.031 36.26 160.721 36.61 161.521 36.87C162.331 37.13 163.111 37.26 163.861 37.26C164.691 37.26 165.396 37.095 165.976 36.765C166.566 36.425 166.861 35.87 166.861 35.1C166.861 34.57 166.661 34.125 166.261 33.765C165.871 33.395 165.366 33.065 164.746 32.775C164.126 32.485 163.466 32.19 162.766 31.89C162.076 31.59 161.421 31.25 160.801 30.87C160.181 30.48 159.681 30.01 159.301 29.46C158.921 28.91 158.736 28.235 158.746 27.435C158.766 26.155 159.236 25.145 160.156 24.405C161.076 23.655 162.306 23.28 163.846 23.28C164.826 23.28 165.721 23.4 166.531 23.64C167.351 23.88 168.076 24.165 168.706 24.495L168.046 26.52C167.416 26.18 166.741 25.91 166.021 25.71C165.311 25.5 164.636 25.395 163.996 25.395C163.126 25.395 162.436 25.57 161.926 25.92C161.426 26.26 161.176 26.74 161.176 27.36C161.176 27.83 161.371 28.235 161.761 28.575C162.161 28.915 162.671 29.23 163.291 29.52C163.911 29.8 164.566 30.09 165.256 30.39C165.956 30.69 166.611 31.04 167.221 31.44C167.841 31.83 168.341 32.3 168.721 32.85C169.101 33.4 169.281 34.075 169.261 34.875C169.231 36.195 168.746 37.27 167.806 38.1C166.876 38.92 165.621 39.33 164.041 39.33ZM187.508 39.285C186.418 39.445 185.588 39.385 185.018 39.105C184.448 38.825 184.058 38.325 183.848 37.605C183.638 36.875 183.533 35.92 183.533 34.74V30.57C183.533 28.75 183.283 27.435 182.783 26.625C182.283 25.805 181.453 25.395 180.293 25.395C179.533 25.395 178.763 25.59 177.983 25.98C177.213 26.37 176.568 26.98 176.048 27.81C175.528 28.63 175.268 29.7 175.268 31.02V39H172.808V16.41L175.268 16.11V25.875C175.778 25.095 176.543 24.47 177.563 24C178.593 23.52 179.678 23.28 180.818 23.28C182.558 23.28 183.858 23.855 184.718 25.005C185.578 26.145 186.008 27.985 186.008 30.525V34.2C186.008 34.96 186.023 35.585 186.053 36.075C186.083 36.565 186.218 36.91 186.458 37.11C186.698 37.3 187.128 37.335 187.748 37.215L187.508 39.285Z" fill="white"/>
<rect width="60" height="273" transform="matrix(0 1 -1 0 273 69)" fill="white" fill-opacity="0.4"/>
<path d="M100.365 108V86.16H102.945V95.67H114.975V86.16H117.54V108H114.975V97.89H102.945V108H100.365ZM126.648 108.075C125.938 108.075 125.278 107.94 124.668 107.67C124.058 107.4 123.568 106.955 123.198 106.335C122.828 105.715 122.643 104.88 122.643 103.83V92.61H125.118V103.755C125.118 104.805 125.303 105.48 125.673 105.78C126.043 106.08 126.483 106.23 126.993 106.23C127.223 106.23 127.523 106.2 127.893 106.14C128.263 106.07 128.578 105.985 128.838 105.885L129.138 107.55C128.768 107.7 128.348 107.825 127.878 107.925C127.408 108.025 126.998 108.075 126.648 108.075ZM122.598 89.43V86.745H125.238V89.43H122.598ZM146.502 108.285C145.412 108.445 144.582 108.385 144.012 108.105C143.442 107.825 143.052 107.325 142.842 106.605C142.632 105.875 142.527 104.92 142.527 103.74V99.57C142.527 97.75 142.277 96.435 141.777 95.625C141.277 94.805 140.447 94.395 139.287 94.395C138.567 94.395 137.832 94.575 137.082 94.935C136.342 95.285 135.707 95.84 135.177 96.6C134.657 97.35 134.357 98.325 134.277 99.525V108H131.817V97.515C131.817 96.645 131.667 95.885 131.367 95.235C131.067 94.585 130.742 93.97 130.392 93.39L132.867 92.61C133.137 93.02 133.382 93.44 133.602 93.87C133.832 94.29 133.982 94.745 134.052 95.235C134.502 94.345 135.267 93.63 136.347 93.09C137.437 92.55 138.592 92.28 139.812 92.28C141.552 92.28 142.852 92.855 143.712 94.005C144.572 95.145 145.002 96.985 145.002 99.525V103.2C145.002 103.96 145.017 104.585 145.047 105.075C145.077 105.565 145.212 105.91 145.452 106.11C145.692 106.3 146.122 106.335 146.742 106.215L146.502 108.285ZM156.268 108.33C154.858 108.33 153.623 108.005 152.563 107.355C151.503 106.705 150.678 105.79 150.088 104.61C149.498 103.43 149.203 102.055 149.203 100.485C149.203 98.935 149.468 97.545 149.998 96.315C150.538 95.075 151.333 94.095 152.383 93.375C153.433 92.645 154.728 92.28 156.268 92.28C157.258 92.28 158.163 92.43 158.983 92.73C159.803 93.03 160.623 93.535 161.443 94.245V85.41L163.918 85.11V102.15C163.918 103.29 163.978 104.22 164.098 104.94C164.228 105.65 164.393 106.23 164.593 106.68C164.803 107.13 165.018 107.52 165.238 107.85L162.808 108.195C162.528 107.855 162.268 107.42 162.028 106.89C161.798 106.35 161.668 105.835 161.638 105.345C161.188 106.285 160.483 107.02 159.523 107.55C158.563 108.07 157.478 108.33 156.268 108.33ZM156.538 106.26C157.738 106.26 158.698 105.985 159.418 105.435C160.138 104.885 160.658 104.14 160.978 103.2C161.298 102.25 161.458 101.18 161.458 99.99V96.84C160.898 96.09 160.173 95.495 159.283 95.055C158.403 94.615 157.518 94.395 156.628 94.395C155.498 94.395 154.573 94.66 153.853 95.19C153.133 95.72 152.603 96.44 152.263 97.35C151.923 98.25 151.753 99.265 151.753 100.395C151.753 101.555 151.953 102.58 152.353 103.47C152.763 104.35 153.328 105.035 154.048 105.525C154.768 106.015 155.598 106.26 156.538 106.26ZM172.761 108.075C172.051 108.075 171.391 107.94 170.781 107.67C170.171 107.4 169.681 106.955 169.311 106.335C168.941 105.715 168.756 104.88 168.756 103.83V92.61H171.231V103.755C171.231 104.805 171.416 105.48 171.786 105.78C172.156 106.08 172.596 106.23 173.106 106.23C173.336 106.23 173.636 106.2 174.006 106.14C174.376 106.07 174.691 105.985 174.951 105.885L175.251 107.55C174.881 107.7 174.461 107.825 173.991 107.925C173.521 108.025 173.111 108.075 172.761 108.075ZM168.711 89.43V86.745H171.351V89.43H168.711Z" fill="white"/>
<rect width="60" height="273" transform="matrix(0 1 -1 0 273 138)" fill="white" fill-opacity="0.4"/>
<path d="M80.61 177V155.16H84.18L91.305 169.11L92.595 172.17L93.87 169.065L101.04 155.16H104.55V177H102.03V158.235L101.01 160.56L93.51 175.35H91.62L84.06 160.38L83.16 157.98V177H80.61ZM114.74 177.33C113.49 177.33 112.395 177.045 111.455 176.475C110.525 175.895 109.8 175.09 109.28 174.06C108.76 173.02 108.5 171.81 108.5 170.43C108.5 168.6 108.86 167 109.58 165.63C110.3 164.26 111.305 163.195 112.595 162.435C113.895 161.665 115.41 161.28 117.14 161.28C118.15 161.28 119.145 161.4 120.125 161.64C121.105 161.87 121.895 162.18 122.495 162.57V172.71C122.495 173.37 122.665 173.905 123.005 174.315C123.355 174.715 123.81 174.915 124.37 174.915L123.86 177.06C122.99 177.06 122.235 176.825 121.595 176.355C120.955 175.885 120.55 175.27 120.38 174.51C119.87 175.36 119.1 176.045 118.07 176.565C117.04 177.075 115.93 177.33 114.74 177.33ZM115.115 175.26C116.105 175.26 116.965 175.04 117.695 174.6C118.435 174.15 119.01 173.545 119.42 172.785C119.83 172.025 120.035 171.165 120.035 170.205V163.92C119.725 163.76 119.3 163.635 118.76 163.545C118.22 163.445 117.665 163.395 117.095 163.395C115.885 163.395 114.825 163.685 113.915 164.265C113.015 164.835 112.31 165.635 111.8 166.665C111.3 167.695 111.05 168.9 111.05 170.28C111.05 171.77 111.42 172.975 112.16 173.895C112.91 174.805 113.895 175.26 115.115 175.26ZM128.002 177V166.515C128.002 165.645 127.852 164.885 127.552 164.235C127.252 163.585 126.927 162.97 126.577 162.39L129.052 161.61C129.322 162.02 129.567 162.435 129.787 162.855C130.007 163.265 130.157 163.71 130.237 164.19C130.637 163.38 131.222 162.695 131.992 162.135C132.772 161.565 133.637 161.28 134.587 161.28C135.207 161.28 135.677 161.31 135.997 161.37C136.327 161.43 136.627 161.5 136.897 161.58L136.687 163.755C136.557 163.705 136.322 163.635 135.982 163.545C135.642 163.445 135.152 163.395 134.512 163.395C133.422 163.395 132.472 163.805 131.662 164.625C130.862 165.435 130.462 166.72 130.462 168.48V177H128.002ZM144.594 177.33C143.344 177.33 142.249 177.045 141.309 176.475C140.379 175.895 139.654 175.09 139.134 174.06C138.614 173.02 138.354 171.81 138.354 170.43C138.354 168.6 138.714 167 139.434 165.63C140.154 164.26 141.159 163.195 142.449 162.435C143.749 161.665 145.264 161.28 146.994 161.28C148.004 161.28 148.999 161.4 149.979 161.64C150.959 161.87 151.749 162.18 152.349 162.57V172.71C152.349 173.37 152.519 173.905 152.859 174.315C153.209 174.715 153.664 174.915 154.224 174.915L153.714 177.06C152.844 177.06 152.089 176.825 151.449 176.355C150.809 175.885 150.404 175.27 150.234 174.51C149.724 175.36 148.954 176.045 147.924 176.565C146.894 177.075 145.784 177.33 144.594 177.33ZM144.969 175.26C145.959 175.26 146.819 175.04 147.549 174.6C148.289 174.15 148.864 173.545 149.274 172.785C149.684 172.025 149.889 171.165 149.889 170.205V163.92C149.579 163.76 149.154 163.635 148.614 163.545C148.074 163.445 147.519 163.395 146.949 163.395C145.739 163.395 144.679 163.685 143.769 164.265C142.869 164.835 142.164 165.635 141.654 166.665C141.154 167.695 140.904 168.9 140.904 170.28C140.904 171.77 141.274 172.975 142.014 173.895C142.764 174.805 143.749 175.26 144.969 175.26ZM163.48 177.12C161.74 177.12 160.475 176.755 159.685 176.025C158.895 175.295 158.5 174.12 158.5 172.5V163.215H155.455V161.61H158.575V157.53L160.96 156.825V161.61H166.015V163.215H160.96V172.53C160.96 173.47 161.185 174.155 161.635 174.585C162.085 175.005 162.795 175.215 163.765 175.215C163.995 175.215 164.29 175.185 164.65 175.125C165.02 175.065 165.39 174.99 165.76 174.9C166.13 174.81 166.43 174.72 166.66 174.63L166.945 176.475C166.475 176.635 165.885 176.785 165.175 176.925C164.475 177.055 163.91 177.12 163.48 177.12ZM184.365 177.285C183.275 177.445 182.445 177.385 181.875 177.105C181.305 176.825 180.915 176.325 180.705 175.605C180.495 174.875 180.39 173.92 180.39 172.74V168.57C180.39 166.75 180.14 165.435 179.64 164.625C179.14 163.805 178.31 163.395 177.15 163.395C176.39 163.395 175.62 163.59 174.84 163.98C174.07 164.37 173.425 164.98 172.905 165.81C172.385 166.63 172.125 167.7 172.125 169.02V177H169.665V154.41L172.125 154.11V163.875C172.635 163.095 173.4 162.47 174.42 162C175.45 161.52 176.535 161.28 177.675 161.28C179.415 161.28 180.715 161.855 181.575 163.005C182.435 164.145 182.865 165.985 182.865 168.525V172.2C182.865 172.96 182.88 173.585 182.91 174.075C182.94 174.565 183.075 174.91 183.315 175.11C183.555 175.3 183.985 175.335 184.605 175.215L184.365 177.285ZM192.235 177.075C191.525 177.075 190.865 176.94 190.255 176.67C189.645 176.4 189.155 175.955 188.785 175.335C188.415 174.715 188.23 173.88 188.23 172.83V161.61H190.705V172.755C190.705 173.805 190.89 174.48 191.26 174.78C191.63 175.08 192.07 175.23 192.58 175.23C192.81 175.23 193.11 175.2 193.48 175.14C193.85 175.07 194.165 174.985 194.425 174.885L194.725 176.55C194.355 176.7 193.935 176.825 193.465 176.925C192.995 177.025 192.585 177.075 192.235 177.075ZM188.185 158.43V155.745H190.825V158.43H188.185Z" fill="white"/>
</svg>
