<svg width="533" height="128" viewBox="0 0 533 128" fill="none" xmlns="http://www.w3.org/2000/svg">
<foreignObject x="-22.2041" y="-22.2041" width="577.307" height="172.408"><div xmlns="http://www.w3.org/1999/xhtml" style="backdrop-filter:blur(11.1px);clip-path:url(#bgblur_0_1140_1293_clip_path);height:100%;width:100%"></div></foreignObject><g data-figma-bg-blur-radius="22.2041">
<rect x="0.653061" y="0.653061" width="531.592" height="126.694" rx="12.4082" fill="#EA4D4E" fill-opacity="0.45"/>
<rect x="0.653061" y="0.653061" width="531.592" height="126.694" rx="12.4082" stroke="url(#paint0_linear_1140_1293)" stroke-width="1.30612"/>
<path d="M190.652 63.6534C195.16 63.6534 198.815 59.9986 198.815 55.4902C198.815 50.9817 195.16 47.3269 190.652 47.3269C186.143 47.3269 182.488 50.9817 182.488 55.4902C182.488 59.9986 186.143 63.6534 190.652 63.6534Z" fill="white"/>
<path fill-rule="evenodd" clip-rule="evenodd" d="M205.488 74.2883C205.561 74.4253 205.582 74.5839 205.549 74.7355C205.516 74.8871 205.429 75.0218 205.306 75.1155C201.078 78.2813 195.937 79.9887 190.655 79.9808C185.374 79.9887 180.232 78.2813 176.005 75.1155C175.881 75.0218 175.795 74.8871 175.761 74.7355C175.728 74.5839 175.75 74.4253 175.823 74.2883C178.408 69.6189 184.076 66.3754 190.655 66.3754C197.235 66.3754 202.903 69.6162 205.488 74.2883Z" fill="white" fill-opacity="0.25"/>
<path d="M205.617 40.5247H206.161C211.035 40.5247 213.473 40.5247 214.989 42.0376C216.501 43.5532 216.501 45.9913 216.501 50.8648V51.409M205.617 86.7832H206.161C211.035 86.7832 213.473 86.7832 214.989 85.2702C216.501 83.7546 216.501 81.3165 216.501 76.443V75.8988M175.685 40.5247H175.141C170.267 40.5247 167.829 40.5247 166.316 42.0376C164.801 43.556 164.801 45.994 164.801 50.8648V51.409M175.685 86.7832H175.141C170.267 86.7832 167.829 86.7832 166.316 85.2702C164.801 83.7546 164.801 81.3138 164.801 76.443V75.8988" stroke="white" stroke-width="0.653061" stroke-linecap="round"/>
<path d="M248.105 79.2131C244.105 75.2931 240.865 71.2531 239.425 68.6131C238.665 67.2531 238.305 66.0531 238.305 65.0531C238.305 63.6531 239.105 62.8931 240.465 62.8931C241.625 62.8931 242.705 63.6131 243.745 64.8131C245.185 63.8131 245.665 62.0131 245.665 60.2531C245.665 58.7731 245.345 57.4531 244.985 56.6131H236.625V53.7731H256.465V56.6131H248.265C248.705 57.7731 248.905 59.0531 248.905 60.6531C248.905 62.4931 248.465 64.0531 247.545 65.3731C249.225 65.9731 250.825 66.2131 252.545 66.2131C253.905 66.2131 255.105 66.0931 256.545 65.8531L256.625 68.6931C255.265 69.0131 254.105 69.0931 252.545 69.0931C250.465 69.0931 247.825 68.6131 245.625 67.4131C244.825 67.9731 243.825 68.4931 242.705 68.8531C244.625 71.4531 247.345 74.0931 250.545 77.0531L248.105 79.2131ZM283.492 56.6131H270.492V64.3331C271.612 63.3331 273.212 62.6531 275.172 62.6531C278.972 62.6531 281.212 65.0931 281.212 69.0531C281.212 71.8531 280.212 74.3731 277.852 76.9731L275.052 75.2131C276.812 73.4131 278.012 71.4531 278.012 69.0131C278.012 66.6931 276.852 65.4531 274.812 65.4531C273.132 65.4531 271.492 66.6131 270.492 68.4131V78.6531H267.252V71.8531C265.812 73.1331 263.892 73.9331 261.492 73.9331C257.412 73.9331 254.012 71.6131 254.012 67.0131C254.012 62.6531 257.052 60.0931 262.252 60.0931C263.612 60.0931 264.852 60.2531 265.852 60.4931L265.572 63.4131C264.652 63.1731 263.532 63.0131 262.332 63.0131C259.052 63.0131 257.252 64.4531 257.252 67.1331C257.252 69.7731 259.092 71.0531 261.492 71.0531C263.932 71.0531 266.052 69.6931 267.252 67.9731V56.6131H252.172V53.7731H283.492V56.6131ZM276.355 44.7331C275.395 49.7331 272.715 51.4531 268.835 51.4531C264.955 51.4531 262.275 49.7331 261.315 44.7331L264.235 43.8531C264.915 47.5731 266.395 48.6931 268.835 48.6931C271.275 48.6931 272.755 47.5731 273.435 43.8531L276.355 44.7331ZM282.875 53.7731H305.635V56.6131H301.515V78.6531H298.275V66.7331H291.035V68.8931C291.035 70.3731 290.235 71.1331 288.995 71.1331C287.035 71.1331 284.355 68.1731 284.355 65.9331C284.355 64.7331 284.995 63.8931 286.795 63.8931H298.275V56.6131H282.875V53.7731ZM347.008 56.6131H334.008V64.3331C335.128 63.3331 336.728 62.6531 338.688 62.6531C342.488 62.6531 344.728 65.0931 344.728 69.0531C344.728 71.8531 343.728 74.3731 341.368 76.9731L338.568 75.2131C340.328 73.4131 341.528 71.4531 341.528 69.0131C341.528 66.6931 340.368 65.4531 338.328 65.4531C336.648 65.4531 335.008 66.6131 334.008 68.4131V78.6531H330.768V71.8531C329.328 73.1331 327.408 73.9331 325.008 73.9331C320.928 73.9331 317.528 71.6131 317.528 67.0131C317.528 62.6531 320.568 60.0931 325.768 60.0931C327.128 60.0931 328.368 60.2531 329.368 60.4931L329.088 63.4131C328.168 63.1731 327.048 63.0131 325.848 63.0131C322.568 63.0131 320.768 64.4531 320.768 67.1331C320.768 69.7731 322.608 71.0531 325.008 71.0531C327.447 71.0531 329.568 69.6931 330.768 67.9731V56.6131H315.688V53.7731H347.008V56.6131ZM361.471 76.9731L359.151 79.1331C354.951 75.3331 351.991 72.2531 349.911 69.2931C348.591 67.4131 348.071 66.1331 348.071 64.9331C348.071 63.6931 348.831 62.8931 350.191 62.8931C351.351 62.8931 352.431 63.5731 353.471 64.7731C355.671 63.7331 356.631 62.0931 356.631 59.9331C356.631 58.7331 356.351 57.4131 355.951 56.6131H346.391V53.7731H363.351V56.6131H359.271C359.671 57.7331 359.831 58.8931 359.831 60.3331C359.831 64.6531 357.071 66.9731 352.951 68.7331C355.151 71.3331 358.311 74.2931 361.471 76.9731ZM369.558 56.6131V78.6531H366.318V56.6131H362.758V53.7731H373.678V56.6131H369.558Z" fill="white"/>
</g>
<defs>
<clipPath id="bgblur_0_1140_1293_clip_path" transform="translate(22.2041 22.2041)"><rect x="0.653061" y="0.653061" width="531.592" height="126.694" rx="12.4082"/>
</clipPath><linearGradient id="paint0_linear_1140_1293" x1="532.898" y1="64" x2="0" y2="64" gradientUnits="userSpaceOnUse">
<stop stop-color="#9C9C9C" stop-opacity="0"/>
<stop offset="0.456731" stop-color="#FF8D8D"/>
<stop offset="1" stop-color="#9C9C9C" stop-opacity="0"/>
</linearGradient>
</defs>
</svg>
