<svg width="408" height="98" viewBox="0 0 408 98" fill="none" xmlns="http://www.w3.org/2000/svg">
<foreignObject x="-17" y="-17" width="442" height="132"><div xmlns="http://www.w3.org/1999/xhtml" style="backdrop-filter:blur(8.5px);clip-path:url(#bgblur_0_487_7908_clip_path);height:100%;width:100%"></div></foreignObject><g data-figma-bg-blur-radius="17">
<rect x="0.5" y="0.5" width="407" height="97" rx="9.5" fill="#EA4D4E" fill-opacity="0.45"/>
<rect x="0.5" y="0.5" width="407" height="97" rx="9.5" stroke="url(#paint0_linear_487_7908)"/>
<path d="M79 49.002C82.4518 49.002 85.25 46.2037 85.25 42.752C85.25 39.3002 82.4518 36.502 79 36.502C75.5482 36.502 72.75 39.3002 72.75 42.752C72.75 46.2037 75.5482 49.002 79 49.002Z" fill="white"/>
<path fill-rule="evenodd" clip-rule="evenodd" d="M90.357 57.1423C90.4128 57.2472 90.4294 57.3686 90.4038 57.4847C90.3782 57.6007 90.3121 57.7039 90.2174 57.7757C86.9807 60.1994 83.0444 61.5067 79.0007 61.5007C74.9571 61.5067 71.0208 60.1994 67.7841 57.7757C67.6893 57.7039 67.6232 57.6007 67.5977 57.4847C67.5721 57.3686 67.5887 57.2472 67.6445 57.1423C69.6236 53.5673 73.9632 51.084 79.0007 51.084C84.0382 51.084 88.3778 53.5652 90.357 57.1423Z" fill="white" fill-opacity="0.25"/>
<path d="M90.457 31.293H90.8737C94.6049 31.293 96.4716 31.293 97.632 32.4513C98.7904 33.6117 98.7904 35.4784 98.7904 39.2096V39.6263M90.457 66.7096H90.8737C94.6049 66.7096 96.4716 66.7096 97.632 65.5513C98.7904 64.3909 98.7904 62.5242 98.7904 58.793V58.3763M67.5404 31.293H67.1237C63.3924 31.293 61.5258 31.293 60.3674 32.4513C59.207 33.6138 59.207 35.4805 59.207 39.2096V39.6263M67.5404 66.7096H67.1237C63.3924 66.7096 61.5258 66.7096 60.3674 65.5513C59.207 64.3909 59.207 62.5221 59.207 58.793V58.3763" stroke="white" stroke-width="0.5" stroke-linecap="round"/>
<path d="M116.83 60V38.16H122.17C123.43 38.16 124.63 38.225 125.77 38.355C126.92 38.485 127.94 38.745 128.83 39.135C129.73 39.525 130.44 40.1 130.96 40.86C131.48 41.62 131.74 42.63 131.74 43.89C131.74 44.92 131.525 45.8 131.095 46.53C130.665 47.25 130.095 47.835 129.385 48.285C128.685 48.725 127.92 49.055 127.09 49.275C127.77 49.495 128.32 49.84 128.74 50.31C129.16 50.77 129.51 51.305 129.79 51.915C130.07 52.525 130.345 53.17 130.615 53.85L133.06 60H130.24L127.945 53.715C127.685 52.985 127.395 52.36 127.075 51.84C126.755 51.32 126.315 50.92 125.755 50.64C125.205 50.36 124.44 50.22 123.46 50.22H119.41V60H116.83ZM119.41 48.015H123.4C124.39 48.015 125.31 47.9 126.16 47.67C127.01 47.43 127.695 47.03 128.215 46.47C128.745 45.9 129.01 45.12 129.01 44.13C129.01 43.11 128.765 42.33 128.275 41.79C127.795 41.25 127.145 40.88 126.325 40.68C125.505 40.48 124.585 40.38 123.565 40.38H119.41V48.015ZM143.163 60.33C141.643 60.33 140.283 60 139.083 59.34C137.893 58.68 136.953 57.745 136.263 56.535C135.573 55.325 135.228 53.9 135.228 52.26C135.228 50.85 135.533 49.54 136.143 48.33C136.763 47.12 137.653 46.145 138.813 45.405C139.983 44.655 141.388 44.28 143.028 44.28C144.108 44.28 145.043 44.48 145.833 44.88C146.633 45.27 147.248 45.8 147.678 46.47C148.118 47.14 148.338 47.895 148.338 48.735C148.338 49.955 147.893 50.935 147.003 51.675C146.113 52.415 144.898 52.995 143.358 53.415C141.828 53.825 140.093 54.165 138.153 54.435C138.353 55.195 138.708 55.865 139.218 56.445C139.728 57.015 140.328 57.46 141.018 57.78C141.708 58.1 142.423 58.26 143.163 58.26C144.203 58.26 145.158 58.065 146.028 57.675C146.908 57.275 147.598 56.79 148.098 56.22L149.343 57.81C148.593 58.58 147.673 59.195 146.583 59.655C145.503 60.105 144.363 60.33 143.163 60.33ZM137.973 52.65C139.513 52.43 140.878 52.165 142.068 51.855C143.258 51.545 144.193 51.14 144.873 50.64C145.553 50.13 145.893 49.475 145.893 48.675C145.893 47.995 145.643 47.445 145.143 47.025C144.653 46.605 143.953 46.395 143.043 46.395C142.213 46.395 141.403 46.6 140.613 47.01C139.833 47.41 139.188 48.02 138.678 48.84C138.178 49.65 137.928 50.675 137.928 51.915C137.928 52.165 137.943 52.41 137.973 52.65ZM157.523 60.33C156.273 60.33 155.178 60.045 154.238 59.475C153.308 58.895 152.583 58.09 152.063 57.06C151.543 56.02 151.283 54.81 151.283 53.43C151.283 51.6 151.643 50 152.363 48.63C153.083 47.26 154.088 46.195 155.378 45.435C156.678 44.665 158.193 44.28 159.923 44.28C160.933 44.28 161.928 44.4 162.908 44.64C163.888 44.87 164.678 45.18 165.278 45.57V55.71C165.278 56.37 165.448 56.905 165.788 57.315C166.138 57.715 166.593 57.915 167.153 57.915L166.643 60.06C165.773 60.06 165.018 59.825 164.378 59.355C163.738 58.885 163.333 58.27 163.163 57.51C162.653 58.36 161.883 59.045 160.853 59.565C159.823 60.075 158.713 60.33 157.523 60.33ZM157.898 58.26C158.888 58.26 159.748 58.04 160.478 57.6C161.218 57.15 161.793 56.545 162.203 55.785C162.613 55.025 162.818 54.165 162.818 53.205V46.92C162.508 46.76 162.083 46.635 161.543 46.545C161.003 46.445 160.448 46.395 159.878 46.395C158.668 46.395 157.608 46.685 156.698 47.265C155.798 47.835 155.093 48.635 154.583 49.665C154.083 50.695 153.833 51.9 153.833 53.28C153.833 54.77 154.203 55.975 154.943 56.895C155.693 57.805 156.678 58.26 157.898 58.26ZM176.424 60.33C175.014 60.33 173.779 60.005 172.719 59.355C171.659 58.705 170.834 57.79 170.244 56.61C169.654 55.43 169.359 54.055 169.359 52.485C169.359 50.935 169.624 49.545 170.154 48.315C170.694 47.075 171.489 46.095 172.539 45.375C173.589 44.645 174.884 44.28 176.424 44.28C177.414 44.28 178.319 44.43 179.139 44.73C179.959 45.03 180.779 45.535 181.599 46.245V37.41L184.074 37.11V54.15C184.074 55.29 184.134 56.22 184.254 56.94C184.384 57.65 184.549 58.23 184.749 58.68C184.959 59.13 185.174 59.52 185.394 59.85L182.964 60.195C182.684 59.855 182.424 59.42 182.184 58.89C181.954 58.35 181.824 57.835 181.794 57.345C181.344 58.285 180.639 59.02 179.679 59.55C178.719 60.07 177.634 60.33 176.424 60.33ZM176.694 58.26C177.894 58.26 178.854 57.985 179.574 57.435C180.294 56.885 180.814 56.14 181.134 55.2C181.454 54.25 181.614 53.18 181.614 51.99V48.84C181.054 48.09 180.329 47.495 179.439 47.055C178.559 46.615 177.674 46.395 176.784 46.395C175.654 46.395 174.729 46.66 174.009 47.19C173.289 47.72 172.759 48.44 172.419 49.35C172.079 50.25 171.909 51.265 171.909 52.395C171.909 53.555 172.109 54.58 172.509 55.47C172.919 56.35 173.484 57.035 174.204 57.525C174.924 58.015 175.754 58.26 176.694 58.26ZM194.312 67.41C193.552 67.41 192.712 67.325 191.792 67.155C190.872 66.995 190.032 66.775 189.272 66.495L189.557 64.2C190.247 64.54 191.007 64.815 191.837 65.025C192.677 65.245 193.432 65.355 194.102 65.355C195.672 65.355 196.937 64.925 197.897 64.065C198.857 63.205 199.337 62.07 199.337 60.66V58.08C198.187 59.58 196.547 60.33 194.417 60.33C193.447 60.33 192.522 60.145 191.642 59.775C190.762 59.395 190.052 58.78 189.512 57.93C188.972 57.08 188.722 55.945 188.762 54.525L188.852 51.27C188.902 49.67 188.852 48.425 188.702 47.535C188.562 46.645 188.412 46.015 188.252 45.645C188.092 45.265 187.997 45.05 187.967 45L190.442 44.61C190.462 44.66 190.552 44.86 190.712 45.21C190.882 45.56 191.037 46.195 191.177 47.115C191.327 48.025 191.377 49.345 191.327 51.075L191.237 54.525C191.217 55.505 191.377 56.265 191.717 56.805C192.057 57.345 192.502 57.725 193.052 57.945C193.602 58.155 194.182 58.26 194.792 58.26C195.622 58.26 196.377 58.075 197.057 57.705C197.747 57.335 198.297 56.805 198.707 56.115C199.127 55.415 199.337 54.575 199.337 53.595V44.61H201.797V60.345C201.797 61.755 201.482 62.99 200.852 64.05C200.232 65.11 199.362 65.935 198.242 66.525C197.122 67.115 195.812 67.41 194.312 67.41ZM219.554 60V40.38H212.519V38.16H229.214V40.38H222.134V60H219.554ZM236.255 60.33C234.665 60.33 233.275 60 232.085 59.34C230.895 58.67 229.965 57.735 229.295 56.535C228.635 55.335 228.305 53.935 228.305 52.335C228.305 50.725 228.635 49.315 229.295 48.105C229.955 46.895 230.88 45.955 232.07 45.285C233.27 44.615 234.66 44.28 236.24 44.28C237.81 44.28 239.18 44.615 240.35 45.285C241.52 45.955 242.43 46.89 243.08 48.09C243.73 49.29 244.055 50.695 244.055 52.305C244.055 53.905 243.73 55.31 243.08 56.52C242.43 57.72 241.52 58.655 240.35 59.325C239.18 59.995 237.815 60.33 236.255 60.33ZM236.255 58.26C237.835 58.26 239.105 57.72 240.065 56.64C241.025 55.55 241.505 54.115 241.505 52.335C241.505 50.545 241.02 49.11 240.05 48.03C239.09 46.94 237.82 46.395 236.24 46.395C234.63 46.395 233.33 46.945 232.34 48.045C231.35 49.135 230.855 50.575 230.855 52.365C230.855 54.135 231.35 55.56 232.34 56.64C233.33 57.72 234.635 58.26 236.255 58.26ZM263.311 60.33C261.981 60.33 260.606 60.135 259.186 59.745C257.766 59.345 256.551 58.815 255.541 58.155L255.961 55.665C256.621 56.175 257.361 56.615 258.181 56.985C259.011 57.355 259.851 57.645 260.701 57.855C261.561 58.055 262.356 58.155 263.086 58.155C264.636 58.155 265.776 57.78 266.506 57.03C267.246 56.28 267.616 55.265 267.616 53.985C267.616 53.615 267.551 53.265 267.421 52.935C267.301 52.605 267.046 52.28 266.656 51.96C266.276 51.64 265.701 51.315 264.931 50.985C264.161 50.655 263.131 50.305 261.841 49.935C260.131 49.445 258.811 48.89 257.881 48.27C256.951 47.64 256.311 46.925 255.961 46.125C255.611 45.315 255.446 44.395 255.466 43.365C255.486 42.215 255.811 41.22 256.441 40.38C257.071 39.54 257.936 38.895 259.036 38.445C260.146 37.985 261.431 37.755 262.891 37.755C263.921 37.755 265.011 37.885 266.161 38.145C267.311 38.395 268.466 38.885 269.626 39.615L268.846 41.73C268.006 41.2 267.086 40.78 266.086 40.47C265.086 40.15 264.121 39.99 263.191 39.99C259.961 39.99 258.301 41.06 258.211 43.2C258.181 43.88 258.286 44.48 258.526 45C258.776 45.52 259.281 46 260.041 46.44C260.811 46.87 261.961 47.305 263.491 47.745C265.371 48.285 266.806 48.87 267.796 49.5C268.786 50.13 269.461 50.82 269.821 51.57C270.191 52.32 270.376 53.155 270.376 54.075C270.376 55.215 270.126 56.26 269.626 57.21C269.126 58.16 268.356 58.92 267.316 59.49C266.276 60.05 264.941 60.33 263.311 60.33ZM281.288 60.345C279.888 60.345 278.563 60.05 277.313 59.46C276.073 58.86 275.063 57.975 274.283 56.805C273.513 55.635 273.128 54.185 273.128 52.455C273.128 51.145 273.358 49.985 273.818 48.975C274.288 47.955 274.913 47.095 275.693 46.395C276.483 45.695 277.368 45.165 278.348 44.805C279.338 44.435 280.348 44.25 281.378 44.25C282.288 44.25 283.188 44.4 284.078 44.7C284.978 45 285.793 45.5 286.523 46.2L285.623 48.015C285.063 47.475 284.433 47.075 283.733 46.815C283.033 46.545 282.328 46.41 281.618 46.41C280.618 46.41 279.663 46.64 278.753 47.1C277.843 47.55 277.103 48.22 276.533 49.11C275.963 50 275.678 51.09 275.678 52.38C275.678 53.71 275.958 54.81 276.518 55.68C277.078 56.54 277.803 57.18 278.693 57.6C279.593 58.01 280.543 58.215 281.543 58.215C282.353 58.215 283.163 58.065 283.973 57.765C284.783 57.455 285.498 57.01 286.118 56.43L286.973 58.32C286.143 58.99 285.233 59.495 284.243 59.835C283.253 60.175 282.268 60.345 281.288 60.345ZM294.573 60.33C293.323 60.33 292.228 60.045 291.288 59.475C290.358 58.895 289.633 58.09 289.113 57.06C288.593 56.02 288.333 54.81 288.333 53.43C288.333 51.6 288.693 50 289.413 48.63C290.133 47.26 291.138 46.195 292.428 45.435C293.728 44.665 295.243 44.28 296.973 44.28C297.983 44.28 298.978 44.4 299.958 44.64C300.938 44.87 301.728 45.18 302.328 45.57V55.71C302.328 56.37 302.498 56.905 302.838 57.315C303.188 57.715 303.643 57.915 304.203 57.915L303.693 60.06C302.823 60.06 302.068 59.825 301.428 59.355C300.788 58.885 300.383 58.27 300.213 57.51C299.703 58.36 298.933 59.045 297.903 59.565C296.873 60.075 295.763 60.33 294.573 60.33ZM294.948 58.26C295.938 58.26 296.798 58.04 297.528 57.6C298.268 57.15 298.843 56.545 299.253 55.785C299.663 55.025 299.868 54.165 299.868 53.205V46.92C299.558 46.76 299.133 46.635 298.593 46.545C298.053 46.445 297.498 46.395 296.928 46.395C295.718 46.395 294.658 46.685 293.748 47.265C292.848 47.835 292.143 48.635 291.633 49.665C291.133 50.695 290.883 51.9 290.883 53.28C290.883 54.77 291.253 55.975 291.993 56.895C292.743 57.805 293.728 58.26 294.948 58.26ZM322.43 60.285C321.34 60.445 320.51 60.385 319.94 60.105C319.37 59.825 318.98 59.325 318.77 58.605C318.56 57.875 318.455 56.92 318.455 55.74V51.57C318.455 49.75 318.205 48.435 317.705 47.625C317.205 46.805 316.375 46.395 315.215 46.395C314.495 46.395 313.76 46.575 313.01 46.935C312.27 47.285 311.635 47.84 311.105 48.6C310.585 49.35 310.285 50.325 310.205 51.525V60H307.745V49.515C307.745 48.645 307.595 47.885 307.295 47.235C306.995 46.585 306.67 45.97 306.32 45.39L308.795 44.61C309.065 45.02 309.31 45.44 309.53 45.87C309.76 46.29 309.91 46.745 309.98 47.235C310.43 46.345 311.195 45.63 312.275 45.09C313.365 44.55 314.52 44.28 315.74 44.28C317.48 44.28 318.78 44.855 319.64 46.005C320.5 47.145 320.93 48.985 320.93 51.525V55.2C320.93 55.96 320.945 56.585 320.975 57.075C321.005 57.565 321.14 57.91 321.38 58.11C321.62 58.3 322.05 58.335 322.67 58.215L322.43 60.285Z" fill="white"/>
</g>
<defs>
<clipPath id="bgblur_0_487_7908_clip_path" transform="translate(17 17)"><rect x="0.5" y="0.5" width="407" height="97" rx="9.5"/>
</clipPath><linearGradient id="paint0_linear_487_7908" x1="408" y1="49" x2="0" y2="49" gradientUnits="userSpaceOnUse">
<stop stop-color="#9C9C9C" stop-opacity="0"/>
<stop offset="0.456731" stop-color="#FF8D8D"/>
<stop offset="1" stop-color="#9C9C9C" stop-opacity="0"/>
</linearGradient>
</defs>
</svg>
