<svg width="310" height="57" viewBox="0 0 310 57" fill="none" xmlns="http://www.w3.org/2000/svg">
<path d="M28.671 2.35194V8.67994H18.255V41.4399H10.415V8.67994H-0.000968665V2.35194H28.671ZM51.8633 9.96794C54.2153 9.96794 56.306 10.4906 58.1353 11.5359C59.9647 12.5439 61.3833 14.0559 62.3913 16.0719C63.4367 18.0506 63.9593 20.4399 63.9593 23.2399V41.4399H56.1193V24.3039C56.1193 21.8399 55.5033 19.9546 54.2713 18.6479C53.0393 17.3039 51.3593 16.6319 49.2313 16.6319C47.066 16.6319 45.3487 17.3039 44.0793 18.6479C42.8473 19.9546 42.2313 21.8399 42.2313 24.3039V41.4399H34.3913V-5.91278e-05H42.2313V14.2799C43.2393 12.9359 44.5833 11.8906 46.2633 11.1439C47.9433 10.3599 49.81 9.96794 51.8633 9.96794ZM69.3988 25.8159C69.3988 22.6799 70.0148 19.8986 71.2468 17.4719C72.5161 15.0453 74.2148 13.1786 76.3428 11.8719C78.5081 10.5653 80.9161 9.91194 83.5668 9.91194C85.8814 9.91194 87.8974 10.3786 89.6148 11.3119C91.3694 12.2453 92.7694 13.4213 93.8148 14.8399V10.4159H101.711V41.4399H93.8148V36.9039C92.8068 38.3599 91.4068 39.5733 89.6148 40.5439C87.8601 41.4773 85.8254 41.9439 83.5108 41.9439C80.8974 41.9439 78.5081 41.2719 76.3428 39.9279C74.2148 38.5839 72.5161 36.6986 71.2468 34.2719C70.0148 31.8079 69.3988 28.9893 69.3988 25.8159ZM93.8148 25.9279C93.8148 24.0239 93.4414 22.3999 92.6948 21.0559C91.9481 19.6746 90.9401 18.6293 89.6708 17.9199C88.4014 17.1733 87.0388 16.7999 85.5828 16.7999C84.1268 16.7999 82.7828 17.1546 81.5508 17.8639C80.3188 18.5733 79.3108 19.6186 78.5268 20.9999C77.7801 22.3439 77.4068 23.9493 77.4068 25.8159C77.4068 27.6826 77.7801 29.3253 78.5268 30.7439C79.3108 32.1253 80.3188 33.1893 81.5508 33.9359C82.8201 34.6826 84.1641 35.0559 85.5828 35.0559C87.0388 35.0559 88.4014 34.7013 89.6708 33.9919C90.9401 33.2453 91.9481 32.1999 92.6948 30.8559C93.4414 29.4746 93.8148 27.8319 93.8148 25.9279ZM126.56 9.96794C130.256 9.96794 133.243 11.1439 135.52 13.4959C137.797 15.8106 138.936 19.0586 138.936 23.2399V41.4399H131.096V24.3039C131.096 21.8399 130.48 19.9546 129.248 18.6479C128.016 17.3039 126.336 16.6319 124.208 16.6319C122.043 16.6319 120.325 17.3039 119.056 18.6479C117.824 19.9546 117.208 21.8399 117.208 24.3039V41.4399H109.368V10.4159H117.208V14.2799C118.253 12.9359 119.579 11.8906 121.184 11.1439C122.827 10.3599 124.619 9.96794 126.56 9.96794ZM164.759 41.4399L154.231 28.2239V41.4399H146.391V-5.91278e-05H154.231V23.5759L164.647 10.4159H174.839L161.175 25.9839L174.951 41.4399H164.759ZM222.118 10.4159L202.91 56.1119H194.566L201.286 40.6559L188.854 10.4159H197.646L205.654 32.0879L213.774 10.4159H222.118ZM240.12 41.9439C237.134 41.9439 234.446 41.2906 232.056 39.9839C229.667 38.6399 227.782 36.7546 226.4 34.3279C225.056 31.9013 224.384 29.1013 224.384 25.9279C224.384 22.7546 225.075 19.9546 226.456 17.5279C227.875 15.1013 229.798 13.2346 232.224 11.9279C234.651 10.5839 237.358 9.91194 240.344 9.91194C243.331 9.91194 246.038 10.5839 248.464 11.9279C250.891 13.2346 252.795 15.1013 254.176 17.5279C255.595 19.9546 256.304 22.7546 256.304 25.9279C256.304 29.1013 255.576 31.9013 254.12 34.3279C252.702 36.7546 250.76 38.6399 248.296 39.9839C245.87 41.2906 243.144 41.9439 240.12 41.9439ZM240.12 35.1119C241.539 35.1119 242.864 34.7759 244.096 34.1039C245.366 33.3946 246.374 32.3493 247.12 30.9679C247.867 29.5866 248.24 27.9066 248.24 25.9279C248.24 22.9786 247.456 20.7199 245.888 19.1519C244.358 17.5466 242.472 16.7439 240.232 16.7439C237.992 16.7439 236.107 17.5466 234.576 19.1519C233.083 20.7199 232.336 22.9786 232.336 25.9279C232.336 28.8773 233.064 31.1546 234.52 32.7599C236.014 34.3279 237.88 35.1119 240.12 35.1119ZM291.343 10.4159V41.4399H283.447V37.5199C282.439 38.8639 281.114 39.9279 279.471 40.7119C277.866 41.4586 276.111 41.8319 274.207 41.8319C271.781 41.8319 269.634 41.3279 267.767 40.3199C265.901 39.2746 264.426 37.7626 263.343 35.7839C262.298 33.7679 261.775 31.3786 261.775 28.6159V10.4159H269.615V27.4959C269.615 29.9599 270.231 31.8639 271.463 33.2079C272.695 34.5146 274.375 35.1679 276.503 35.1679C278.669 35.1679 280.367 34.5146 281.599 33.2079C282.831 31.8639 283.447 29.9599 283.447 27.4959V10.4159H291.343ZM309.215 1.67994L308.319 28.7279H301.711L300.759 1.67994H309.215ZM305.183 41.8319C303.764 41.8319 302.588 41.4026 301.655 40.5439C300.759 39.6479 300.311 38.5466 300.311 37.2399C300.311 35.9333 300.759 34.8506 301.655 33.9919C302.588 33.0959 303.764 32.6479 305.183 32.6479C306.564 32.6479 307.703 33.0959 308.599 33.9919C309.495 34.8506 309.943 35.9333 309.943 37.2399C309.943 38.5466 309.495 39.6479 308.599 40.5439C307.703 41.4026 306.564 41.8319 305.183 41.8319Z" fill="url(#paint0_linear_595_6095)"/>
<defs>
<linearGradient id="paint0_linear_595_6095" x1="-1.89062" y1="21.4399" x2="315.109" y2="21.4399" gradientUnits="userSpaceOnUse">
<stop stop-color="#860606"/>
<stop offset="1" stop-color="#EA4D4E"/>
</linearGradient>
</defs>
</svg>
