<svg width="226" height="82" viewBox="0 0 226 82" fill="none" xmlns="http://www.w3.org/2000/svg">
<path d="M21.63 29L15.735 10.295L9.81 28.985H6.615L0.27 7.16H3.06L7.71 23.765L8.28 26.165L9.03 23.765L14.46 7.16H17.175L22.56 23.825L23.25 26.15L23.88 23.765L28.455 7.16H31.155L24.81 29H21.63ZM39.9002 29.33C38.3802 29.33 37.0202 29 35.8202 28.34C34.6302 27.68 33.6902 26.745 33.0002 25.535C32.3102 24.325 31.9652 22.9 31.9652 21.26C31.9652 19.85 32.2702 18.54 32.8802 17.33C33.5002 16.12 34.3902 15.145 35.5502 14.405C36.7202 13.655 38.1252 13.28 39.7652 13.28C40.8452 13.28 41.7802 13.48 42.5702 13.88C43.3702 14.27 43.9852 14.8 44.4152 15.47C44.8552 16.14 45.0752 16.895 45.0752 17.735C45.0752 18.955 44.6302 19.935 43.7402 20.675C42.8502 21.415 41.6352 21.995 40.0952 22.415C38.5652 22.825 36.8302 23.165 34.8902 23.435C35.0902 24.195 35.4452 24.865 35.9552 25.445C36.4652 26.015 37.0652 26.46 37.7552 26.78C38.4452 27.1 39.1602 27.26 39.9002 27.26C40.9402 27.26 41.8952 27.065 42.7652 26.675C43.6452 26.275 44.3352 25.79 44.8352 25.22L46.0802 26.81C45.3302 27.58 44.4102 28.195 43.3202 28.655C42.2402 29.105 41.1002 29.33 39.9002 29.33ZM34.7102 21.65C36.2502 21.43 37.6152 21.165 38.8052 20.855C39.9952 20.545 40.9302 20.14 41.6102 19.64C42.2902 19.13 42.6302 18.475 42.6302 17.675C42.6302 16.995 42.3802 16.445 41.8802 16.025C41.3902 15.605 40.6902 15.395 39.7802 15.395C38.9502 15.395 38.1402 15.6 37.3502 16.01C36.5702 16.41 35.9252 17.02 35.4152 17.84C34.9152 18.65 34.6652 19.675 34.6652 20.915C34.6652 21.165 34.6802 21.41 34.7102 21.65ZM57.4699 28.475C56.4599 28.915 55.4599 29.17 54.4699 29.24C53.4899 29.32 52.5999 29.205 51.7999 28.895C51.0099 28.575 50.3749 28.055 49.8949 27.335C49.4249 26.605 49.1899 25.66 49.1899 24.5V6.56L51.6499 6.11V24.62C51.6499 25.66 51.9199 26.39 52.4599 26.81C52.9999 27.23 53.6849 27.415 54.5149 27.365C55.3549 27.305 56.2149 27.09 57.0949 26.72L57.4699 28.475ZM66.4631 29.345C65.0631 29.345 63.7381 29.05 62.4881 28.46C61.2481 27.86 60.2381 26.975 59.4581 25.805C58.6881 24.635 58.3031 23.185 58.3031 21.455C58.3031 20.145 58.5331 18.985 58.9931 17.975C59.4631 16.955 60.0881 16.095 60.8681 15.395C61.6581 14.695 62.5431 14.165 63.5231 13.805C64.5131 13.435 65.5231 13.25 66.5531 13.25C67.4631 13.25 68.3631 13.4 69.2531 13.7C70.1531 14 70.9681 14.5 71.6981 15.2L70.7981 17.015C70.2381 16.475 69.6081 16.075 68.9081 15.815C68.2081 15.545 67.5031 15.41 66.7931 15.41C65.7931 15.41 64.8381 15.64 63.9281 16.1C63.0181 16.55 62.2781 17.22 61.7081 18.11C61.1381 19 60.8531 20.09 60.8531 21.38C60.8531 22.71 61.1331 23.81 61.6931 24.68C62.2531 25.54 62.9781 26.18 63.8681 26.6C64.7681 27.01 65.7181 27.215 66.7181 27.215C67.5281 27.215 68.3381 27.065 69.1481 26.765C69.9581 26.455 70.6731 26.01 71.2931 25.43L72.1481 27.32C71.3181 27.99 70.4081 28.495 69.4181 28.835C68.4281 29.175 67.4431 29.345 66.4631 29.345ZM81.4296 29.33C79.8396 29.33 78.4496 29 77.2596 28.34C76.0696 27.67 75.1396 26.735 74.4696 25.535C73.8096 24.335 73.4796 22.935 73.4796 21.335C73.4796 19.725 73.8096 18.315 74.4696 17.105C75.1296 15.895 76.0546 14.955 77.2446 14.285C78.4446 13.615 79.8346 13.28 81.4146 13.28C82.9846 13.28 84.3546 13.615 85.5246 14.285C86.6946 14.955 87.6046 15.89 88.2546 17.09C88.9046 18.29 89.2296 19.695 89.2296 21.305C89.2296 22.905 88.9046 24.31 88.2546 25.52C87.6046 26.72 86.6946 27.655 85.5246 28.325C84.3546 28.995 82.9896 29.33 81.4296 29.33ZM81.4296 27.26C83.0096 27.26 84.2796 26.72 85.2396 25.64C86.1996 24.55 86.6796 23.115 86.6796 21.335C86.6796 19.545 86.1946 18.11 85.2246 17.03C84.2646 15.94 82.9946 15.395 81.4146 15.395C79.8046 15.395 78.5046 15.945 77.5146 17.045C76.5246 18.135 76.0296 19.575 76.0296 21.365C76.0296 23.135 76.5246 24.56 77.5146 25.64C78.5046 26.72 79.8096 27.26 81.4296 27.26ZM118.742 29.285C117.652 29.445 116.812 29.385 116.222 29.105C115.642 28.825 115.242 28.325 115.022 27.605C114.802 26.875 114.692 25.92 114.692 24.74V20.57C114.692 18.75 114.442 17.435 113.942 16.625C113.442 15.805 112.612 15.395 111.452 15.395C110.692 15.395 109.922 15.59 109.142 15.98C108.362 16.37 107.707 16.98 107.177 17.81C106.657 18.63 106.397 19.7 106.397 21.02V29H103.922V20.57C103.922 18.75 103.677 17.435 103.187 16.625C102.697 15.805 101.872 15.395 100.712 15.395C99.9916 15.395 99.2566 15.575 98.5066 15.935C97.7666 16.285 97.1316 16.84 96.6016 17.6C96.0816 18.35 95.7816 19.325 95.7016 20.525V29H93.2416V18.515C93.2416 17.645 93.0916 16.885 92.7916 16.235C92.4916 15.585 92.1666 14.97 91.8166 14.39L94.2916 13.61C94.5616 14.02 94.8066 14.44 95.0266 14.87C95.2566 15.29 95.4066 15.745 95.4766 16.235C95.9266 15.345 96.6916 14.63 97.7716 14.09C98.8616 13.55 100.017 13.28 101.237 13.28C102.457 13.28 103.462 13.555 104.252 14.105C105.042 14.655 105.617 15.525 105.977 16.715L106.157 16.37C106.437 15.75 106.877 15.21 107.477 14.75C108.077 14.29 108.767 13.93 109.547 13.67C110.337 13.41 111.147 13.28 111.977 13.28C113.717 13.28 115.017 13.855 115.877 15.005C116.737 16.145 117.167 17.985 117.167 20.525V24.2C117.167 24.96 117.187 25.585 117.227 26.075C117.277 26.565 117.427 26.91 117.677 27.11C117.927 27.3 118.362 27.335 118.982 27.215L118.742 29.285ZM129.314 29.33C127.794 29.33 126.434 29 125.234 28.34C124.044 27.68 123.104 26.745 122.414 25.535C121.724 24.325 121.379 22.9 121.379 21.26C121.379 19.85 121.684 18.54 122.294 17.33C122.914 16.12 123.804 15.145 124.964 14.405C126.134 13.655 127.539 13.28 129.179 13.28C130.259 13.28 131.194 13.48 131.984 13.88C132.784 14.27 133.399 14.8 133.829 15.47C134.269 16.14 134.489 16.895 134.489 17.735C134.489 18.955 134.044 19.935 133.154 20.675C132.264 21.415 131.049 21.995 129.509 22.415C127.979 22.825 126.244 23.165 124.304 23.435C124.504 24.195 124.859 24.865 125.369 25.445C125.879 26.015 126.479 26.46 127.169 26.78C127.859 27.1 128.574 27.26 129.314 27.26C130.354 27.26 131.309 27.065 132.179 26.675C133.059 26.275 133.749 25.79 134.249 25.22L135.494 26.81C134.744 27.58 133.824 28.195 132.734 28.655C131.654 29.105 130.514 29.33 129.314 29.33ZM124.124 21.65C125.664 21.43 127.029 21.165 128.219 20.855C129.409 20.545 130.344 20.14 131.024 19.64C131.704 19.13 132.044 18.475 132.044 17.675C132.044 16.995 131.794 16.445 131.294 16.025C130.804 15.605 130.104 15.395 129.194 15.395C128.364 15.395 127.554 15.6 126.764 16.01C125.984 16.41 125.339 17.02 124.829 17.84C124.329 18.65 124.079 19.675 124.079 20.915C124.079 21.165 124.094 21.41 124.124 21.65ZM152.453 29.12C150.713 29.12 149.448 28.755 148.658 28.025C147.868 27.295 147.473 26.12 147.473 24.5V15.215H144.428V13.61H147.548V9.53L149.933 8.825V13.61H154.988V15.215H149.933V24.53C149.933 25.47 150.158 26.155 150.608 26.585C151.058 27.005 151.768 27.215 152.738 27.215C152.968 27.215 153.263 27.185 153.623 27.125C153.993 27.065 154.363 26.99 154.733 26.9C155.103 26.81 155.403 26.72 155.633 26.63L155.918 28.475C155.448 28.635 154.858 28.785 154.148 28.925C153.448 29.055 152.883 29.12 152.453 29.12ZM165.6 29.33C164.01 29.33 162.62 29 161.43 28.34C160.24 27.67 159.31 26.735 158.64 25.535C157.98 24.335 157.65 22.935 157.65 21.335C157.65 19.725 157.98 18.315 158.64 17.105C159.3 15.895 160.225 14.955 161.415 14.285C162.615 13.615 164.005 13.28 165.585 13.28C167.155 13.28 168.525 13.615 169.695 14.285C170.865 14.955 171.775 15.89 172.425 17.09C173.075 18.29 173.4 19.695 173.4 21.305C173.4 22.905 173.075 24.31 172.425 25.52C171.775 26.72 170.865 27.655 169.695 28.325C168.525 28.995 167.16 29.33 165.6 29.33ZM165.6 27.26C167.18 27.26 168.45 26.72 169.41 25.64C170.37 24.55 170.85 23.115 170.85 21.335C170.85 19.545 170.365 18.11 169.395 17.03C168.435 15.94 167.165 15.395 165.585 15.395C163.975 15.395 162.675 15.945 161.685 17.045C160.695 18.135 160.2 19.575 160.2 21.365C160.2 23.135 160.695 24.56 161.685 25.64C162.675 26.72 163.98 27.26 165.6 27.26Z" fill="white"/>
<path d="M2.52 74V52.85H5.25L13.41 71.24H12.51L20.67 52.85H23.37V74H20.55V57.08H21.54L13.92 74H11.97L4.35 57.08H5.37V74H2.52ZM33.5177 74.27C31.6977 74.27 30.3277 73.78 29.4077 72.8C28.5077 71.8 28.0577 70.27 28.0577 68.21V58.88H31.0877V68.15C31.0877 69.41 31.3477 70.34 31.8677 70.94C32.3877 71.54 33.1777 71.84 34.2377 71.84C35.4377 71.84 36.4077 71.44 37.1477 70.64C37.8877 69.84 38.2577 68.78 38.2577 67.46V58.88H41.2877V74H38.3477V70.76H38.7377C38.3177 71.88 37.6477 72.75 36.7277 73.37C35.8077 73.97 34.7377 74.27 33.5177 74.27ZM45.7259 74V51.92H48.7559V65.48H48.8159L55.4159 58.88H59.1659L51.1859 66.83L51.2159 65.48L59.8259 74H55.9859L48.8159 67.07H48.7559V74H45.7259ZM67.3362 74.27C65.9962 74.27 64.8262 73.96 63.8262 73.34C62.8262 72.72 62.0462 71.82 61.4862 70.64C60.9462 69.46 60.6762 68.06 60.6762 66.44C60.6762 64.8 60.9462 63.4 61.4862 62.24C62.0462 61.08 62.8262 60.19 63.8262 59.57C64.8262 58.93 65.9962 58.61 67.3362 58.61C68.6562 58.61 69.8062 58.94 70.7862 59.6C71.7662 60.26 72.4162 61.16 72.7362 62.3H72.4062L72.7062 58.88H75.6462C75.5862 59.5 75.5262 60.12 75.4662 60.74C75.4262 61.34 75.4062 61.93 75.4062 62.51V74H72.3762V70.64H72.7062C72.3862 71.76 71.7262 72.65 70.7262 73.31C69.7462 73.95 68.6162 74.27 67.3362 74.27ZM68.0862 71.9C69.3862 71.9 70.4262 71.44 71.2062 70.52C72.0062 69.6 72.4062 68.24 72.4062 66.44C72.4062 64.64 72.0062 63.29 71.2062 62.39C70.4262 61.47 69.3862 61.01 68.0862 61.01C66.7662 61.01 65.7062 61.47 64.9062 62.39C64.1262 63.29 63.7362 64.64 63.7362 66.44C63.7362 68.24 64.1262 69.6 64.9062 70.52C65.6862 71.44 66.7462 71.9 68.0862 71.9ZM79.8274 74V62.51C79.8274 61.93 79.7974 61.34 79.7374 60.74C79.6974 60.12 79.6474 59.5 79.5874 58.88H82.5274L82.7974 62.06H82.4374C82.8974 60.94 83.6074 60.09 84.5674 59.51C85.5274 58.91 86.6374 58.61 87.8974 58.61C89.6774 58.61 91.0174 59.1 91.9174 60.08C92.8374 61.06 93.2974 62.58 93.2974 64.64V74H90.2674V64.82C90.2674 63.48 89.9974 62.52 89.4574 61.94C88.9374 61.34 88.1374 61.04 87.0574 61.04C85.7774 61.04 84.7574 61.44 83.9974 62.24C83.2374 63.02 82.8574 64.08 82.8574 65.42V74H79.8274ZM103.401 74.27C102.081 74.27 100.911 73.96 99.8906 73.34C98.8906 72.72 98.1106 71.82 97.5506 70.64C97.0106 69.46 96.7406 68.06 96.7406 66.44C96.7406 64.8 97.0106 63.4 97.5506 62.24C98.1106 61.08 98.8906 60.19 99.8906 59.57C100.911 58.93 102.081 58.61 103.401 58.61C104.701 58.61 105.841 58.94 106.821 59.6C107.821 60.24 108.481 61.12 108.801 62.24H108.441V51.92H111.471V74H108.471V70.58H108.831C108.491 71.72 107.831 72.62 106.851 73.28C105.871 73.94 104.721 74.27 103.401 74.27ZM104.151 71.9C105.451 71.9 106.501 71.44 107.301 70.52C108.101 69.6 108.501 68.24 108.501 66.44C108.501 64.64 108.101 63.29 107.301 62.39C106.501 61.47 105.451 61.01 104.151 61.01C102.831 61.01 101.771 61.47 100.971 62.39C100.191 63.29 99.8006 64.64 99.8006 66.44C99.8006 68.24 100.191 69.6 100.971 70.52C101.771 71.44 102.831 71.9 104.151 71.9ZM124.16 74V52.85H127.28V71.33H137.66V74H124.16ZM140.443 74V58.88H143.473V74H140.443ZM140.203 55.73V52.58H143.713V55.73H140.203ZM147.913 74V62.51C147.913 61.93 147.883 61.34 147.823 60.74C147.783 60.12 147.733 59.5 147.673 58.88H150.613L150.883 62.06H150.523C150.943 60.96 151.583 60.11 152.443 59.51C153.323 58.91 154.373 58.61 155.593 58.61C156.833 58.61 157.843 58.91 158.623 59.51C159.423 60.09 159.973 60.99 160.273 62.21H159.793C160.193 61.11 160.873 60.24 161.833 59.6C162.793 58.94 163.903 58.61 165.163 58.61C166.843 58.61 168.103 59.1 168.943 60.08C169.783 61.06 170.203 62.58 170.203 64.64V74H167.173V64.79C167.173 63.47 166.943 62.52 166.483 61.94C166.043 61.34 165.323 61.04 164.323 61.04C163.163 61.04 162.243 61.44 161.563 62.24C160.883 63.04 160.543 64.12 160.543 65.48V74H157.513V64.79C157.513 63.47 157.283 62.52 156.823 61.94C156.383 61.34 155.663 61.04 154.663 61.04C153.503 61.04 152.593 61.44 151.933 62.24C151.273 63.04 150.943 64.12 150.943 65.48V74H147.913ZM174.544 74V58.88H177.574V74H174.544ZM174.304 55.73V52.58H177.814V55.73H174.304ZM187.895 74.27C186.255 74.27 185.015 73.83 184.175 72.95C183.335 72.05 182.915 70.71 182.915 68.93V61.22H179.975V58.88H182.915V54.89L185.945 54.08V58.88H190.145V61.22H185.945V68.66C185.945 69.78 186.145 70.58 186.545 71.06C186.945 71.54 187.525 71.78 188.285 71.78C188.665 71.78 188.995 71.75 189.275 71.69C189.575 71.61 189.845 71.52 190.085 71.42V73.88C189.785 74 189.435 74.09 189.035 74.15C188.635 74.23 188.255 74.27 187.895 74.27ZM199.757 74.27C197.317 74.27 195.397 73.58 193.997 72.2C192.597 70.82 191.897 68.91 191.897 66.47C191.897 64.89 192.197 63.51 192.797 62.33C193.417 61.15 194.267 60.24 195.347 59.6C196.447 58.94 197.717 58.61 199.157 58.61C200.577 58.61 201.767 58.91 202.727 59.51C203.687 60.11 204.417 60.96 204.917 62.06C205.417 63.14 205.667 64.42 205.667 65.9V66.86H194.267V65.12H203.597L203.087 65.51C203.087 64.01 202.747 62.85 202.067 62.03C201.407 61.19 200.447 60.77 199.187 60.77C197.787 60.77 196.707 61.26 195.947 62.24C195.187 63.2 194.807 64.53 194.807 66.23V66.53C194.807 68.31 195.237 69.65 196.097 70.55C196.977 71.45 198.217 71.9 199.817 71.9C200.697 71.9 201.517 71.78 202.277 71.54C203.057 71.28 203.797 70.86 204.497 70.28L205.487 72.35C204.787 72.97 203.937 73.45 202.937 73.79C201.937 74.11 200.877 74.27 199.757 74.27ZM214.934 74.27C213.614 74.27 212.444 73.96 211.424 73.34C210.424 72.72 209.644 71.82 209.084 70.64C208.544 69.46 208.274 68.06 208.274 66.44C208.274 64.8 208.544 63.4 209.084 62.24C209.644 61.08 210.424 60.19 211.424 59.57C212.444 58.93 213.614 58.61 214.934 58.61C216.234 58.61 217.374 58.94 218.354 59.6C219.354 60.24 220.014 61.12 220.334 62.24H219.974V51.92H223.004V74H220.004V70.58H220.364C220.024 71.72 219.364 72.62 218.384 73.28C217.404 73.94 216.254 74.27 214.934 74.27ZM215.684 71.9C216.984 71.9 218.034 71.44 218.834 70.52C219.634 69.6 220.034 68.24 220.034 66.44C220.034 64.64 219.634 63.29 218.834 62.39C218.034 61.47 216.984 61.01 215.684 61.01C214.364 61.01 213.304 61.47 212.504 62.39C211.724 63.29 211.334 64.64 211.334 66.44C211.334 68.24 211.724 69.6 212.504 70.52C213.304 71.44 214.364 71.9 215.684 71.9Z" fill="white"/>
</svg>
